{"glyphs":{"0":{"ha":866,"x_min":138,"x_max":865,"o":"m 451 71 q 546 87 503 71 q 622 134 589 104 q 680 202 655 163 q 720 287 704 241 q 744 380 736 332 q 751 475 751 428 q 700 668 751 606 q 545 729 648 729 q 414 696 469 729 q 323 608 359 663 q 269 484 287 554 q 248 339 251 413 q 252 242 244 290 q 284 156 260 194 q 348 94 307 117 q 451 71 389 71 m 559 820 q 704 791 646 820 q 799 715 763 762 q 849 608 834 668 q 865 484 865 547 q 854 371 865 429 q 821 256 843 313 q 764 150 798 200 q 682 62 729 100 q 574 2 635 24 q 439 -20 514 -20 q 291 11 350 -20 q 199 93 233 42 q 151 208 165 143 q 138 339 138 272 q 149 449 138 393 q 182 559 160 505 q 239 660 205 612 q 321 743 274 707 q 427 799 368 779 q 559 820 486 820 z "},"1":{"ha":443,"x_min":160,"x_max":446,"o":"m 229 0 l 328 706 l 178 659 l 160 734 l 338 791 l 446 791 l 335 0 l 229 0 z "},"2":{"ha":670,"x_min":80,"x_max":673,"o":"m 570 597 q 556 655 570 631 q 519 693 542 679 q 466 715 496 708 q 404 722 436 722 q 311 709 356 722 q 217 679 266 696 l 191 758 q 310 799 251 787 q 432 812 368 812 q 536 797 491 812 q 611 753 581 781 q 657 684 642 724 q 673 594 673 644 q 627 436 673 514 q 478 281 581 357 l 233 98 l 583 98 l 569 0 l 80 0 l 92 94 l 324 279 q 427 366 381 325 q 504 445 473 406 q 553 521 536 484 q 570 597 570 558 z "},"3":{"ha":640,"x_min":20,"x_max":643,"o":"m 319 414 q 431 433 387 414 q 498 480 474 452 q 532 541 523 508 q 541 604 541 574 q 500 694 541 667 q 374 720 460 720 q 327 717 352 720 q 277 707 302 713 q 227 693 252 701 q 180 676 202 685 l 162 763 q 204 780 179 770 q 258 797 229 789 q 318 810 287 804 q 380 815 350 815 q 479 804 431 815 q 563 768 526 792 q 621 705 600 743 q 643 614 643 667 q 632 537 643 572 q 605 474 622 502 q 565 427 587 447 q 518 394 543 408 q 469 375 494 381 q 424 369 445 369 q 481 350 450 363 q 538 312 512 336 q 583 250 565 288 q 600 159 600 213 q 586 64 600 106 q 547 -10 572 22 q 490 -66 522 -43 q 420 -105 457 -90 q 344 -128 383 -121 q 269 -135 305 -135 q 142 -119 205 -135 q 20 -69 80 -102 l 63 10 q 99 -4 77 4 q 148 -20 120 -13 q 210 -33 176 -28 q 285 -39 245 -39 q 382 -22 342 -39 q 447 22 422 -5 q 482 82 471 49 q 493 149 493 116 q 447 268 493 227 q 305 321 400 309 l 319 414 z "},"4":{"ha":726,"x_min":77,"x_max":722,"o":"m 604 821 l 701 793 l 607 129 l 722 129 l 709 45 l 594 45 l 563 -179 l 461 -199 l 497 45 l 77 45 l 77 133 l 604 821 m 180 127 l 509 127 l 588 661 l 180 127 z "},"5":{"ha":697,"x_min":92,"x_max":701,"o":"m 678 222 q 651 74 678 141 q 575 -40 624 7 q 459 -114 527 -88 q 312 -140 392 -140 q 251 -137 281 -140 q 191 -126 220 -133 q 137 -111 162 -120 q 92 -91 111 -102 l 98 0 q 116 -8 99 -1 q 163 -23 133 -16 q 235 -38 193 -31 q 328 -44 277 -44 q 429 -27 382 -44 q 511 23 476 -9 q 565 103 545 56 q 585 211 585 151 q 543 328 585 289 q 412 368 500 368 q 356 363 385 368 q 303 353 328 359 q 259 341 278 347 q 229 331 239 335 l 166 383 l 243 794 l 701 794 l 689 696 l 315 696 l 257 412 q 282 423 267 417 q 315 434 297 429 q 352 446 332 440 q 391 456 371 452 q 458 468 431 467 q 624 405 569 469 q 678 222 678 341 z "},"6":{"ha":803,"x_min":155,"x_max":783,"o":"m 277 353 q 271 334 273 345 q 266 313 269 324 q 258 262 262 292 q 255 191 255 232 q 431 -14 255 -14 q 541 14 494 -14 q 618 83 588 41 q 662 177 648 125 q 677 276 677 228 q 665 352 677 319 q 632 405 653 384 q 581 436 610 426 q 518 447 552 447 q 418 432 463 447 q 342 400 374 418 q 277 353 304 378 m 783 284 q 773 194 783 240 q 744 104 764 148 q 694 23 724 61 q 623 -44 664 -15 q 531 -89 583 -73 q 417 -106 479 -106 q 299 -82 349 -106 q 218 -15 250 -58 q 170 92 186 29 q 155 231 155 154 q 174 375 155 304 q 227 512 193 446 q 311 637 262 578 q 419 746 359 696 q 548 833 479 795 q 692 894 616 871 l 703 800 q 630 777 669 792 q 551 738 591 761 q 472 684 511 715 q 399 615 433 653 q 338 532 365 577 q 295 435 311 487 q 530 536 389 536 q 638 518 591 536 q 717 467 685 500 q 766 387 749 433 q 783 284 783 340 z "},"7":{"ha":606,"x_min":83,"x_max":690,"o":"m 668 793 l 690 711 l 178 -161 l 83 -111 l 574 695 l 130 695 l 142 793 l 668 793 z "},"8":{"ha":781,"x_min":125,"x_max":797,"o":"m 530 825 q 426 806 467 825 q 360 758 385 787 q 327 691 336 728 q 317 618 317 654 q 327 557 317 582 q 357 515 337 532 q 409 488 378 498 q 481 474 439 479 q 645 542 593 489 q 696 692 696 594 q 530 825 696 825 m 468 397 q 348 356 393 386 q 279 288 303 326 q 247 210 254 250 q 239 136 239 169 q 281 34 239 64 q 409 3 323 3 q 501 13 459 3 q 573 47 543 23 q 621 113 604 72 q 637 218 637 155 q 468 397 638 373 m 216 621 q 236 729 216 676 q 296 822 256 781 q 397 888 336 863 q 541 913 458 913 q 647 899 600 913 q 728 857 694 884 q 779 790 761 829 q 797 701 797 750 q 786 618 797 654 q 758 555 775 583 q 718 507 740 527 q 675 472 696 486 q 634 450 653 458 q 603 437 615 441 q 612 433 602 437 q 638 421 622 430 q 673 396 654 412 q 709 357 692 381 q 736 298 725 333 q 747 217 747 264 q 718 77 747 136 q 641 -20 689 18 q 529 -76 592 -58 q 398 -94 466 -94 q 292 -81 342 -94 q 206 -42 243 -68 q 147 25 169 -16 q 125 121 125 66 q 142 225 125 176 q 187 315 158 274 q 256 387 216 356 q 345 437 296 418 q 303 459 326 446 q 261 493 281 472 q 229 546 242 515 q 216 621 216 577 z "},"9":{"ha":765,"x_min":139,"x_max":773,"o":"m 646 362 q 653 395 650 374 q 660 438 657 415 q 665 484 663 461 q 667 524 667 507 q 492 728 669 728 q 414 715 449 728 q 351 680 378 702 q 304 629 323 658 q 271 567 284 600 q 252 502 258 535 q 246 438 246 468 q 258 362 246 394 q 292 309 271 330 q 342 277 313 288 q 405 267 371 267 q 443 270 424 267 q 481 278 463 273 q 535 296 509 286 q 583 318 561 307 q 622 341 605 330 q 646 362 638 353 m 139 431 q 149 517 139 473 q 177 606 158 562 q 227 688 197 649 q 297 756 256 727 q 390 803 338 786 q 506 821 442 821 q 623 800 572 821 q 706 741 673 780 q 756 647 740 703 q 773 522 773 591 q 733 280 773 394 q 621 75 693 167 q 450 -82 549 -16 q 232 -180 351 -148 l 219 -85 q 332 -47 271 -74 q 450 23 393 -21 q 554 131 507 68 q 628 280 602 195 q 392 178 535 178 q 285 196 332 178 q 205 247 238 214 q 156 327 173 280 q 139 431 139 374 z "},"\u0000":{"ha":1291,"x_min":0,"x_max":0,"o":""},"\r":{"ha":433,"x_min":0,"x_max":0,"o":""}," ":{"ha":324,"x_min":0,"x_max":0,"o":""},"!":{"ha":398,"x_min":60,"x_max":369,"o":"m 369 1069 l 209 266 l 144 266 l 227 1069 l 369 1069 m 235 0 l 60 0 l 87 194 l 261 194 l 235 0 z "},"\"":{"ha":484,"x_min":109,"x_max":498,"o":"m 360 1069 l 498 1069 l 417 727 l 353 727 l 360 1069 m 110 1069 l 256 1069 l 176 727 l 109 727 l 110 1069 z "},"#":{"ha":823,"x_min":95,"x_max":779,"o":"m 484 287 l 309 287 l 244 35 l 158 35 l 221 287 l 95 287 l 108 350 l 233 350 l 295 591 l 167 591 l 181 652 l 309 652 l 376 905 l 463 905 l 395 652 l 570 652 l 636 903 l 724 903 l 656 652 l 779 652 l 763 591 l 644 591 l 583 350 l 708 350 l 696 287 l 568 287 l 507 35 l 419 35 l 484 287 m 321 350 l 493 350 l 556 591 l 385 591 l 321 350 z "},"$":{"ha":750,"x_min":62,"x_max":689,"o":"m 657 220 q 631 111 657 157 q 559 35 604 64 q 456 -10 515 5 q 332 -24 397 -24 l 315 -129 l 254 -129 l 271 -22 q 170 -4 222 -20 q 62 41 118 12 l 105 123 q 163 95 134 106 q 220 75 189 84 q 285 66 252 66 l 347 410 q 306 429 321 422 q 281 440 291 436 q 266 448 272 445 q 255 455 260 452 q 199 494 224 473 q 156 539 174 515 q 130 594 139 564 q 121 659 121 623 q 149 757 121 716 q 221 823 177 798 q 319 861 265 848 q 422 873 372 873 l 439 977 l 496 977 l 479 872 q 553 865 516 872 q 621 848 591 857 q 669 831 650 839 q 689 825 688 824 l 656 751 q 601 768 629 760 q 548 780 573 775 q 502 788 523 785 q 466 791 481 791 l 415 485 q 445 472 431 477 q 472 460 459 466 q 561 412 526 435 q 618 360 597 388 q 648 298 640 332 q 657 220 657 264 m 408 791 q 328 782 364 790 q 266 757 292 773 q 225 718 239 741 q 210 662 210 694 q 216 610 210 632 q 247 566 222 587 q 291 537 264 552 q 360 502 317 522 l 408 791 m 350 65 q 514 101 459 64 q 568 222 568 138 q 562 276 568 252 q 537 321 555 300 q 486 360 519 342 q 402 393 454 378 l 350 65 z "},"%":{"ha":1140,"x_min":121,"x_max":1011,"o":"m 774 56 q 840 73 812 56 q 885 117 867 90 q 914 177 903 144 q 930 242 925 210 q 937 302 936 275 q 939 346 939 330 q 933 398 939 375 q 916 438 928 422 q 884 464 904 455 q 836 473 865 473 q 780 459 804 473 q 738 422 755 445 q 709 369 720 399 q 690 307 697 339 q 680 244 683 275 q 677 187 677 213 q 774 56 677 56 m 460 874 q 456 920 460 897 q 440 962 452 943 q 410 991 429 980 q 359 1003 390 1003 q 301 988 326 1003 q 259 950 277 974 q 229 896 241 926 q 211 834 218 865 q 201 773 204 803 q 199 721 199 743 q 299 585 199 585 q 357 600 332 585 q 400 639 382 615 q 430 694 418 663 q 448 757 441 725 q 458 820 455 789 q 460 874 460 850 m 241 -36 l 823 1124 l 887 1095 l 300 -62 l 241 -36 m 1011 340 q 1004 256 1011 298 q 985 175 998 214 q 952 100 972 135 q 906 40 932 66 q 848 -1 880 14 q 777 -16 816 -16 q 693 1 726 -16 q 639 46 659 18 q 610 111 618 74 q 602 187 602 147 q 605 242 602 208 q 617 315 608 276 q 643 394 627 354 q 687 467 660 434 q 751 519 713 499 q 842 540 789 540 q 922 524 890 540 q 975 480 955 507 q 1003 416 994 452 q 1011 340 1011 380 m 533 869 q 529 806 533 842 q 513 730 524 769 q 485 653 503 691 q 439 585 467 615 q 375 537 412 555 q 289 518 338 518 q 208 536 240 518 q 156 584 175 555 q 129 651 136 614 q 121 726 121 688 q 126 801 121 762 q 144 879 132 840 q 176 951 157 917 q 222 1012 195 986 q 284 1054 249 1038 q 363 1069 319 1069 q 444 1054 411 1069 q 496 1010 476 1038 q 525 946 516 983 q 533 869 533 910 z "},"&":{"ha":1040,"x_min":75,"x_max":951,"o":"m 432 575 q 457 584 444 580 q 481 593 469 588 q 542 623 514 607 q 590 661 570 639 q 622 710 610 682 q 633 777 633 739 q 597 857 633 828 q 496 885 562 885 q 408 870 441 885 q 356 833 374 855 q 333 787 338 811 q 328 744 328 762 q 339 693 328 718 q 368 646 351 668 q 402 606 385 624 q 432 575 420 588 m 731 786 q 711 680 731 724 q 658 604 692 635 q 580 550 625 572 q 486 513 536 529 l 752 240 q 816 369 789 304 q 865 505 844 435 l 951 505 q 924 423 939 465 q 891 338 909 380 q 854 256 873 296 q 813 179 834 215 l 939 63 l 878 -3 l 766 112 q 705 45 739 72 q 628 2 671 18 q 529 -20 585 -14 q 403 -26 474 -26 q 269 -10 329 -26 q 165 37 208 6 q 98 113 122 68 q 75 214 75 157 q 91 312 75 262 q 139 407 106 362 q 223 489 172 452 q 346 547 275 526 q 301 595 323 572 q 263 644 280 619 q 237 693 247 668 q 227 746 227 718 q 232 789 227 765 q 249 839 237 813 q 281 888 260 864 q 333 931 301 912 q 408 962 364 950 q 510 973 452 973 q 606 960 565 973 q 675 921 648 946 q 717 862 703 897 q 731 786 731 827 m 393 486 q 306 452 346 475 q 237 397 267 429 q 192 323 208 364 q 175 237 175 283 q 192 158 175 191 q 241 102 210 124 q 317 70 273 80 q 416 59 361 59 q 512 62 471 59 q 586 78 553 66 q 647 112 618 90 q 704 171 675 134 l 393 486 z "},"'":{"ha":342,"x_min":187,"x_max":345,"o":"m 187 1065 l 345 1065 l 231 707 l 187 707 l 187 1065 z "},"(":{"ha":538,"x_min":175,"x_max":563,"o":"m 563 1017 q 471 916 519 977 q 382 769 423 854 q 315 570 342 683 q 288 315 288 458 q 300 167 288 231 q 330 57 312 103 q 369 -21 347 10 q 409 -73 390 -53 l 344 -135 q 287 -78 312 -111 q 243 -7 262 -45 q 212 74 224 32 q 191 159 199 117 q 179 243 182 202 q 175 320 175 284 q 195 532 175 426 q 257 736 215 637 q 362 923 298 836 q 515 1081 427 1011 l 563 1017 z "},")":{"ha":538,"x_min":52,"x_max":438,"o":"m 52 -73 q 178 80 126 -3 q 263 254 230 163 q 311 440 296 345 q 326 628 326 535 q 311 790 326 722 q 276 904 296 858 q 236 978 256 951 q 205 1017 216 1005 l 270 1081 q 350 988 318 1041 q 402 876 382 936 q 430 752 422 817 q 438 625 438 688 q 417 409 438 516 q 354 203 396 302 q 249 19 312 105 q 100 -135 185 -68 l 52 -73 z "},"*":{"ha":578,"x_min":96,"x_max":600,"o":"m 357 871 l 482 1061 l 539 1025 l 399 836 l 600 836 l 589 771 l 393 771 l 469 591 l 395 555 l 331 723 l 216 555 l 159 591 l 294 777 l 96 777 l 106 844 l 302 844 l 227 1023 l 296 1059 l 357 871 z "},"+":{"ha":666,"x_min":139,"x_max":631,"o":"m 618 353 l 421 353 l 389 119 l 302 119 l 336 353 l 139 353 l 151 439 l 348 439 l 382 674 l 465 674 l 433 439 l 631 439 l 618 353 z "},",":{"ha":382,"x_min":47,"x_max":264,"o":"m 63 0 l 90 194 l 264 194 l 239 1 q 223 -62 236 -35 q 190 -109 211 -89 q 138 -143 168 -129 q 69 -168 108 -157 l 47 -105 q 90 -87 73 -96 q 118 -65 107 -77 q 134 -37 129 -53 q 143 0 140 -22 l 63 0 z "},"-":{"ha":528,"x_min":131,"x_max":503,"o":"m 492 341 l 131 341 l 142 425 l 503 425 l 492 341 z "},".":{"ha":326,"x_min":63,"x_max":264,"o":"m 239 0 l 63 0 l 90 194 l 264 194 l 239 0 z "},"/":{"ha":637,"x_min":66,"x_max":728,"o":"m 66 -66 l 633 1173 l 728 1135 l 151 -109 l 66 -66 z "},":":{"ha":478,"x_min":106,"x_max":365,"o":"m 167 410 l 195 583 l 365 583 l 337 410 l 167 410 m 106 0 l 134 173 l 304 173 l 276 0 l 106 0 z "},";":{"ha":499,"x_min":109,"x_max":364,"o":"m 125 0 l 153 194 l 328 194 l 301 -1 q 287 -63 299 -37 q 254 -109 275 -89 q 202 -142 233 -128 q 132 -168 171 -157 l 109 -105 q 153 -87 136 -96 q 180 -65 170 -77 q 197 -37 191 -53 q 205 0 202 -22 l 125 0 m 166 410 l 194 583 l 364 583 l 336 410 l 166 410 z "},"<":{"ha":662,"x_min":166,"x_max":596,"o":"m 577 579 l 273 391 l 526 201 l 507 73 l 166 327 l 183 450 l 596 705 l 577 579 z "},"=":{"ha":614,"x_min":110,"x_max":508,"o":"m 496 353 l 135 353 l 146 437 l 508 437 l 496 353 m 471 178 l 110 178 l 121 262 l 483 262 l 471 178 z "},">":{"ha":614,"x_min":119,"x_max":551,"o":"m 190 569 l 210 705 l 551 450 l 532 326 l 119 71 l 138 208 l 431 389 l 190 569 z "},"?":{"ha":707,"x_min":115,"x_max":701,"o":"m 593 807 q 584 859 593 836 q 556 896 575 881 q 506 918 536 910 q 430 925 475 925 q 373 920 401 925 q 317 907 344 915 q 264 889 290 899 q 219 870 239 879 l 182 961 q 234 983 206 972 q 294 1003 262 994 q 362 1018 326 1013 q 437 1024 397 1024 q 563 1007 513 1024 q 644 962 614 991 q 688 895 675 933 q 701 813 701 857 q 677 694 701 749 q 616 595 653 640 q 533 516 578 551 q 444 455 487 481 q 364 413 400 429 q 309 388 328 396 l 290 282 l 196 282 l 216 451 l 238 461 q 263 473 249 466 q 295 488 277 479 q 359 522 325 503 q 426 563 393 541 q 489 612 458 585 q 542 669 519 638 q 579 734 566 699 q 593 807 593 768 m 290 0 l 115 0 l 142 194 l 315 194 l 290 0 z "},"@":{"ha":1305,"x_min":147,"x_max":1221,"o":"m 780 684 q 702 673 741 684 q 628 641 663 662 q 562 590 593 620 q 509 525 532 561 q 469 438 484 484 q 455 342 455 393 q 579 218 455 218 q 753 302 682 218 q 809 393 785 341 q 846 506 832 444 l 884 669 q 828 679 856 675 q 777 682 800 682 q 780 684 776 682 m 861 131 q 811 146 825 131 q 798 191 798 161 q 800 215 798 199 q 808 250 803 231 q 818 291 812 269 q 829 333 823 312 q 796 267 817 302 q 742 201 775 231 q 663 150 709 170 q 553 130 616 130 q 472 145 507 130 q 411 187 436 159 q 373 254 386 214 q 360 342 360 293 q 376 447 360 395 q 421 545 393 498 q 489 632 450 592 q 574 700 528 671 q 672 745 621 729 q 776 762 723 762 q 797 760 781 762 q 831 755 812 758 q 871 749 850 752 q 910 743 892 745 q 939 739 928 741 q 950 739 950 738 q 954 728 950 739 q 963 704 958 718 q 972 680 968 690 l 976 669 l 871 208 q 955 228 918 210 q 1020 275 992 245 q 1067 343 1048 304 q 1099 423 1087 381 q 1117 507 1112 465 q 1123 587 1123 549 q 1098 720 1123 663 q 1027 815 1074 777 q 914 872 981 853 q 763 890 847 890 q 631 871 694 890 q 513 819 568 852 q 411 737 458 785 q 330 632 365 689 q 266 485 288 563 q 243 324 243 406 q 268 188 243 249 q 343 85 294 127 q 464 19 392 42 q 627 -3 535 -3 q 748 7 693 -3 q 844 34 802 18 q 917 69 886 50 q 964 104 947 88 q 971 96 964 105 q 986 76 978 87 q 1000 55 994 64 q 1007 47 1007 46 q 955 4 989 28 q 871 -41 920 -20 q 756 -77 821 -62 q 611 -92 691 -92 q 420 -64 506 -92 q 274 16 335 -36 q 180 144 214 68 q 147 315 147 220 q 170 482 147 400 q 233 638 193 564 q 331 774 274 712 q 457 882 388 836 q 605 952 527 927 q 770 978 683 978 q 951 953 868 978 q 1094 880 1034 928 q 1187 759 1154 831 q 1221 592 1221 687 q 1211 481 1221 537 q 1180 375 1200 426 q 1129 279 1159 323 q 1059 202 1099 235 q 969 150 1019 169 q 861 131 920 131 z "},"A":{"ha":878,"x_min":29,"x_max":866,"o":"m 610 1010 l 481 730 l 295 326 l 704 326 l 646 734 l 610 1010 m 524 1069 l 712 1069 l 866 0 l 749 0 l 713 259 l 264 259 l 145 0 l 29 0 l 524 1069 z "},"B":{"ha":841,"x_min":100,"x_max":869,"o":"m 454 619 q 588 629 530 619 q 687 665 647 639 q 747 735 726 690 q 768 851 768 781 q 741 918 768 893 q 672 956 715 943 q 575 972 629 968 q 464 976 520 976 l 353 976 l 302 619 l 454 619 m 374 94 q 528 105 460 94 q 642 146 595 117 q 713 225 689 176 q 738 351 738 275 q 735 395 738 373 q 723 438 732 417 q 695 476 713 458 q 644 507 676 494 q 564 528 612 520 q 449 535 516 535 l 291 535 l 229 94 l 374 94 m 846 349 q 813 190 846 256 q 719 82 781 124 q 567 20 656 40 q 362 0 477 0 l 100 0 l 249 1069 l 475 1069 q 660 1057 585 1069 q 782 1019 735 1044 q 848 954 828 993 q 869 861 869 914 q 854 750 869 796 q 809 671 840 704 q 733 618 779 639 q 625 585 688 597 q 793 512 740 570 q 846 349 846 454 z "},"C":{"ha":792,"x_min":149,"x_max":925,"o":"m 149 359 q 164 543 149 452 q 209 714 179 633 q 281 865 238 795 q 380 984 324 934 q 504 1063 436 1034 q 651 1091 572 1091 q 705 1090 678 1091 q 764 1083 732 1088 q 835 1066 796 1077 q 925 1038 874 1056 l 882 944 q 812 969 843 960 q 756 984 781 979 q 709 991 730 989 q 668 993 688 993 q 540 967 597 993 q 439 898 483 942 q 363 794 395 854 q 311 664 332 734 q 281 518 291 594 q 272 367 272 443 q 333 142 272 214 q 513 71 393 71 q 619 89 553 71 q 767 143 685 108 l 787 53 q 712 23 748 37 q 642 -3 677 8 q 571 -21 607 -14 q 497 -28 536 -28 q 344 -2 410 -28 q 235 73 279 23 q 170 194 192 122 q 149 359 149 267 z "},"D":{"ha":910,"x_min":100,"x_max":933,"o":"m 814 669 q 799 808 814 750 q 752 903 783 866 q 674 958 722 941 q 563 976 627 976 l 353 976 l 228 94 l 458 94 q 562 111 516 94 q 644 157 608 127 q 707 227 680 187 q 752 312 733 267 q 783 405 771 357 q 802 501 795 454 q 811 591 808 548 q 814 669 814 634 m 933 666 q 930 581 933 629 q 918 479 927 533 q 894 369 909 425 q 853 259 878 313 q 791 159 827 206 q 705 77 755 112 q 591 21 656 41 q 446 0 527 0 l 100 0 l 249 1069 l 576 1069 q 843 970 753 1069 q 933 666 933 871 z "},"E":{"ha":732,"x_min":100,"x_max":860,"o":"m 718 0 l 100 0 l 250 1069 l 860 1069 l 846 976 l 354 976 l 301 602 l 731 602 l 721 528 l 291 528 l 230 94 l 730 94 l 718 0 z "},"F":{"ha":720,"x_min":100,"x_max":838,"o":"m 289 519 l 216 0 l 100 0 l 250 1069 l 838 1069 l 826 977 l 354 977 l 299 593 l 726 593 l 717 519 l 289 519 z "},"G":{"ha":936,"x_min":149,"x_max":947,"o":"m 149 374 q 154 478 149 422 q 171 594 159 534 q 204 713 184 653 q 254 828 224 773 q 323 931 283 884 q 416 1015 363 979 q 534 1071 469 1050 q 681 1091 600 1091 q 727 1088 700 1091 q 787 1076 753 1086 q 861 1049 821 1067 q 947 1000 901 1031 l 904 913 q 822 952 857 937 q 759 976 786 967 q 710 989 731 985 q 672 993 689 993 q 558 975 609 993 q 467 924 507 956 q 397 850 427 892 q 345 759 367 807 q 309 658 323 710 q 286 556 294 606 q 273 459 277 506 q 270 376 270 413 q 286 237 270 295 q 335 142 302 179 q 414 87 367 104 q 522 70 461 70 q 637 84 588 70 q 720 125 686 99 q 773 187 754 151 q 797 264 792 222 q 797 262 797 263 q 796 260 796 262 l 823 465 l 559 465 l 572 548 l 941 548 l 865 0 l 803 0 l 803 117 q 766 69 789 94 q 707 23 743 44 q 620 -13 671 1 q 501 -27 570 -27 q 351 -3 416 -27 q 240 71 285 21 q 172 195 195 120 q 149 374 149 271 z "},"H":{"ha":951,"x_min":100,"x_max":1016,"o":"m 749 0 l 821 519 l 289 519 l 216 0 l 100 0 l 250 1070 l 366 1070 l 299 593 l 831 593 l 899 1070 l 1016 1070 l 866 0 l 749 0 z "},"I":{"ha":573,"x_min":109,"x_max":628,"o":"m 119 75 l 245 75 l 372 991 l 248 991 l 258 1070 l 628 1070 l 617 991 l 490 991 l 361 75 l 490 75 l 479 0 l 109 0 l 119 75 z "},"J":{"ha":446,"x_min":39,"x_max":511,"o":"m 39 20 q 130 45 93 32 q 193 76 168 59 q 233 114 218 93 q 258 161 248 134 q 273 222 267 189 q 285 298 279 256 l 393 1070 l 511 1070 l 409 347 q 386 216 399 273 q 356 115 374 159 q 312 41 338 72 q 252 -10 287 11 q 169 -43 216 -31 q 59 -61 121 -55 l 39 20 z "},"K":{"ha":802,"x_min":99,"x_max":939,"o":"m 823 1070 l 939 1070 l 531 541 l 592 431 l 830 0 l 709 0 l 428 509 l 288 509 l 217 0 l 99 0 l 250 1070 l 368 1070 l 298 576 l 444 576 l 823 1070 z "},"L":{"ha":703,"x_min":99,"x_max":703,"o":"m 691 0 l 99 0 l 250 1070 l 367 1070 l 229 94 l 703 94 l 691 0 z "},"M":{"ha":1199,"x_min":99,"x_max":1264,"o":"m 539 0 l 494 251 l 359 1006 l 218 0 l 99 0 l 212 803 l 250 1070 l 452 1070 l 499 804 l 570 403 l 619 130 l 731 368 l 951 838 l 1060 1070 l 1264 1070 l 1207 667 l 1113 0 l 995 0 l 1137 1007 l 729 122 l 673 0 l 539 0 z "},"N":{"ha":1013,"x_min":99,"x_max":1078,"o":"m 928 0 l 745 0 l 615 328 l 355 983 l 217 0 l 99 0 l 250 1070 l 432 1070 l 562 742 l 822 87 l 960 1070 l 1078 1070 l 928 0 z "},"O":{"ha":981,"x_min":149,"x_max":1004,"o":"m 1004 707 q 987 507 1004 602 q 939 330 970 411 q 862 182 907 248 q 759 69 817 116 q 634 -3 702 22 q 490 -28 566 -28 q 348 -6 411 -28 q 241 62 285 16 q 173 178 197 108 q 149 345 149 248 q 165 543 149 448 q 213 721 182 638 q 289 872 244 804 q 390 989 333 940 q 513 1064 446 1038 q 656 1091 581 1091 q 819 1063 753 1091 q 927 984 886 1035 q 986 863 968 933 q 1004 707 1004 792 m 883 712 q 871 822 883 770 q 831 911 859 873 q 759 971 804 949 q 647 993 713 993 q 524 964 578 993 q 428 888 470 936 q 357 775 387 840 q 309 638 328 710 q 281 490 290 566 q 272 343 272 414 q 331 138 272 205 q 505 71 390 71 q 622 96 568 71 q 717 168 675 122 q 790 275 759 213 q 842 408 821 336 q 873 556 863 479 q 883 712 883 634 z "},"P":{"ha":824,"x_min":100,"x_max":899,"o":"m 402 531 q 585 547 511 531 q 704 595 659 562 q 768 681 749 629 q 787 805 787 732 q 776 877 787 848 q 745 926 765 907 q 696 955 724 945 q 636 970 669 965 q 567 975 604 975 q 493 976 530 976 l 353 976 l 290 531 l 402 531 m 250 1069 l 498 1069 q 686 1055 610 1069 q 810 1009 763 1040 q 878 931 857 979 q 899 817 899 883 q 881 682 899 740 q 831 582 863 624 q 753 511 799 539 q 650 466 707 482 q 527 442 593 449 q 389 435 461 435 l 277 435 l 216 0 l 100 0 l 250 1069 z "},"Q":{"ha":983,"x_min":149,"x_max":1006,"o":"m 269 371 q 286 235 269 292 q 366 110 309 149 q 514 70 422 70 q 613 85 568 70 q 693 129 657 101 q 757 194 729 157 q 806 275 785 232 q 841 367 827 319 q 865 463 856 414 q 882 579 877 522 q 886 688 886 637 q 825 919 886 845 q 643 993 764 993 q 511 963 568 993 q 413 885 454 934 q 343 772 371 836 q 299 639 315 708 q 275 501 282 570 q 269 371 269 431 m 1006 685 q 1002 597 1006 646 q 990 494 999 548 q 966 385 981 441 q 928 276 951 330 q 873 174 905 222 q 800 85 842 125 q 704 18 758 46 q 583 -20 650 -9 l 783 -212 l 712 -288 l 437 -23 q 320 12 374 -15 q 229 86 267 38 q 170 206 191 134 q 149 376 149 277 q 154 483 149 426 q 171 600 159 540 q 202 719 182 659 q 250 833 221 779 q 317 935 278 888 q 406 1017 355 982 q 518 1071 456 1051 q 657 1091 581 1091 q 793 1070 729 1091 q 904 1001 857 1049 q 978 875 951 953 q 1006 685 1006 798 z "},"R":{"ha":848,"x_min":100,"x_max":884,"o":"m 676 0 q 693 125 686 73 q 705 214 701 178 q 712 272 710 250 q 716 307 715 294 q 718 323 718 319 q 718 328 718 328 q 705 397 717 368 q 608 474 678 449 q 516 493 569 487 q 393 498 463 498 l 286 498 l 217 0 l 100 0 l 250 1069 l 516 1069 q 597 1068 555 1069 q 680 1059 639 1067 q 758 1038 721 1053 q 823 999 795 1024 q 867 936 851 974 q 884 843 884 898 q 869 736 884 783 q 829 656 854 690 q 774 599 805 622 q 711 563 743 576 q 648 544 679 549 q 593 539 616 538 q 769 474 707 525 q 832 328 831 422 q 832 323 832 327 q 831 313 832 320 q 830 295 831 307 q 827 266 829 283 q 815 170 823 233 q 793 0 808 106 l 676 0 m 386 583 q 489 585 439 583 q 583 594 539 587 q 663 617 627 602 q 725 659 699 632 q 766 726 751 686 q 781 824 781 766 q 769 885 781 860 q 738 927 758 910 q 690 954 718 944 q 633 968 663 964 q 570 975 602 973 q 506 976 537 976 l 353 976 l 297 583 l 386 583 z "},"S":{"ha":826,"x_min":117,"x_max":848,"o":"m 813 909 q 766 940 793 924 q 709 966 739 955 q 645 985 678 978 q 576 993 611 993 q 445 977 496 993 q 364 933 393 961 q 323 869 334 906 q 311 792 311 833 q 317 746 311 766 q 338 712 323 727 q 375 684 352 696 q 432 659 398 671 l 602 597 q 686 558 648 580 q 749 508 723 537 q 790 441 776 479 q 804 354 804 404 q 781 211 804 279 q 708 89 758 142 q 579 4 658 36 q 389 -28 500 -28 q 306 -21 347 -28 q 231 -4 266 -15 q 166 21 195 7 q 117 50 138 35 l 145 147 q 207 111 180 125 q 261 87 234 96 q 320 74 289 78 q 393 71 351 71 q 611 132 539 71 q 684 321 684 194 q 674 378 684 354 q 648 421 665 402 q 606 454 631 439 q 549 481 581 468 l 377 549 q 331 570 352 559 q 293 593 311 581 q 216 674 240 629 q 192 772 192 719 q 207 867 192 823 q 247 945 221 910 q 307 1008 272 981 q 381 1054 341 1036 q 465 1082 421 1072 q 552 1091 509 1091 q 708 1070 636 1091 q 848 1004 781 1048 l 813 909 z "},"T":{"ha":680,"x_min":131,"x_max":840,"o":"m 827 977 l 538 977 l 401 0 l 284 0 l 420 977 l 131 977 l 144 1069 l 840 1069 l 827 977 z "},"U":{"ha":931,"x_min":125,"x_max":1010,"o":"m 486 63 q 614 84 561 63 q 706 154 668 105 q 768 283 743 203 q 809 481 792 363 l 893 1069 l 1010 1069 l 927 484 q 889 305 913 382 q 834 171 866 228 q 764 76 803 115 q 680 15 725 38 q 583 -17 634 -7 q 475 -27 531 -27 q 325 1 390 -27 q 215 81 259 29 q 148 207 171 133 q 125 374 125 281 q 126 384 125 379 q 126 398 126 389 q 128 419 127 406 q 132 452 130 432 q 140 525 134 479 q 156 644 146 571 q 181 821 166 717 q 216 1069 195 926 l 332 1069 q 297 818 312 924 q 273 637 283 711 q 256 515 262 562 q 247 439 250 467 q 243 405 245 418 q 242 381 242 391 q 241 366 241 372 q 241 354 241 359 q 253 240 241 293 q 293 147 264 186 q 369 85 321 108 q 486 63 416 63 z "},"V":{"ha":832,"x_min":23,"x_max":811,"o":"m 136 1070 l 274 71 l 692 1069 l 811 1069 l 353 0 l 185 0 l 23 1070 l 136 1070 z "},"W":{"ha":1358,"x_min":202,"x_max":1339,"o":"m 654 1070 l 839 1070 l 889 64 l 1227 1069 l 1339 1069 l 965 0 l 789 0 l 749 1018 l 387 0 l 202 0 l 205 1069 l 309 1069 l 307 61 l 654 1070 z "},"X":{"ha":813,"x_min":22,"x_max":950,"o":"m 554 543 l 781 0 l 649 0 l 477 459 l 155 0 l 22 0 l 422 543 l 194 1069 l 311 1069 l 501 620 l 833 1069 l 950 1069 l 554 543 z "},"Y":{"ha":772,"x_min":159,"x_max":915,"o":"m 442 427 l 802 1066 l 915 1066 l 488 328 l 441 0 l 326 0 l 375 349 l 159 1066 l 262 1066 l 442 427 z "},"Z":{"ha":740,"x_min":71,"x_max":867,"o":"m 867 1066 l 852 964 l 193 94 l 731 94 l 718 0 l 71 0 l 87 119 l 738 977 l 207 977 l 220 1066 l 867 1066 z "},"[":{"ha":809,"x_min":193,"x_max":757,"o":"m 342 1072 l 757 1072 l 745 978 l 447 978 l 322 94 l 621 94 l 610 0 l 193 0 l 342 1072 z "},"\\":{"ha":538,"x_min":212,"x_max":524,"o":"m 309 1174 l 524 -96 l 429 -115 l 212 1160 l 309 1174 z "},"]":{"ha":768,"x_min":155,"x_max":724,"o":"m 309 1072 l 724 1072 l 572 0 l 155 0 l 167 94 l 465 94 l 593 978 l 297 978 l 309 1072 z "},"^":{"ha":878,"x_min":285,"x_max":652,"o":"m 507 591 l 579 591 l 652 235 l 564 235 l 522 451 l 389 235 l 285 235 l 507 591 z "},"_":{"ha":792,"x_min":69,"x_max":674,"o":"m 659 -75 l 69 -75 l 82 17 l 674 17 l 659 -75 z "},"`":{"ha":492,"x_min":96,"x_max":301,"o":"m 301 100 l 254 100 l 96 517 l 271 517 l 301 100 z "},"a":{"ha":741,"x_min":119,"x_max":768,"o":"m 768 723 l 665 0 l 580 0 l 586 134 q 485 24 545 62 q 355 -14 425 -14 q 246 8 291 -14 q 173 70 201 31 q 132 160 145 109 q 119 271 119 212 q 133 383 119 323 q 172 500 146 442 q 235 610 198 557 q 318 704 272 663 q 420 768 365 744 q 538 792 475 792 q 586 787 559 792 q 640 775 613 783 q 691 758 667 767 q 732 741 715 749 l 768 723 m 224 274 q 233 181 224 220 q 262 118 243 142 q 311 82 281 94 q 380 71 340 71 q 447 85 414 71 q 506 120 479 99 q 554 165 533 141 q 586 207 574 189 l 656 680 q 647 685 657 680 q 619 693 636 689 q 580 702 602 698 q 537 705 558 705 q 460 689 498 705 q 388 644 422 673 q 323 575 353 615 q 271 487 293 535 q 236 385 249 439 q 224 274 224 331 z "},"b":{"ha":745,"x_min":105,"x_max":762,"o":"m 762 502 q 753 391 762 450 q 726 275 744 332 q 680 165 708 218 q 614 73 652 113 q 528 9 576 33 q 420 -14 479 -14 q 215 125 290 -14 l 181 0 l 105 0 l 261 1112 l 372 1120 l 295 583 q 337 656 309 619 q 401 724 366 694 q 477 773 437 754 q 555 792 517 792 q 661 767 621 792 q 723 700 701 741 q 753 605 745 659 q 761 496 761 552 q 761 499 761 498 q 762 502 762 500 m 427 71 q 512 97 475 71 q 574 166 548 124 q 616 259 600 208 q 642 358 632 310 q 654 447 651 407 q 658 508 658 488 q 656 578 658 543 q 644 642 654 614 q 611 688 634 671 q 547 706 589 706 q 496 695 522 706 q 444 666 470 684 q 394 624 418 648 q 348 576 370 601 q 309 528 326 552 q 280 484 292 504 q 280 486 280 486 q 281 488 281 486 l 239 190 q 243 182 238 191 q 259 160 248 173 q 286 131 270 146 q 323 102 302 115 q 370 79 344 88 q 427 71 395 71 z "},"c":{"ha":670,"x_min":119,"x_max":736,"o":"m 119 281 q 151 492 119 397 q 236 653 182 587 q 360 756 290 720 q 509 792 431 792 q 632 772 574 792 q 736 709 689 751 l 688 624 q 655 654 675 640 q 611 681 635 669 q 561 699 587 692 q 510 706 535 706 q 411 683 454 706 q 336 622 368 660 q 284 536 304 585 q 252 439 263 488 q 238 356 242 396 q 233 281 233 316 q 276 122 233 174 q 392 71 318 71 q 472 81 435 71 q 545 111 509 92 q 581 133 563 121 q 616 159 598 145 l 636 76 q 379 -14 509 -14 q 278 3 326 -14 q 196 55 231 20 q 140 147 161 91 q 119 281 119 203 z "},"d":{"ha":743,"x_min":120,"x_max":819,"o":"m 460 792 q 526 779 496 792 q 580 748 556 766 q 621 708 604 729 q 648 669 638 686 l 709 1112 l 819 1120 l 661 0 l 588 0 l 589 124 q 536 69 565 94 q 476 25 507 44 q 412 -4 445 7 q 347 -14 379 -14 q 241 9 284 -14 q 171 74 197 33 q 132 168 144 115 q 120 282 120 222 q 129 388 120 331 q 155 502 137 445 q 200 611 172 558 q 265 704 227 663 q 351 768 302 744 q 460 792 399 792 m 222 273 q 224 239 222 256 q 229 203 225 221 q 242 154 233 178 q 266 111 251 130 q 304 82 281 93 q 359 71 327 71 q 427 83 394 71 q 490 114 460 96 q 542 153 519 132 q 581 191 566 174 q 604 352 594 285 q 620 465 613 419 q 630 537 626 510 q 635 577 633 564 q 638 594 637 591 q 638 596 638 597 q 633 604 639 595 q 616 624 627 612 q 589 650 605 635 q 552 676 572 664 q 506 697 531 689 q 452 705 481 705 q 373 682 407 705 q 313 620 338 658 q 270 534 287 582 q 242 439 252 487 q 227 347 231 391 q 222 273 222 303 z "},"e":{"ha":718,"x_min":119,"x_max":739,"o":"m 254 454 q 417 477 351 467 q 526 495 483 487 q 592 511 569 504 q 627 524 616 518 q 640 536 637 530 q 642 547 642 542 q 607 665 642 625 q 512 705 573 705 q 422 688 463 705 q 348 639 380 671 q 291 561 315 607 q 254 454 267 514 m 636 69 q 576 33 608 49 q 512 7 545 18 q 448 -9 479 -3 q 387 -14 416 -14 q 271 6 321 -14 q 187 64 220 26 q 136 157 153 102 q 119 279 119 211 q 130 393 119 334 q 162 509 140 452 q 215 618 183 566 q 288 708 246 669 q 382 769 330 747 q 496 792 434 792 q 680 730 621 792 q 739 534 739 667 q 735 504 739 518 q 718 475 732 489 q 672 449 703 462 q 587 425 642 437 q 448 401 532 412 q 242 378 363 389 q 235 321 237 347 q 233 271 233 295 q 281 120 233 168 q 414 71 329 71 q 514 95 465 71 q 612 158 564 119 l 636 69 z "},"f":{"ha":500,"x_min":172,"x_max":657,"o":"m 515 979 q 478 972 496 979 q 446 944 461 965 q 417 883 431 923 q 393 778 404 844 l 603 778 l 597 728 l 387 728 l 282 0 l 176 0 l 280 728 l 172 728 l 176 778 l 287 778 q 316 896 300 847 q 351 977 332 944 q 389 1028 369 1009 q 432 1056 410 1046 q 479 1068 455 1066 q 530 1071 503 1071 q 581 1061 557 1071 q 622 1039 605 1050 q 649 1017 640 1027 q 657 1006 658 1006 l 607 927 q 601 935 607 927 q 583 952 595 943 q 554 970 571 962 q 515 979 536 979 z "},"g":{"ha":745,"x_min":58,"x_max":849,"o":"m 277 534 q 290 474 277 498 q 323 435 302 450 q 371 415 344 420 q 427 409 397 409 q 583 450 532 408 q 633 582 633 493 q 621 637 633 613 q 586 677 608 661 q 537 702 565 693 q 479 710 509 710 q 391 697 429 710 q 328 662 353 685 q 290 607 302 640 q 277 534 277 574 m 150 -67 q 202 -149 150 -124 q 365 -174 254 -174 q 562 -141 495 -174 q 629 -42 629 -108 q 613 11 629 -10 q 571 44 596 31 q 516 63 546 57 q 460 73 486 70 l 280 96 q 181 15 213 55 q 150 -67 150 -24 m 728 579 q 711 491 728 532 q 659 415 693 449 q 575 358 625 382 q 463 321 526 334 l 277 284 q 206 232 204 270 q 218 202 205 214 q 251 182 230 190 q 298 169 271 174 q 353 161 325 164 q 410 155 382 157 q 460 149 437 152 q 571 126 524 139 q 651 91 619 113 q 700 36 684 69 q 715 -45 715 3 q 697 -128 715 -94 q 647 -187 678 -163 q 577 -227 616 -212 q 496 -250 538 -241 q 415 -261 455 -258 q 342 -264 374 -264 q 231 -251 283 -264 q 141 -216 179 -239 q 80 -161 102 -193 q 58 -89 58 -129 q 81 -6 62 -40 q 125 52 100 28 q 154 75 137 64 q 186 95 171 87 q 213 109 202 104 q 222 113 223 114 q 204 121 213 117 q 188 130 196 125 q 161 147 174 138 q 142 167 148 157 q 126 235 126 194 q 263 352 125 321 l 338 370 q 273 389 302 376 q 223 424 244 403 q 190 472 201 444 q 178 535 178 500 q 199 638 178 591 q 257 719 219 685 q 347 773 294 753 q 465 792 400 792 q 560 779 517 792 q 646 736 602 766 q 706 764 680 753 q 755 783 732 775 q 802 793 779 790 q 848 799 824 797 l 849 697 l 676 697 q 701 657 691 675 q 718 626 711 640 q 726 601 724 612 q 728 579 728 590 z "},"h":{"ha":793,"x_min":105,"x_max":791,"o":"m 376 1121 l 311 654 q 389 725 355 698 q 455 766 424 751 q 515 787 486 781 q 577 792 545 792 q 666 779 627 792 q 734 740 706 766 q 777 673 762 713 q 791 579 791 633 q 790 534 791 557 q 785 484 788 511 l 717 0 l 603 0 l 671 483 q 674 517 673 498 q 676 554 676 536 q 648 669 676 631 q 556 706 620 706 q 475 693 515 706 q 401 662 435 680 q 341 624 368 644 q 302 590 315 604 l 220 0 l 105 0 l 261 1113 l 376 1121 z "},"i":{"ha":362,"x_min":135,"x_max":398,"o":"m 398 1008 q 392 972 398 989 q 376 942 387 955 q 352 922 366 930 q 320 915 338 915 q 277 933 292 915 q 262 977 262 951 q 268 1010 262 994 q 285 1039 274 1026 q 310 1059 296 1051 q 342 1066 325 1066 q 382 1049 367 1066 q 398 1006 398 1032 l 398 1008 m 245 0 l 135 0 l 244 778 l 355 778 l 245 0 z "},"j":{"ha":394,"x_min":29,"x_max":435,"o":"m 435 1008 q 430 972 435 989 q 413 942 424 955 q 388 922 403 930 q 357 915 374 915 q 313 933 328 915 q 298 977 298 951 q 304 1010 298 994 q 321 1039 311 1026 q 347 1059 332 1051 q 378 1066 361 1066 q 420 1049 404 1066 q 435 1006 435 1032 l 435 1008 m 29 -180 q 98 -124 71 -153 q 142 -60 125 -95 q 170 18 159 -25 q 188 117 180 62 l 281 778 l 395 778 l 301 102 q 269 -27 291 32 q 214 -133 246 -87 q 139 -210 181 -179 q 46 -254 96 -241 l 29 -180 z "},"k":{"ha":692,"x_min":105,"x_max":796,"o":"m 254 291 l 212 0 l 105 0 l 261 1112 l 370 1120 l 270 400 l 671 778 l 796 778 l 404 407 l 674 0 l 564 0 l 332 351 l 254 291 z "},"l":{"ha":329,"x_min":126,"x_max":391,"o":"m 391 1120 l 233 0 l 126 0 l 283 1110 l 391 1120 z "},"m":{"ha":1164,"x_min":105,"x_max":1162,"o":"m 995 792 q 1121 742 1081 792 q 1162 591 1162 692 q 1162 577 1162 585 q 1159 550 1161 570 q 1151 493 1156 530 q 1137 392 1146 456 q 1114 232 1128 328 q 1081 0 1101 137 l 975 0 q 1008 233 994 137 q 1030 392 1021 328 q 1044 494 1039 456 q 1052 552 1049 532 q 1054 580 1054 572 q 1055 593 1055 588 q 1037 678 1055 650 q 969 706 1019 706 q 901 693 935 706 q 836 653 867 680 q 774 583 804 625 q 722 483 745 541 q 722 487 722 486 l 652 0 l 547 0 q 582 236 568 139 q 604 396 595 332 q 618 496 613 460 q 625 549 623 532 q 628 578 627 570 q 628 591 628 586 q 609 677 628 648 q 541 706 591 706 q 474 691 509 706 q 406 647 439 675 q 340 578 372 618 q 281 486 308 537 q 281 490 281 486 l 212 0 l 105 0 l 216 779 l 295 779 l 294 597 q 349 684 318 648 q 416 745 380 721 q 489 781 451 769 q 564 792 526 792 q 731 591 731 792 q 784 687 752 648 q 852 748 816 725 q 926 782 888 772 q 995 792 963 792 z "},"n":{"ha":793,"x_min":105,"x_max":791,"o":"m 602 0 q 633 219 621 130 q 653 369 645 309 q 665 461 661 428 q 671 511 669 494 q 674 537 673 530 q 674 550 674 545 q 668 614 674 585 q 649 663 663 643 q 613 695 635 684 q 557 706 590 706 q 489 692 527 706 q 414 660 451 679 q 347 620 378 640 q 302 585 317 599 l 220 0 l 105 0 l 214 778 l 296 778 l 294 650 q 352 700 317 675 q 427 746 387 726 q 509 779 467 766 q 589 792 551 792 q 740 740 688 792 q 791 579 791 687 q 790 568 791 574 q 789 554 790 562 q 787 534 789 546 q 784 503 786 522 q 776 440 781 479 q 763 341 771 401 q 743 198 755 281 q 716 0 732 114 l 602 0 z "},"o":{"ha":780,"x_min":119,"x_max":795,"o":"m 119 290 q 131 413 119 352 q 164 531 142 475 q 221 634 187 587 q 299 717 254 682 q 399 772 343 752 q 522 792 455 792 q 617 780 576 792 q 690 747 659 768 q 741 697 720 726 q 773 635 761 669 q 790 566 785 602 q 795 494 795 530 q 763 287 795 380 q 676 126 731 193 q 547 22 621 59 q 393 -14 474 -14 q 281 7 332 -14 q 195 67 231 28 q 139 162 159 106 q 119 290 119 219 m 408 71 q 502 90 460 71 q 573 140 543 109 q 626 213 604 172 q 660 301 647 255 q 680 393 673 347 q 686 480 686 439 q 677 567 686 526 q 648 639 668 608 q 593 688 627 670 q 508 706 559 706 q 415 687 456 706 q 343 635 374 667 q 290 560 312 602 q 255 472 269 517 q 235 379 241 426 q 229 293 229 333 q 238 207 229 248 q 267 136 246 167 q 322 88 288 106 q 408 71 356 71 z "},"p":{"ha":787,"x_min":64,"x_max":804,"o":"m 804 486 q 794 371 804 429 q 767 256 785 312 q 719 152 748 201 q 650 65 690 102 q 559 7 610 28 q 445 -14 508 -14 q 382 -4 412 -14 q 325 23 351 6 q 277 63 298 41 q 241 112 256 86 l 182 -317 l 64 -333 l 220 778 l 308 778 l 307 643 q 362 701 332 673 q 425 748 393 728 q 489 780 456 768 q 554 792 522 792 q 653 776 608 792 q 732 724 699 760 q 785 629 766 688 q 804 486 804 571 m 693 487 q 690 540 692 515 q 682 586 688 565 q 636 677 668 648 q 555 706 604 706 q 437 678 501 706 q 309 592 372 650 l 253 189 q 292 145 267 166 q 345 107 316 123 q 402 80 373 90 q 454 71 431 71 q 541 91 504 71 q 604 144 578 111 q 648 221 631 178 q 675 311 665 264 q 689 403 685 357 q 693 487 693 448 z "},"q":{"ha":770,"x_min":139,"x_max":794,"o":"m 474 792 q 549 777 515 792 q 608 740 583 762 q 652 692 634 718 q 681 647 671 667 l 720 779 l 794 779 l 637 -328 l 528 -344 l 593 111 q 545 62 572 85 q 488 22 518 39 q 427 -4 458 5 q 366 -14 395 -14 q 258 11 302 -14 q 189 77 215 36 q 151 173 162 119 q 139 283 139 227 q 145 373 139 324 q 165 473 152 422 q 200 573 179 524 q 252 665 222 623 q 295 716 271 693 q 346 756 318 740 q 406 783 374 773 q 474 792 437 792 m 241 271 q 244 236 242 254 q 249 201 245 218 q 263 151 254 174 q 288 110 273 127 q 326 81 304 92 q 379 71 349 71 q 447 82 414 71 q 510 112 481 94 q 564 149 540 129 q 604 186 588 170 l 659 585 q 627 622 647 601 q 582 662 608 643 q 525 693 556 680 q 460 706 494 706 q 396 688 426 706 q 342 638 366 670 q 299 565 318 607 q 268 474 280 522 q 248 374 255 426 q 241 271 241 322 z "},"r":{"ha":481,"x_min":105,"x_max":581,"o":"m 294 597 q 347 675 317 640 q 408 737 376 711 q 472 777 440 763 q 530 791 504 791 q 548 790 538 791 q 565 788 557 789 q 577 786 572 787 q 581 785 582 785 l 572 682 q 569 683 572 682 q 560 684 566 684 q 548 686 555 685 q 535 686 541 686 q 462 669 498 686 q 392 627 425 652 q 331 572 359 602 q 285 519 303 543 l 212 0 l 105 0 l 215 778 l 296 778 l 294 597 z "},"s":{"ha":621,"x_min":68,"x_max":643,"o":"m 142 593 q 162 680 142 642 q 218 742 182 717 q 300 780 253 767 q 401 792 347 792 q 472 784 437 792 q 537 764 507 776 q 595 736 568 751 q 643 708 622 722 l 604 633 q 559 658 584 646 q 508 682 535 671 q 453 699 481 692 q 399 706 425 706 q 336 700 365 706 q 286 680 307 693 q 252 648 264 667 q 240 605 240 629 q 245 568 240 583 q 260 541 250 553 q 288 519 271 529 q 330 499 304 509 l 429 458 q 493 427 462 445 q 550 385 525 409 q 590 331 575 361 q 606 261 606 300 q 581 143 606 195 q 516 57 556 92 q 424 4 475 22 q 317 -14 372 -14 q 233 -6 272 -14 q 161 15 193 2 q 106 42 130 27 q 68 71 82 57 l 104 138 q 189 91 138 111 q 310 71 239 71 q 385 82 351 71 q 445 114 420 93 q 485 167 471 136 q 499 239 499 199 q 494 271 499 256 q 476 297 488 285 q 445 321 465 309 q 397 345 425 332 l 294 387 q 228 420 256 402 q 181 461 200 437 q 152 517 161 486 q 142 593 142 549 z "},"t":{"ha":508,"x_min":149,"x_max":541,"o":"m 326 77 q 376 87 349 77 q 424 111 402 98 q 449 126 437 118 q 475 144 462 135 l 525 76 q 493 53 509 64 q 458 33 476 42 q 391 3 428 16 q 315 -11 354 -11 q 258 0 283 -11 q 213 33 232 12 q 184 84 195 54 q 174 152 174 114 q 175 162 174 156 q 178 183 175 168 q 181 208 179 193 q 186 245 182 223 l 254 728 l 149 728 l 155 778 l 261 778 l 301 1057 l 410 1086 l 368 778 l 541 778 l 534 728 l 360 728 l 280 144 q 281 117 278 130 q 291 96 284 105 q 307 82 298 87 q 326 77 315 77 z "},"u":{"ha":784,"x_min":138,"x_max":810,"o":"m 327 778 q 323 752 327 780 q 313 680 319 725 q 299 578 307 635 q 284 464 292 521 q 270 356 277 407 q 258 271 263 304 q 254 237 256 250 q 253 222 253 224 q 268 134 253 168 q 309 86 283 101 q 374 71 336 71 q 494 99 436 71 q 613 183 551 128 l 696 778 l 810 778 l 702 0 l 616 0 q 617 59 617 31 q 617 119 616 88 q 488 18 551 51 q 361 -14 425 -14 q 195 39 251 -14 q 138 202 138 92 q 140 219 138 205 q 144 255 141 233 q 150 306 146 277 q 157 367 153 334 q 169 457 163 410 q 181 551 175 505 q 193 639 187 597 q 203 712 199 681 q 210 762 207 744 q 212 778 212 780 l 327 778 z "},"v":{"ha":641,"x_min":137,"x_max":741,"o":"m 393 0 l 269 0 l 137 778 l 239 778 l 344 77 l 629 778 l 741 778 l 393 0 z "},"w":{"ha":962,"x_min":137,"x_max":1062,"o":"m 625 0 l 590 696 l 342 0 l 219 0 l 137 777 l 237 777 l 295 82 l 537 777 l 652 777 l 701 82 l 954 777 l 1062 777 l 750 0 l 625 0 z "},"x":{"ha":680,"x_min":48,"x_max":784,"o":"m 407 321 l 174 0 l 48 0 l 363 388 l 169 778 l 298 778 l 426 463 l 659 778 l 784 778 l 469 388 l 654 0 l 533 0 l 407 321 z "},"y":{"ha":690,"x_min":55,"x_max":785,"o":"m 55 -230 q 140 -206 106 -223 q 190 -173 167 -194 q 233 -123 212 -153 q 274 -56 254 -94 q 316 29 294 -18 l 293 129 l 145 778 l 256 778 l 379 157 l 667 778 l 785 778 l 428 64 q 397 0 413 35 q 364 -69 382 -34 q 326 -138 347 -104 q 282 -201 306 -172 q 229 -254 258 -231 q 165 -292 200 -277 q 72 -311 125 -307 l 55 -230 z "},"z":{"ha":565,"x_min":61,"x_max":633,"o":"m 524 693 l 176 693 l 189 778 l 633 778 l 618 668 l 163 85 l 525 85 l 526 0 l 61 0 l 75 109 l 524 693 z "},"{":{"ha":623,"x_min":138,"x_max":572,"o":"m 370 680 q 320 519 357 580 q 222 437 283 458 q 254 414 239 429 q 282 379 270 400 q 301 329 294 357 q 309 264 309 300 q 303 188 309 225 q 297 110 297 151 q 302 54 297 81 q 317 6 307 26 q 346 -27 328 -15 q 390 -39 363 -39 q 400 -36 394 -37 q 413 -32 407 -34 q 423 -30 419 -31 q 427 -28 427 -28 l 410 -142 q 395 -145 403 -144 q 383 -147 389 -146 q 372 -147 376 -147 q 298 -127 331 -147 q 241 -73 264 -107 q 206 7 218 -39 q 193 104 193 53 q 199 180 193 142 q 205 259 205 217 q 202 295 205 279 q 197 323 200 311 q 138 372 180 372 l 156 500 q 229 549 201 500 q 271 696 258 598 q 314 858 285 795 q 384 955 344 920 q 473 1003 425 990 q 572 1015 522 1015 l 557 902 q 515 901 535 902 q 476 893 494 900 q 442 873 458 887 q 413 835 426 860 q 389 772 399 810 q 370 680 378 734 z "},"|":{"ha":363,"x_min":141,"x_max":431,"o":"m 141 -74 l 322 1149 l 431 1149 l 249 -74 l 141 -74 z "},"}":{"ha":615,"x_min":83,"x_max":504,"o":"m 348 595 q 350 641 348 618 q 356 686 353 663 q 361 733 359 709 q 364 782 364 757 q 357 845 364 821 q 335 881 350 868 q 298 898 321 894 q 245 902 276 902 l 264 1015 q 338 1007 302 1015 q 401 976 374 999 q 445 911 429 953 q 462 802 462 869 q 459 757 462 783 q 453 704 456 731 q 448 651 450 677 q 445 605 445 625 q 504 500 445 500 l 484 372 q 371 178 401 372 q 343 59 360 109 q 303 -27 326 9 q 255 -85 281 -62 q 201 -120 229 -107 q 143 -138 173 -133 q 83 -142 113 -142 l 100 -28 q 142 -26 123 -28 q 179 -17 162 -24 q 211 4 196 -10 q 238 44 225 19 q 260 105 250 68 q 279 194 271 142 q 304 294 288 252 q 340 365 320 336 q 382 411 360 394 q 424 437 404 429 q 348 595 348 470 z "},"~":{"ha":465,"x_min":37,"x_max":536,"o":"m 390 83 q 330 96 361 83 q 270 123 299 109 q 218 151 241 138 q 184 163 195 163 q 150 144 160 163 q 134 86 139 125 l 37 86 q 86 218 49 176 q 188 260 124 260 q 247 247 220 260 q 299 218 275 234 q 347 189 324 202 q 391 176 369 176 q 424 196 414 176 q 439 251 434 216 l 536 251 q 489 124 524 164 q 390 83 454 83 z "},"¡":{"ha":525,"x_min":145,"x_max":458,"o":"m 458 1072 q 452 1038 454 1054 q 446 1004 449 1021 q 438 939 441 972 q 433 872 435 907 q 342 871 388 872 q 250 867 297 869 q 262 967 257 918 q 272 1069 267 1017 q 458 1072 364 1069 m 145 1 l 307 800 l 371 800 l 288 1 l 145 1 z "},"¢":{"ha":751,"x_min":134,"x_max":736,"o":"m 134 298 q 154 465 134 383 q 212 615 173 547 q 311 732 251 684 q 451 800 370 781 q 485 805 468 803 q 521 808 503 808 l 531 878 l 598 878 l 588 805 q 667 789 629 801 q 732 764 704 777 l 736 669 q 724 674 735 669 q 693 687 713 680 q 642 702 672 694 q 574 712 612 709 l 486 79 q 588 100 536 85 l 637 113 l 625 24 q 551 2 591 13 q 473 -12 512 -9 l 462 -90 l 396 -91 l 406 -14 q 293 8 343 -13 q 207 70 242 30 q 153 167 172 109 q 134 298 134 224 m 505 714 q 499 715 505 714 q 488 716 492 716 q 415 700 449 717 q 355 652 382 682 q 307 580 328 621 q 272 492 286 539 q 251 394 258 445 q 243 294 243 344 q 289 136 243 188 q 420 79 334 84 l 505 714 z "},"£":{"ha":773,"x_min":85,"x_max":724,"o":"m 474 804 q 381 787 418 804 q 320 744 343 770 q 288 683 298 717 q 278 616 278 650 q 294 527 278 566 q 328 466 310 489 l 610 466 l 600 391 l 329 391 q 297 257 317 313 q 255 164 276 201 q 218 109 235 127 q 199 87 201 90 l 600 87 l 588 0 l 85 0 l 96 91 q 121 116 102 96 q 160 172 139 135 q 201 263 182 209 q 233 391 221 317 l 106 391 l 117 465 l 229 465 q 192 540 203 498 q 180 618 180 581 q 204 723 180 673 q 268 812 228 773 q 358 873 307 850 q 461 896 408 896 q 557 886 515 896 q 633 863 600 877 q 688 833 665 849 q 724 806 711 818 l 683 720 q 644 747 667 732 q 594 774 621 762 q 536 795 566 787 q 474 804 505 804 z "},"¤":{"ha":888,"x_min":116,"x_max":886,"o":"m 682 699 q 669 762 682 733 q 637 813 657 791 q 589 846 616 834 q 532 859 562 859 q 455 840 494 859 q 386 789 417 821 q 336 717 355 758 q 317 633 317 677 q 329 568 317 597 q 362 517 341 538 q 411 484 383 496 q 471 473 439 473 q 547 492 509 473 q 614 544 585 512 q 663 617 644 576 q 682 699 682 657 m 751 823 q 772 721 772 783 q 697 513 771 606 l 804 376 l 715 292 l 606 429 q 448 378 530 378 q 319 420 372 378 l 182 292 l 116 376 l 251 503 q 228 613 228 555 q 300 818 228 723 l 197 949 l 288 1033 l 391 903 q 551 954 467 954 q 686 908 627 954 l 820 1033 l 886 949 l 751 823 z "},"¥":{"ha":772,"x_min":133,"x_max":850,"o":"m 424 576 l 747 1069 l 850 1069 l 486 505 l 661 505 l 648 416 l 460 416 l 450 328 l 635 328 l 623 239 l 437 239 l 404 0 l 288 0 l 322 239 l 133 239 l 146 328 l 336 328 l 350 416 l 158 416 l 170 505 l 348 505 l 144 1069 l 248 1069 l 424 576 z "},"¦":{"ha":366,"x_min":106,"x_max":372,"o":"m 106 5 l 173 470 l 287 470 l 222 5 l 106 5 m 191 600 l 254 1063 l 372 1063 l 306 600 l 191 600 z "},"§":{"ha":710,"x_min":70,"x_max":663,"o":"m 182 829 q 200 920 182 878 q 254 994 219 962 q 337 1043 288 1025 q 448 1061 387 1061 q 512 1053 479 1061 q 575 1033 545 1045 q 628 1008 605 1021 q 663 983 652 994 l 615 892 q 441 966 538 966 q 360 955 391 966 q 310 926 328 943 q 285 889 292 909 q 278 849 278 868 q 297 807 278 825 q 366 769 316 789 l 458 731 q 540 690 507 711 q 593 647 573 669 q 621 601 613 625 q 629 547 629 576 q 609 452 629 489 q 561 393 589 414 q 500 363 532 372 q 446 352 469 354 q 579 185 580 299 q 563 93 579 135 q 517 20 547 52 q 446 -33 488 -12 q 353 -62 404 -54 q 322 -65 338 -64 q 289 -67 306 -66 q 244 -63 268 -67 q 196 -53 220 -59 q 150 -37 172 -46 q 109 -18 127 -28 q 86 -4 96 -11 q 70 11 76 3 l 119 102 q 138 84 128 92 q 159 69 148 76 q 228 39 192 48 q 292 29 263 29 q 385 43 349 29 q 441 78 420 57 q 468 123 461 98 q 475 168 475 147 q 469 204 475 189 q 451 232 463 220 q 419 254 438 244 q 376 273 401 264 l 281 309 q 210 343 239 326 q 164 380 181 360 q 139 422 146 399 q 132 474 132 446 q 142 546 132 515 q 169 598 153 576 q 207 633 186 620 q 248 655 227 647 q 288 666 269 663 q 319 671 307 670 q 254 707 280 689 q 211 744 227 725 q 189 784 195 763 q 182 829 182 805 m 393 614 q 227 490 227 614 q 363 403 227 403 q 448 415 415 403 q 499 445 481 427 q 524 485 517 463 q 531 526 531 507 q 517 574 531 557 q 481 601 503 592 q 436 611 460 609 q 393 614 412 614 z "},"¨":{"ha":631,"x_min":109,"x_max":537,"o":"m 262 183 q 254 145 262 163 q 234 114 247 127 q 206 91 222 100 q 174 83 191 83 q 126 103 144 83 q 109 154 108 123 q 116 190 109 172 q 136 222 123 208 q 165 244 149 235 q 199 252 181 252 q 244 232 227 252 q 262 182 262 212 l 262 183 m 537 182 q 530 144 537 162 q 510 112 522 126 q 481 90 497 98 q 450 81 466 81 q 401 102 419 81 q 383 153 383 122 q 391 189 383 171 q 411 220 398 207 q 439 242 423 234 q 473 251 456 251 q 519 231 502 251 q 536 180 537 211 q 537 181 536 181 q 537 182 537 181 z "},"©":{"ha":1257,"x_min":107,"x_max":1166,"o":"m 572 66 q 700 85 637 66 q 819 139 763 104 q 923 224 876 174 q 1006 335 971 274 q 1060 466 1040 395 q 1080 612 1080 536 q 1055 764 1080 692 q 983 891 1031 836 q 865 979 935 946 q 705 1011 795 1011 q 573 991 637 1011 q 452 935 509 971 q 348 849 395 899 q 266 737 300 798 q 212 605 231 675 q 193 459 193 534 q 220 301 193 373 q 297 176 248 229 q 417 95 347 124 q 572 66 487 66 m 715 1089 q 902 1052 819 1089 q 1044 951 985 1015 q 1135 801 1103 887 q 1166 618 1166 715 q 1153 496 1166 556 q 1116 380 1140 435 q 1059 274 1093 324 q 985 182 1026 224 q 895 102 943 138 q 791 41 846 66 q 679 3 737 16 q 558 -10 620 -10 q 378 23 461 -10 q 235 118 296 57 q 141 264 175 179 q 107 452 107 349 q 130 614 107 535 q 192 765 152 694 q 289 895 233 836 q 412 998 345 955 q 556 1065 479 1041 q 715 1089 633 1089 m 437 454 q 443 396 438 422 q 458 348 448 370 q 610 268 497 268 q 694 279 651 268 q 787 313 738 291 l 770 238 q 677 201 721 213 q 595 190 634 190 q 480 212 528 190 q 404 271 433 233 q 361 357 374 308 q 348 461 348 406 q 373 629 348 551 q 443 764 397 707 q 552 854 488 821 q 694 886 616 886 q 755 881 724 886 q 817 863 787 875 q 838 855 828 859 q 857 845 848 850 l 852 772 q 841 779 853 773 q 806 791 828 785 q 752 804 783 798 q 685 810 722 810 q 631 804 656 810 q 545 760 581 792 q 484 682 508 728 q 449 576 460 635 q 437 454 437 518 z "},"ª":{"ha":739,"x_min":149,"x_max":673,"o":"m 541 562 q 336 453 452 453 q 205 493 249 453 q 161 611 161 533 q 180 709 161 665 q 232 786 198 753 q 313 836 265 818 q 419 853 360 853 q 457 851 436 853 q 498 844 477 848 q 536 836 518 840 q 566 826 554 831 q 575 896 572 872 q 577 936 577 920 q 572 979 577 962 q 553 1007 566 996 q 520 1022 541 1017 q 470 1026 500 1026 q 398 1016 433 1026 q 336 995 363 1006 q 293 974 309 983 q 278 965 277 964 l 254 1039 q 303 1065 277 1052 q 357 1088 329 1078 q 415 1104 385 1098 q 477 1111 445 1111 q 567 1101 530 1111 q 628 1069 604 1090 q 663 1013 652 1047 q 673 931 673 979 q 673 917 673 925 q 671 890 673 908 q 665 843 669 873 q 654 763 661 812 q 638 641 648 713 q 614 465 628 568 l 541 465 l 541 562 m 559 774 q 498 782 526 779 q 446 785 470 785 q 264 627 264 785 q 371 530 264 530 q 453 552 414 530 q 536 612 493 574 l 559 774 m 161 356 l 593 356 l 581 269 l 149 269 l 161 356 z "},"«":{"ha":1021,"x_min":122,"x_max":930,"o":"m 911 570 l 605 391 l 859 208 l 840 73 l 498 327 l 516 450 l 930 705 l 911 570 m 534 570 l 229 391 l 483 208 l 463 73 l 122 327 l 140 450 l 553 705 l 534 570 z "},"¬":{"ha":1082,"x_min":156,"x_max":1036,"o":"m 1036 804 l 955 230 l 829 230 l 892 688 l 156 688 l 173 804 l 1036 804 z "},"­":{"ha":524,"x_min":108,"x_max":476,"o":"m 465 342 l 108 342 l 119 425 l 476 425 l 465 342 z "},"®":{"ha":853,"x_min":145,"x_max":838,"o":"m 519 733 q 525 725 520 732 q 536 709 530 718 q 551 688 543 700 l 610 580 l 545 548 q 527 589 535 570 q 511 628 519 609 l 469 727 l 439 727 l 414 563 l 353 563 l 409 949 l 478 949 q 603 928 565 949 q 640 861 640 907 q 631 812 640 833 q 607 776 623 791 q 568 750 591 761 q 519 733 546 740 m 532 1042 q 403 1013 463 1042 q 300 935 344 983 q 233 826 257 886 q 208 704 208 766 q 227 604 208 649 q 278 526 245 558 q 356 475 311 493 q 456 458 402 458 q 577 485 519 458 q 679 557 635 511 q 749 665 723 604 q 775 794 775 726 q 757 893 775 848 q 707 972 739 939 q 630 1024 675 1005 q 532 1042 585 1042 m 481 776 q 555 794 530 776 q 579 857 579 813 q 573 878 579 869 q 554 891 568 886 q 518 898 541 897 q 464 900 496 900 l 448 776 l 481 776 m 145 696 q 159 801 144 750 q 200 898 174 852 q 264 981 227 943 q 345 1047 301 1019 q 439 1090 389 1075 q 541 1105 489 1105 q 662 1082 607 1105 q 755 1019 716 1059 q 817 923 795 978 q 838 802 838 867 q 824 699 838 749 q 784 603 810 648 q 722 520 758 558 q 642 455 686 482 q 547 412 598 427 q 441 396 496 396 q 323 419 378 396 q 230 483 269 442 q 168 578 190 523 q 145 699 145 634 l 145 696 z "},"¯":{"ha":625,"x_min":63,"x_max":514,"o":"m 502 0 l 63 0 l 75 94 l 514 94 l 502 0 z "},"°":{"ha":415,"x_min":112,"x_max":365,"o":"m 252 743 q 214 734 231 743 q 183 710 196 725 q 163 676 170 695 q 156 635 156 656 q 174 581 155 603 q 227 559 192 559 q 264 569 247 559 q 294 593 281 578 q 314 627 307 608 q 321 667 321 646 q 303 722 321 700 q 252 743 285 743 m 112 628 q 123 689 112 661 q 155 740 135 718 q 202 773 175 761 q 260 786 229 786 q 303 778 284 786 q 336 754 323 769 q 357 720 350 740 q 365 677 365 700 q 354 614 365 644 q 323 564 342 585 q 278 529 304 542 q 221 517 252 517 q 175 525 195 517 q 141 548 155 533 q 119 583 127 563 q 112 628 112 604 z "},"±":{"ha":688,"x_min":101,"x_max":625,"o":"m 538 -40 l 101 -40 l 115 54 l 551 54 l 538 -40 m 612 347 l 415 347 l 382 113 l 296 113 l 330 347 l 132 347 l 144 433 l 342 433 l 376 668 l 459 668 l 427 433 l 625 433 l 612 347 z "},"²":{"ha":749,"x_min":64,"x_max":665,"o":"m 571 580 q 542 660 571 629 q 404 705 500 705 q 360 701 384 705 q 312 691 336 697 q 262 676 288 684 q 214 661 237 669 l 189 741 q 213 752 201 747 q 237 763 225 758 q 334 789 287 781 q 433 796 382 796 q 535 781 492 796 q 608 736 579 765 q 651 667 637 708 q 665 577 665 627 q 454 258 664 414 l 210 76 l 572 76 l 559 -24 l 64 -24 l 76 71 q 107 95 89 81 q 154 132 125 109 q 225 186 183 154 q 328 265 267 219 l 404 323 q 465 377 435 347 q 518 441 495 408 q 556 510 542 475 q 571 580 571 545 z "},"³":{"ha":729,"x_min":52,"x_max":680,"o":"m 351 395 q 465 415 421 395 q 534 463 509 434 q 567 525 558 492 q 576 587 576 558 q 535 676 576 650 q 408 703 494 703 q 360 700 385 703 q 310 690 336 696 q 259 676 285 684 q 212 659 234 668 l 194 747 l 214 757 q 251 771 229 763 q 300 786 273 779 q 359 798 328 793 q 426 802 391 802 q 483 799 453 802 q 540 787 512 795 q 594 764 568 779 q 638 728 619 750 q 668 677 657 707 q 680 609 680 648 q 669 524 680 561 q 642 460 659 488 q 603 413 625 432 q 556 380 581 393 q 507 360 532 367 q 459 349 481 353 q 517 329 486 342 q 575 290 548 315 q 619 228 602 265 q 637 138 637 191 q 606 3 637 59 q 526 -90 574 -54 q 417 -142 477 -125 q 301 -159 358 -159 q 221 -153 259 -159 q 152 -136 184 -146 q 95 -115 121 -126 q 52 -93 70 -103 q 77 -44 68 -61 q 90 -20 85 -27 q 95 -12 94 -12 q 96 -12 96 -11 q 118 -19 99 -12 q 168 -36 138 -27 q 237 -53 198 -45 q 318 -61 275 -61 q 418 -43 378 -61 q 483 3 458 -25 q 517 67 507 32 q 527 136 527 102 q 480 249 528 208 q 338 300 433 289 l 351 395 z "},"´":{"ha":495,"x_min":129,"x_max":416,"o":"m 216 81 l 129 81 l 259 500 l 416 500 l 216 81 z "},"µ":{"ha":777,"x_min":48,"x_max":738,"o":"m 142 -197 l 48 -183 l 177 753 l 275 753 q 245 542 258 629 q 225 396 233 454 q 213 302 218 337 q 207 249 209 268 q 204 222 205 230 q 204 209 204 214 q 231 107 204 139 q 316 75 258 75 q 390 86 355 75 q 454 114 425 97 q 505 150 483 130 q 543 184 528 169 l 621 753 l 738 753 l 632 3 l 545 -8 l 545 106 q 301 -22 425 -22 q 247 -15 269 -22 q 210 1 224 -8 q 187 22 195 11 q 175 42 179 33 l 142 -197 z "},"¶":{"ha":756,"x_min":90,"x_max":747,"o":"m 747 1069 l 596 0 l 481 0 l 618 968 l 532 968 l 396 0 l 279 0 l 366 620 q 263 629 313 620 q 175 660 213 637 q 113 718 136 682 q 90 810 90 755 q 104 906 90 865 q 142 975 117 946 q 200 1022 166 1004 q 274 1050 233 1040 q 360 1065 314 1061 q 454 1069 406 1069 l 747 1069 z "},"·":{"ha":350,"x_min":136,"x_max":288,"o":"m 227 530 q 272 510 255 530 q 288 460 288 491 q 281 423 288 441 q 261 391 273 405 q 232 369 248 377 q 200 360 216 360 q 153 380 170 360 q 136 431 136 400 q 143 467 136 450 q 163 499 151 485 q 192 521 176 513 q 227 530 209 530 z "},"¸":{"ha":368,"x_min":24,"x_max":325,"o":"m 24 -358 q 24 -345 24 -351 q 25 -332 24 -338 l 26 -283 q 77 -303 52 -296 q 122 -314 101 -311 q 150 -316 137 -316 q 195 -308 177 -316 q 224 -289 213 -300 q 239 -263 235 -277 q 243 -237 243 -249 q 232 -210 243 -223 q 198 -185 221 -196 q 141 -168 175 -175 q 60 -161 106 -161 l 113 16 l 191 16 q 156 -67 168 -38 q 142 -102 144 -96 q 199 -106 168 -102 q 258 -124 231 -111 q 306 -161 286 -138 q 325 -224 325 -185 l 325 -222 q 310 -293 325 -261 q 270 -346 295 -324 q 212 -380 245 -368 q 144 -392 180 -392 q 78 -383 108 -392 q 24 -358 49 -374 z "},"¹":{"ha":564,"x_min":135,"x_max":425,"o":"m 204 -24 l 306 703 l 153 640 l 135 718 l 294 776 l 425 776 l 313 -24 l 204 -24 z "},"º":{"ha":800,"x_min":144,"x_max":705,"o":"m 386 454 q 287 473 329 454 q 216 525 244 491 q 173 605 187 558 q 159 709 159 652 q 166 788 159 745 q 187 877 172 832 q 227 964 202 922 q 286 1039 251 1006 q 369 1091 321 1072 q 478 1111 416 1111 q 577 1092 535 1111 q 648 1040 620 1074 q 691 958 677 1006 q 705 853 705 911 q 697 764 705 810 q 673 673 690 718 q 631 589 656 629 q 570 519 606 549 q 489 472 534 490 q 386 454 443 454 m 398 539 q 471 555 439 539 q 526 596 503 570 q 564 654 549 621 q 589 721 580 686 q 602 789 598 755 q 606 851 606 823 q 572 979 606 932 q 467 1025 538 1025 q 395 1010 426 1025 q 340 969 363 995 q 301 911 317 944 q 276 844 286 879 q 262 775 266 809 q 258 712 258 741 q 292 585 258 630 q 398 539 326 539 m 157 349 l 589 349 l 576 262 l 144 262 l 157 349 z "},"»":{"ha":1021,"x_min":94,"x_max":901,"o":"m 541 570 l 559 706 l 901 450 l 884 327 l 471 73 l 490 208 l 795 391 l 541 570 m 164 570 l 183 706 l 524 450 l 507 327 l 94 73 l 113 208 l 419 391 l 164 570 z "},"¼":{"ha":1230,"x_min":106,"x_max":1114,"o":"m 106 -20 l 1009 919 l 1076 855 l 172 -84 l 106 -20 m 1034 638 l 1114 618 l 1011 93 l 1114 93 l 1099 21 l 996 21 l 961 -157 l 863 -174 l 901 21 l 541 21 l 541 94 l 1034 638 m 644 92 l 915 92 l 997 475 l 644 92 m 273 390 l 387 967 l 260 918 l 247 977 l 420 1041 l 504 1024 l 378 390 l 273 390 z "},"½":{"ha":1405,"x_min":123,"x_max":1293,"o":"m 123 -20 l 1026 919 l 1093 855 l 189 -84 l 123 -20 m 308 390 l 421 967 l 295 918 l 282 977 l 455 1041 l 539 1024 l 413 390 l 308 390 m 981 132 q 1040 175 1006 151 q 1104 228 1074 199 q 1157 290 1135 256 q 1178 363 1178 324 q 1147 421 1178 402 q 1064 441 1117 441 q 1019 438 1044 441 q 966 430 994 435 q 911 418 939 425 q 861 406 884 412 l 882 503 q 901 509 891 507 q 921 515 911 512 q 996 529 954 524 q 1095 535 1038 535 q 1193 520 1154 535 q 1253 484 1231 506 q 1284 434 1276 461 q 1293 380 1293 406 q 1282 309 1293 342 q 1244 242 1270 275 q 1177 172 1219 208 q 1073 90 1135 135 l 919 -22 l 1198 -22 l 1178 -123 l 745 -123 l 764 -31 l 981 132 z "},"¾":{"ha":1467,"x_min":163,"x_max":735,"o":"m 215 505 q 250 488 231 497 q 291 472 269 479 q 339 460 313 465 q 395 456 366 456 q 465 467 433 456 q 521 498 498 478 q 558 547 545 519 q 572 610 572 575 q 536 689 572 659 q 420 727 500 718 l 437 819 q 502 827 469 819 q 564 853 536 836 q 610 897 592 870 q 628 962 628 924 q 596 1024 628 1002 q 494 1045 564 1045 q 453 1042 475 1045 q 409 1034 431 1039 q 366 1022 387 1029 q 328 1006 345 1015 l 313 1093 q 315 1093 315 1093 q 340 1103 321 1096 q 385 1118 358 1110 q 446 1131 412 1125 q 515 1137 479 1137 q 588 1130 549 1137 q 659 1106 627 1123 q 713 1059 692 1088 q 735 984 735 1029 q 724 914 735 945 q 694 860 712 884 q 653 821 675 837 q 607 794 630 804 q 565 779 585 784 q 532 774 545 774 q 581 760 554 770 q 629 730 607 749 q 667 681 652 711 q 682 608 682 652 q 668 529 682 564 q 631 467 654 494 q 575 421 607 440 q 509 390 544 401 q 437 372 474 378 q 368 366 401 366 q 300 372 332 366 q 243 385 269 377 q 198 402 218 393 q 163 419 178 412 l 215 505 z "},"¿":{"ha":707,"x_min":113,"x_max":703,"o":"m 221 218 q 230 166 221 188 q 258 129 239 144 q 308 107 277 115 q 384 100 339 100 q 441 105 412 100 q 498 118 471 110 q 550 136 525 126 q 595 155 575 146 l 632 64 q 579 42 608 53 q 519 21 551 31 q 452 6 488 12 q 376 1 416 1 q 251 17 301 1 q 170 63 200 34 q 126 130 139 92 q 113 212 113 168 q 137 328 113 274 q 198 426 161 381 q 281 506 235 470 q 370 568 326 541 q 450 611 413 594 q 505 637 486 629 l 524 741 l 618 741 l 598 574 q 573 563 587 569 q 545 550 560 557 q 477 514 513 534 q 405 470 441 494 q 336 418 369 446 q 277 359 302 391 q 236 292 252 327 q 221 218 221 256 m 703 1033 q 691 933 696 982 q 681 831 686 884 q 590 829 635 831 q 498 826 545 828 q 510 926 505 877 q 519 1029 515 976 q 610 1030 565 1029 q 703 1033 654 1031 z "},"À":{"ha":878,"x_min":29,"x_max":866,"o":"m 610 1010 l 481 730 l 295 326 l 704 326 l 646 734 l 610 1010 m 524 1069 l 712 1069 l 866 0 l 749 0 l 713 259 l 264 259 l 145 0 l 29 0 l 524 1069 m 713 1158 l 665 1158 l 507 1575 l 682 1575 l 713 1158 z "},"Á":{"ha":878,"x_min":29,"x_max":866,"o":"m 610 1010 l 481 730 l 295 326 l 704 326 l 646 734 l 610 1010 m 524 1069 l 712 1069 l 866 0 l 749 0 l 713 259 l 264 259 l 145 0 l 29 0 l 524 1069 m 557 1139 l 470 1139 l 600 1558 l 758 1558 l 557 1139 z "},"Â":{"ha":878,"x_min":29,"x_max":866,"o":"m 610 1010 l 481 730 l 295 326 l 704 326 l 646 734 l 610 1010 m 524 1069 l 712 1069 l 866 0 l 749 0 l 713 259 l 264 259 l 145 0 l 29 0 l 524 1069 m 648 1494 l 720 1494 l 793 1139 l 705 1139 l 663 1354 l 530 1139 l 427 1139 l 648 1494 z "},"Ã":{"ha":878,"x_min":29,"x_max":867,"o":"m 610 1010 l 481 730 l 295 326 l 704 326 l 646 734 l 610 1010 m 524 1069 l 712 1069 l 866 0 l 749 0 l 713 259 l 264 259 l 145 0 l 29 0 l 524 1069 m 732 1139 q 666 1152 699 1139 q 603 1179 633 1164 q 546 1207 572 1194 q 502 1219 520 1219 q 485 1218 493 1219 q 469 1211 476 1217 q 457 1192 462 1204 q 453 1157 453 1179 l 356 1157 q 368 1227 356 1198 q 399 1277 379 1257 q 447 1306 420 1297 q 507 1316 475 1316 q 568 1303 538 1316 q 625 1276 597 1291 q 676 1249 652 1261 q 722 1236 701 1236 q 743 1239 734 1236 q 759 1247 752 1241 q 768 1266 765 1254 q 772 1299 772 1278 l 867 1299 q 857 1221 867 1252 q 828 1173 846 1191 q 785 1147 810 1154 q 732 1139 760 1139 z "},"Ä":{"ha":878,"x_min":29,"x_max":866,"o":"m 610 1010 l 481 730 l 295 326 l 704 326 l 646 734 l 610 1010 m 524 1069 l 712 1069 l 866 0 l 749 0 l 713 259 l 264 259 l 145 0 l 29 0 l 524 1069 m 551 1241 q 544 1203 551 1221 q 524 1172 536 1185 q 496 1149 511 1158 q 464 1141 480 1141 q 415 1161 433 1141 q 398 1212 397 1181 q 406 1248 398 1230 q 426 1280 413 1266 q 454 1302 438 1293 q 488 1310 471 1310 q 534 1290 517 1310 q 551 1240 551 1270 l 551 1241 m 827 1240 q 819 1202 827 1220 q 799 1170 812 1184 q 771 1148 787 1156 q 739 1139 755 1139 q 691 1160 709 1139 q 673 1211 673 1180 q 680 1247 673 1229 q 700 1278 688 1265 q 729 1300 713 1292 q 763 1309 745 1309 q 809 1289 791 1309 q 826 1238 827 1269 q 826 1239 826 1239 q 827 1240 827 1239 z "},"Å":{"ha":878,"x_min":29,"x_max":866,"o":"m 610 1010 l 481 730 l 295 326 l 704 326 l 646 734 l 610 1010 m 524 1069 l 712 1069 l 866 0 l 749 0 l 713 259 l 264 259 l 145 0 l 29 0 l 524 1069 m 622 1354 q 589 1346 604 1354 q 564 1325 574 1338 q 548 1295 553 1312 q 542 1261 542 1278 q 556 1214 542 1232 q 600 1195 570 1195 q 632 1203 617 1195 q 657 1224 646 1211 q 674 1254 668 1237 q 680 1288 680 1270 q 665 1335 680 1316 q 622 1354 650 1354 m 484 1250 q 495 1311 484 1282 q 527 1362 507 1340 q 574 1396 547 1383 q 631 1409 601 1409 q 676 1400 656 1409 q 710 1376 696 1391 q 732 1340 724 1360 q 740 1296 740 1319 q 728 1234 740 1263 q 697 1185 717 1206 q 650 1152 677 1164 q 593 1139 623 1139 q 548 1147 568 1139 q 513 1170 528 1156 q 491 1205 499 1185 q 484 1250 484 1225 z "},"Æ":{"ha":1341,"x_min":29,"x_max":1408,"o":"m 838 601 l 1278 601 l 1269 528 l 827 528 l 765 94 l 1277 94 l 1265 0 l 643 0 l 680 260 l 321 260 l 153 0 l 29 0 l 741 1066 l 1408 1066 l 1395 977 l 891 977 l 838 601 m 690 326 l 778 971 l 376 326 l 690 326 z "},"Ç":{"ha":792,"x_min":149,"x_max":925,"o":"m 149 359 q 164 543 149 452 q 209 714 179 633 q 281 865 238 795 q 380 984 324 934 q 504 1063 436 1034 q 651 1091 572 1091 q 705 1090 678 1091 q 764 1083 732 1088 q 835 1066 796 1077 q 925 1038 874 1056 l 882 944 q 812 969 843 960 q 756 984 781 979 q 709 991 730 989 q 668 993 688 993 q 540 967 597 993 q 439 898 483 942 q 363 794 395 854 q 311 664 332 734 q 281 518 291 594 q 272 367 272 443 q 333 142 272 214 q 513 71 393 71 q 619 89 553 71 q 767 143 685 108 l 787 53 q 712 23 748 37 q 642 -3 677 8 q 571 -21 607 -14 q 497 -28 536 -28 q 344 -2 410 -28 q 235 73 279 23 q 170 194 192 122 q 149 359 149 267 m 385 -358 q 385 -345 385 -351 q 386 -332 385 -338 l 387 -283 q 437 -303 413 -296 q 483 -314 462 -311 q 511 -316 498 -316 q 556 -308 538 -316 q 585 -289 574 -300 q 600 -263 595 -277 q 604 -237 604 -249 q 593 -210 604 -223 q 559 -185 582 -196 q 502 -168 536 -175 q 420 -161 467 -161 l 474 16 l 551 16 q 516 -67 528 -38 q 503 -102 505 -96 q 560 -106 528 -102 q 619 -124 591 -111 q 666 -161 647 -138 q 686 -224 686 -185 l 686 -222 q 671 -293 686 -261 q 631 -346 656 -324 q 573 -380 606 -368 q 505 -392 541 -392 q 439 -383 469 -392 q 385 -358 410 -374 z "},"È":{"ha":732,"x_min":100,"x_max":860,"o":"m 718 0 l 100 0 l 250 1069 l 860 1069 l 846 976 l 354 976 l 301 602 l 731 602 l 721 528 l 291 528 l 230 94 l 730 94 l 718 0 m 688 1158 l 641 1158 l 483 1575 l 658 1575 l 688 1158 z "},"É":{"ha":732,"x_min":100,"x_max":860,"o":"m 718 0 l 100 0 l 250 1069 l 860 1069 l 846 976 l 354 976 l 301 602 l 731 602 l 721 528 l 291 528 l 230 94 l 730 94 l 718 0 m 533 1139 l 446 1139 l 576 1558 l 733 1558 l 533 1139 z "},"Ê":{"ha":732,"x_min":100,"x_max":860,"o":"m 718 0 l 100 0 l 250 1069 l 860 1069 l 846 976 l 354 976 l 301 602 l 731 602 l 721 528 l 291 528 l 230 94 l 730 94 l 718 0 m 583 1506 l 655 1506 l 728 1151 l 640 1151 l 597 1367 l 465 1151 l 361 1151 l 583 1506 z "},"Ë":{"ha":732,"x_min":100,"x_max":922,"o":"m 718 0 l 100 0 l 250 1069 l 860 1069 l 846 976 l 354 976 l 301 602 l 731 602 l 721 528 l 291 528 l 230 94 l 730 94 l 718 0 m 646 1241 q 639 1203 646 1221 q 619 1172 631 1185 q 591 1149 606 1158 q 559 1141 575 1141 q 510 1161 528 1141 q 493 1212 492 1181 q 500 1248 493 1230 q 520 1280 508 1266 q 549 1302 533 1293 q 583 1310 566 1310 q 629 1290 612 1310 q 646 1240 646 1270 l 646 1241 m 922 1240 q 914 1202 922 1220 q 894 1170 907 1184 q 866 1148 882 1156 q 834 1139 850 1139 q 786 1160 804 1139 q 768 1211 768 1180 q 775 1247 768 1229 q 795 1278 783 1265 q 824 1300 808 1292 q 858 1309 840 1309 q 904 1289 886 1309 q 921 1238 922 1269 q 921 1239 921 1239 q 922 1240 922 1239 z "},"Ì":{"ha":573,"x_min":109,"x_max":628,"o":"m 119 75 l 245 75 l 372 991 l 248 991 l 258 1070 l 628 1070 l 617 991 l 490 991 l 361 75 l 490 75 l 479 0 l 109 0 l 119 75 m 543 1158 l 496 1158 l 338 1575 l 513 1575 l 543 1158 z "},"Í":{"ha":573,"x_min":109,"x_max":628,"o":"m 119 75 l 245 75 l 372 991 l 248 991 l 258 1070 l 628 1070 l 617 991 l 490 991 l 361 75 l 490 75 l 479 0 l 109 0 l 119 75 m 388 1139 l 300 1139 l 431 1558 l 588 1558 l 388 1139 z "},"Î":{"ha":573,"x_min":109,"x_max":628,"o":"m 119 75 l 245 75 l 372 991 l 248 991 l 258 1070 l 628 1070 l 617 991 l 490 991 l 361 75 l 490 75 l 479 0 l 109 0 l 119 75 m 471 1506 l 543 1506 l 616 1151 l 528 1151 l 486 1367 l 353 1151 l 250 1151 l 471 1506 z "},"Ï":{"ha":573,"x_min":109,"x_max":777,"o":"m 119 75 l 245 75 l 372 991 l 248 991 l 258 1070 l 628 1070 l 617 991 l 490 991 l 361 75 l 490 75 l 479 0 l 109 0 l 119 75 m 501 1241 q 494 1203 501 1221 q 474 1172 486 1185 q 446 1149 461 1158 q 414 1141 430 1141 q 365 1161 383 1141 q 348 1212 347 1181 q 355 1248 348 1230 q 375 1280 363 1266 q 404 1302 388 1293 q 438 1310 420 1310 q 484 1290 467 1310 q 501 1240 501 1270 l 501 1241 m 777 1240 q 769 1202 777 1220 q 749 1170 762 1184 q 721 1148 736 1156 q 689 1139 705 1139 q 641 1160 659 1139 q 623 1211 623 1180 q 630 1247 623 1229 q 650 1278 637 1265 q 679 1300 663 1292 q 713 1309 695 1309 q 759 1289 741 1309 q 776 1238 777 1269 q 776 1239 776 1239 q 777 1240 777 1239 z "},"Ð":{"ha":895,"x_min":70,"x_max":918,"o":"m 918 684 q 915 602 918 650 q 903 499 912 554 q 878 387 894 445 q 835 273 861 328 q 772 168 809 217 q 684 81 734 118 q 566 22 633 43 q 416 0 500 0 l 70 0 l 141 500 l 73 500 l 84 596 l 155 596 l 222 1066 l 568 1066 q 831 971 745 1066 q 918 684 918 876 m 798 686 q 783 816 798 762 q 737 903 768 869 q 660 952 707 937 q 552 967 614 967 l 323 967 l 271 596 l 526 596 l 514 500 l 258 500 l 201 98 l 432 98 q 570 129 511 98 q 669 211 628 160 q 735 325 709 261 q 774 455 760 389 q 793 581 788 520 q 798 686 798 642 z "},"Ñ":{"ha":1013,"x_min":99,"x_max":1078,"o":"m 928 0 l 745 0 l 615 328 l 355 983 l 217 0 l 99 0 l 250 1070 l 432 1070 l 562 742 l 822 87 l 960 1070 l 1078 1070 l 928 0 m 806 1139 q 740 1152 773 1139 q 676 1179 707 1164 q 620 1207 646 1194 q 576 1219 594 1219 q 558 1218 567 1219 q 543 1211 550 1217 q 531 1192 536 1204 q 527 1157 527 1179 l 430 1157 q 441 1227 430 1198 q 473 1277 453 1257 q 521 1306 494 1297 q 581 1316 549 1316 q 642 1303 612 1316 q 699 1276 671 1291 q 750 1249 726 1261 q 796 1236 774 1236 q 817 1239 808 1236 q 832 1247 826 1241 q 842 1266 839 1254 q 846 1299 846 1278 l 941 1299 q 931 1221 941 1252 q 902 1173 920 1191 q 859 1147 884 1154 q 806 1139 834 1139 z "},"Ò":{"ha":981,"x_min":149,"x_max":1004,"o":"m 1004 707 q 987 507 1004 602 q 939 330 970 411 q 862 182 907 248 q 759 69 817 116 q 634 -3 702 22 q 490 -28 566 -28 q 348 -6 411 -28 q 241 62 285 16 q 173 178 197 108 q 149 345 149 248 q 165 543 149 448 q 213 721 182 638 q 289 872 244 804 q 390 989 333 940 q 513 1064 446 1038 q 656 1091 581 1091 q 819 1063 753 1091 q 927 984 886 1035 q 986 863 968 933 q 1004 707 1004 792 m 883 712 q 871 822 883 770 q 831 911 859 873 q 759 971 804 949 q 647 993 713 993 q 524 964 578 993 q 428 888 470 936 q 357 775 387 840 q 309 638 328 710 q 281 490 290 566 q 272 343 272 414 q 331 138 272 205 q 505 71 390 71 q 622 96 568 71 q 717 168 675 122 q 790 275 759 213 q 842 408 821 336 q 873 556 863 479 q 883 712 883 634 m 753 1158 l 705 1158 l 547 1575 l 722 1575 l 753 1158 z "},"Ó":{"ha":981,"x_min":149,"x_max":1004,"o":"m 1004 707 q 987 507 1004 602 q 939 330 970 411 q 862 182 907 248 q 759 69 817 116 q 634 -3 702 22 q 490 -28 566 -28 q 348 -6 411 -28 q 241 62 285 16 q 173 178 197 108 q 149 345 149 248 q 165 543 149 448 q 213 721 182 638 q 289 872 244 804 q 390 989 333 940 q 513 1064 446 1038 q 656 1091 581 1091 q 819 1063 753 1091 q 927 984 886 1035 q 986 863 968 933 q 1004 707 1004 792 m 883 712 q 871 822 883 770 q 831 911 859 873 q 759 971 804 949 q 647 993 713 993 q 524 964 578 993 q 428 888 470 936 q 357 775 387 840 q 309 638 328 710 q 281 490 290 566 q 272 343 272 414 q 331 138 272 205 q 505 71 390 71 q 622 96 568 71 q 717 168 675 122 q 790 275 759 213 q 842 408 821 336 q 873 556 863 479 q 883 712 883 634 m 597 1139 l 510 1139 l 640 1558 l 798 1558 l 597 1139 z "},"Ô":{"ha":981,"x_min":149,"x_max":1004,"o":"m 1004 707 q 987 507 1004 602 q 939 330 970 411 q 862 182 907 248 q 759 69 817 116 q 634 -3 702 22 q 490 -28 566 -28 q 348 -6 411 -28 q 241 62 285 16 q 173 178 197 108 q 149 345 149 248 q 165 543 149 448 q 213 721 182 638 q 289 872 244 804 q 390 989 333 940 q 513 1064 446 1038 q 656 1091 581 1091 q 819 1063 753 1091 q 927 984 886 1035 q 986 863 968 933 q 1004 707 1004 792 m 883 712 q 871 822 883 770 q 831 911 859 873 q 759 971 804 949 q 647 993 713 993 q 524 964 578 993 q 428 888 470 936 q 357 775 387 840 q 309 638 328 710 q 281 490 290 566 q 272 343 272 414 q 331 138 272 205 q 505 71 390 71 q 622 96 568 71 q 717 168 675 122 q 790 275 759 213 q 842 408 821 336 q 873 556 863 479 q 883 712 883 634 m 688 1494 l 760 1494 l 833 1139 l 745 1139 l 703 1354 l 570 1139 l 467 1139 l 688 1494 z "},"Õ":{"ha":981,"x_min":149,"x_max":1004,"o":"m 1004 707 q 987 507 1004 602 q 939 330 970 411 q 862 182 907 248 q 759 69 817 116 q 634 -3 702 22 q 490 -28 566 -28 q 348 -6 411 -28 q 241 62 285 16 q 173 178 197 108 q 149 345 149 248 q 165 543 149 448 q 213 721 182 638 q 289 872 244 804 q 390 989 333 940 q 513 1064 446 1038 q 656 1091 581 1091 q 819 1063 753 1091 q 927 984 886 1035 q 986 863 968 933 q 1004 707 1004 792 m 883 712 q 871 822 883 770 q 831 911 859 873 q 759 971 804 949 q 647 993 713 993 q 524 964 578 993 q 428 888 470 936 q 357 775 387 840 q 309 638 328 710 q 281 490 290 566 q 272 343 272 414 q 331 138 272 205 q 505 71 390 71 q 622 96 568 71 q 717 168 675 122 q 790 275 759 213 q 842 408 821 336 q 873 556 863 479 q 883 712 883 634 m 772 1139 q 706 1152 739 1139 q 643 1179 673 1164 q 586 1207 612 1194 q 542 1219 560 1219 q 525 1218 533 1219 q 509 1211 516 1217 q 497 1192 502 1204 q 493 1157 493 1179 l 396 1157 q 408 1227 396 1198 q 439 1277 419 1257 q 487 1306 460 1297 q 547 1316 515 1316 q 608 1303 578 1316 q 665 1276 637 1291 q 716 1249 692 1261 q 762 1236 741 1236 q 783 1239 774 1236 q 799 1247 792 1241 q 808 1266 805 1254 q 812 1299 812 1278 l 907 1299 q 897 1221 907 1252 q 868 1173 886 1191 q 825 1147 850 1154 q 772 1139 800 1139 z "},"Ö":{"ha":981,"x_min":149,"x_max":1004,"o":"m 1004 707 q 987 507 1004 602 q 939 330 970 411 q 862 182 907 248 q 759 69 817 116 q 634 -3 702 22 q 490 -28 566 -28 q 348 -6 411 -28 q 241 62 285 16 q 173 178 197 108 q 149 345 149 248 q 165 543 149 448 q 213 721 182 638 q 289 872 244 804 q 390 989 333 940 q 513 1064 446 1038 q 656 1091 581 1091 q 819 1063 753 1091 q 927 984 886 1035 q 986 863 968 933 q 1004 707 1004 792 m 883 712 q 871 822 883 770 q 831 911 859 873 q 759 971 804 949 q 647 993 713 993 q 524 964 578 993 q 428 888 470 936 q 357 775 387 840 q 309 638 328 710 q 281 490 290 566 q 272 343 272 414 q 331 138 272 205 q 505 71 390 71 q 622 96 568 71 q 717 168 675 122 q 790 275 759 213 q 842 408 821 336 q 873 556 863 479 q 883 712 883 634 m 591 1241 q 584 1203 591 1221 q 564 1172 576 1185 q 536 1149 551 1158 q 504 1141 520 1141 q 455 1161 473 1141 q 438 1212 437 1181 q 446 1248 438 1230 q 466 1280 453 1266 q 494 1302 478 1293 q 528 1310 511 1310 q 574 1290 557 1310 q 591 1240 591 1270 l 591 1241 m 867 1240 q 859 1202 867 1220 q 839 1170 852 1184 q 811 1148 827 1156 q 779 1139 795 1139 q 731 1160 749 1139 q 713 1211 713 1180 q 720 1247 713 1229 q 740 1278 728 1265 q 769 1300 753 1292 q 803 1309 785 1309 q 849 1289 831 1309 q 866 1238 867 1269 q 866 1239 866 1239 q 867 1240 867 1239 z "},"×":{"ha":783,"x_min":134,"x_max":710,"o":"m 484 370 l 652 158 l 582 91 l 413 304 l 184 91 l 134 157 l 361 369 l 193 581 l 263 648 l 432 435 l 660 648 l 710 582 l 484 370 z "},"Ø":{"ha":981,"x_min":149,"x_max":1004,"o":"m 882 711 q 865 842 882 783 q 804 939 848 900 l 416 84 q 457 75 435 78 q 504 71 479 71 q 620 97 568 71 q 715 169 673 123 q 788 275 757 214 q 840 408 819 337 q 871 556 861 479 q 882 711 882 634 m 1004 707 q 987 507 1004 602 q 939 330 970 411 q 861 182 907 248 q 759 69 816 116 q 633 -3 701 22 q 488 -28 565 -28 q 370 -14 424 -28 l 332 -97 l 266 -66 l 302 14 q 189 136 229 54 q 149 345 148 217 q 165 543 149 448 q 213 721 182 638 q 289 872 244 804 q 391 989 334 940 q 515 1064 448 1038 q 658 1091 582 1091 q 786 1075 730 1091 l 829 1167 l 896 1139 l 853 1046 q 923 989 895 1023 q 970 912 952 955 q 996 818 988 869 q 1004 707 1004 766 m 647 991 q 524 963 578 991 q 429 887 470 935 q 358 774 387 838 q 310 638 328 710 q 282 491 291 566 q 273 344 273 415 q 293 210 273 264 q 351 121 312 157 l 742 977 q 647 991 701 991 z "},"Ù":{"ha":931,"x_min":125,"x_max":1010,"o":"m 486 63 q 614 84 561 63 q 706 154 668 105 q 768 283 743 203 q 809 481 792 363 l 893 1069 l 1010 1069 l 927 484 q 889 305 913 382 q 834 171 866 228 q 764 76 803 115 q 680 15 725 38 q 583 -17 634 -7 q 475 -27 531 -27 q 325 1 390 -27 q 215 81 259 29 q 148 207 171 133 q 125 374 125 281 q 126 384 125 379 q 126 398 126 389 q 128 419 127 406 q 132 452 130 432 q 140 525 134 479 q 156 644 146 571 q 181 821 166 717 q 216 1069 195 926 l 332 1069 q 297 818 312 924 q 273 637 283 711 q 256 515 262 562 q 247 439 250 467 q 243 405 245 418 q 242 381 242 391 q 241 366 241 372 q 241 354 241 359 q 253 240 241 293 q 293 147 264 186 q 369 85 321 108 q 486 63 416 63 m 758 1158 l 710 1158 l 552 1575 l 727 1575 l 758 1158 z "},"Ú":{"ha":931,"x_min":125,"x_max":1010,"o":"m 486 63 q 614 84 561 63 q 706 154 668 105 q 768 283 743 203 q 809 481 792 363 l 893 1069 l 1010 1069 l 927 484 q 889 305 913 382 q 834 171 866 228 q 764 76 803 115 q 680 15 725 38 q 583 -17 634 -7 q 475 -27 531 -27 q 325 1 390 -27 q 215 81 259 29 q 148 207 171 133 q 125 374 125 281 q 126 384 125 379 q 126 398 126 389 q 128 419 127 406 q 132 452 130 432 q 140 525 134 479 q 156 644 146 571 q 181 821 166 717 q 216 1069 195 926 l 332 1069 q 297 818 312 924 q 273 637 283 711 q 256 515 262 562 q 247 439 250 467 q 243 405 245 418 q 242 381 242 391 q 241 366 241 372 q 241 354 241 359 q 253 240 241 293 q 293 147 264 186 q 369 85 321 108 q 486 63 416 63 m 602 1139 l 515 1139 l 645 1558 l 802 1558 l 602 1139 z "},"Û":{"ha":931,"x_min":125,"x_max":1010,"o":"m 486 63 q 614 84 561 63 q 706 154 668 105 q 768 283 743 203 q 809 481 792 363 l 893 1069 l 1010 1069 l 927 484 q 889 305 913 382 q 834 171 866 228 q 764 76 803 115 q 680 15 725 38 q 583 -17 634 -7 q 475 -27 531 -27 q 325 1 390 -27 q 215 81 259 29 q 148 207 171 133 q 125 374 125 281 q 126 384 125 379 q 126 398 126 389 q 128 419 127 406 q 132 452 130 432 q 140 525 134 479 q 156 644 146 571 q 181 821 166 717 q 216 1069 195 926 l 332 1069 q 297 818 312 924 q 273 637 283 711 q 256 515 262 562 q 247 439 250 467 q 243 405 245 418 q 242 381 242 391 q 241 366 241 372 q 241 354 241 359 q 253 240 241 293 q 293 147 264 186 q 369 85 321 108 q 486 63 416 63 m 692 1494 l 765 1494 l 838 1139 l 750 1139 l 707 1354 l 575 1139 l 471 1139 l 692 1494 z "},"Ü":{"ha":931,"x_min":125,"x_max":1010,"o":"m 486 63 q 614 84 561 63 q 706 154 668 105 q 768 283 743 203 q 809 481 792 363 l 893 1069 l 1010 1069 l 927 484 q 889 305 913 382 q 834 171 866 228 q 764 76 803 115 q 680 15 725 38 q 583 -17 634 -7 q 475 -27 531 -27 q 325 1 390 -27 q 215 81 259 29 q 148 207 171 133 q 125 374 125 281 q 126 384 125 379 q 126 398 126 389 q 128 419 127 406 q 132 452 130 432 q 140 525 134 479 q 156 644 146 571 q 181 821 166 717 q 216 1069 195 926 l 332 1069 q 297 818 312 924 q 273 637 283 711 q 256 515 262 562 q 247 439 250 467 q 243 405 245 418 q 242 381 242 391 q 241 366 241 372 q 241 354 241 359 q 253 240 241 293 q 293 147 264 186 q 369 85 321 108 q 486 63 416 63 m 596 1241 q 589 1203 596 1221 q 569 1172 581 1185 q 541 1149 556 1158 q 509 1141 525 1141 q 460 1161 478 1141 q 443 1212 442 1181 q 450 1248 443 1230 q 470 1280 458 1266 q 499 1302 483 1293 q 533 1310 515 1310 q 579 1290 562 1310 q 596 1240 596 1270 l 596 1241 m 871 1240 q 864 1202 871 1220 q 844 1170 857 1184 q 816 1148 831 1156 q 784 1139 800 1139 q 735 1160 753 1139 q 718 1211 718 1180 q 725 1247 718 1229 q 745 1278 732 1265 q 774 1300 758 1292 q 808 1309 790 1309 q 854 1289 836 1309 q 871 1238 871 1269 q 871 1239 871 1239 q 871 1240 871 1239 z "},"Ý":{"ha":772,"x_min":159,"x_max":915,"o":"m 442 427 l 802 1066 l 915 1066 l 488 328 l 441 0 l 326 0 l 375 349 l 159 1066 l 262 1066 l 442 427 m 475 1139 l 388 1139 l 518 1558 l 675 1558 l 475 1139 z "},"Þ":{"ha":916,"x_min":99,"x_max":882,"o":"m 250 1070 l 367 1070 l 355 978 l 481 978 q 664 964 588 978 q 788 920 740 949 q 859 843 837 890 q 882 732 882 797 q 849 553 882 627 q 752 433 817 479 q 592 365 688 386 q 370 343 496 343 l 265 343 l 218 0 l 99 0 l 250 1070 m 771 721 q 764 774 771 752 q 736 825 756 804 q 682 859 717 846 q 594 878 646 872 q 468 884 541 884 l 342 884 l 278 437 l 382 437 q 563 452 489 437 q 684 500 637 467 q 750 587 730 533 q 771 721 771 642 z "},"ß":{"ha":878,"x_min":99,"x_max":816,"o":"m 379 613 q 526 628 469 613 q 617 672 584 644 q 662 742 650 701 q 675 833 675 783 q 634 941 675 907 q 504 976 594 976 q 434 963 463 976 q 384 927 404 949 q 350 875 363 904 q 329 814 337 846 q 315 750 320 783 q 307 690 311 718 l 210 0 l 99 0 l 193 672 q 211 775 200 725 q 237 869 221 825 q 277 950 253 913 q 334 1014 300 987 q 413 1055 368 1040 q 519 1070 459 1070 q 636 1050 588 1070 q 714 997 684 1030 q 758 919 744 963 q 771 828 771 876 q 754 720 771 766 q 705 643 736 674 q 630 595 674 612 q 534 574 587 578 q 636 552 586 569 q 727 504 687 534 q 791 430 767 473 q 816 328 816 386 q 775 146 816 222 q 664 20 734 70 q 499 -55 594 -30 q 298 -85 405 -81 l 315 16 q 457 40 397 24 q 561 79 517 56 q 632 130 604 102 q 676 192 660 159 q 698 260 692 224 q 705 333 705 296 q 620 480 705 433 q 366 527 535 527 l 379 613 z "},"à":{"ha":741,"x_min":119,"x_max":768,"o":"m 768 723 l 665 0 l 580 0 l 586 134 q 485 24 545 62 q 355 -14 425 -14 q 246 8 291 -14 q 173 70 201 31 q 132 160 145 109 q 119 271 119 212 q 133 383 119 323 q 172 500 146 442 q 235 610 198 557 q 318 704 272 663 q 420 768 365 744 q 538 792 475 792 q 586 787 559 792 q 640 775 613 783 q 691 758 667 767 q 732 741 715 749 l 768 723 m 224 274 q 233 181 224 220 q 262 118 243 142 q 311 82 281 94 q 380 71 340 71 q 447 85 414 71 q 506 120 479 99 q 554 165 533 141 q 586 207 574 189 l 656 680 q 647 685 657 680 q 619 693 636 689 q 580 702 602 698 q 537 705 558 705 q 460 689 498 705 q 388 644 422 673 q 323 575 353 615 q 271 487 293 535 q 236 385 249 439 q 224 274 224 331 m 536 892 l 489 892 l 331 1309 l 506 1309 l 536 892 z "},"á":{"ha":741,"x_min":119,"x_max":768,"o":"m 768 723 l 665 0 l 580 0 l 586 134 q 485 24 545 62 q 355 -14 425 -14 q 246 8 291 -14 q 173 70 201 31 q 132 160 145 109 q 119 271 119 212 q 133 383 119 323 q 172 500 146 442 q 235 610 198 557 q 318 704 272 663 q 420 768 365 744 q 538 792 475 792 q 586 787 559 792 q 640 775 613 783 q 691 758 667 767 q 732 741 715 749 l 768 723 m 224 274 q 233 181 224 220 q 262 118 243 142 q 311 82 281 94 q 380 71 340 71 q 447 85 414 71 q 506 120 479 99 q 554 165 533 141 q 586 207 574 189 l 656 680 q 647 685 657 680 q 619 693 636 689 q 580 702 602 698 q 537 705 558 705 q 460 689 498 705 q 388 644 422 673 q 323 575 353 615 q 271 487 293 535 q 236 385 249 439 q 224 274 224 331 m 534 873 l 446 873 l 576 1293 l 734 1293 l 534 873 z "},"â":{"ha":741,"x_min":119,"x_max":768,"o":"m 768 723 l 665 0 l 580 0 l 586 134 q 485 24 545 62 q 355 -14 425 -14 q 246 8 291 -14 q 173 70 201 31 q 132 160 145 109 q 119 271 119 212 q 133 383 119 323 q 172 500 146 442 q 235 610 198 557 q 318 704 272 663 q 420 768 365 744 q 538 792 475 792 q 586 787 559 792 q 640 775 613 783 q 691 758 667 767 q 732 741 715 749 l 768 723 m 224 274 q 233 181 224 220 q 262 118 243 142 q 311 82 281 94 q 380 71 340 71 q 447 85 414 71 q 506 120 479 99 q 554 165 533 141 q 586 207 574 189 l 656 680 q 647 685 657 680 q 619 693 636 689 q 580 702 602 698 q 537 705 558 705 q 460 689 498 705 q 388 644 422 673 q 323 575 353 615 q 271 487 293 535 q 236 385 249 439 q 224 274 224 331 m 547 1228 l 619 1228 l 692 873 l 604 873 l 562 1088 l 429 873 l 326 873 l 547 1228 z "},"ã":{"ha":741,"x_min":119,"x_max":783,"o":"m 768 723 l 665 0 l 580 0 l 586 134 q 485 24 545 62 q 355 -14 425 -14 q 246 8 291 -14 q 173 70 201 31 q 132 160 145 109 q 119 271 119 212 q 133 383 119 323 q 172 500 146 442 q 235 610 198 557 q 318 704 272 663 q 420 768 365 744 q 538 792 475 792 q 586 787 559 792 q 640 775 613 783 q 691 758 667 767 q 732 741 715 749 l 768 723 m 224 274 q 233 181 224 220 q 262 118 243 142 q 311 82 281 94 q 380 71 340 71 q 447 85 414 71 q 506 120 479 99 q 554 165 533 141 q 586 207 574 189 l 656 680 q 647 685 657 680 q 619 693 636 689 q 580 702 602 698 q 537 705 558 705 q 460 689 498 705 q 388 644 422 673 q 323 575 353 615 q 271 487 293 535 q 236 385 249 439 q 224 274 224 331 m 648 873 q 581 886 614 873 q 518 913 548 899 q 461 941 488 928 q 417 954 435 954 q 400 952 408 954 q 384 945 391 951 q 373 926 377 939 q 368 891 368 913 l 271 891 q 283 962 271 932 q 315 1011 294 991 q 362 1040 335 1031 q 422 1050 390 1050 q 483 1037 454 1050 q 540 1010 513 1025 q 591 983 567 996 q 637 970 616 970 q 658 973 649 970 q 674 982 667 975 q 684 1000 680 988 q 687 1033 687 1013 l 783 1033 q 772 956 783 986 q 743 907 762 925 q 700 881 725 888 q 648 873 675 873 z "},"ä":{"ha":741,"x_min":119,"x_max":768,"o":"m 768 723 l 665 0 l 580 0 l 586 134 q 485 24 545 62 q 355 -14 425 -14 q 246 8 291 -14 q 173 70 201 31 q 132 160 145 109 q 119 271 119 212 q 133 383 119 323 q 172 500 146 442 q 235 610 198 557 q 318 704 272 663 q 420 768 365 744 q 538 792 475 792 q 586 787 559 792 q 640 775 613 783 q 691 758 667 767 q 732 741 715 749 l 768 723 m 224 274 q 233 181 224 220 q 262 118 243 142 q 311 82 281 94 q 380 71 340 71 q 447 85 414 71 q 506 120 479 99 q 554 165 533 141 q 586 207 574 189 l 656 680 q 647 685 657 680 q 619 693 636 689 q 580 702 602 698 q 537 705 558 705 q 460 689 498 705 q 388 644 422 673 q 323 575 353 615 q 271 487 293 535 q 236 385 249 439 q 224 274 224 331 m 445 975 q 437 938 445 956 q 417 906 430 920 q 389 883 405 892 q 357 875 374 875 q 309 895 327 875 q 292 946 291 916 q 299 982 292 964 q 319 1014 307 1000 q 348 1036 332 1027 q 382 1044 364 1044 q 428 1024 410 1044 q 445 974 445 1004 l 445 975 m 720 974 q 713 936 720 954 q 693 904 705 918 q 665 882 680 890 q 633 873 649 873 q 584 894 602 873 q 566 945 566 914 q 574 981 566 963 q 594 1013 581 999 q 623 1035 606 1026 q 656 1043 639 1043 q 703 1023 685 1043 q 720 972 720 1003 q 720 973 720 973 q 720 974 720 973 z "},"å":{"ha":741,"x_min":119,"x_max":768,"o":"m 768 723 l 665 0 l 580 0 l 586 134 q 485 24 545 62 q 355 -14 425 -14 q 246 8 291 -14 q 173 70 201 31 q 132 160 145 109 q 119 271 119 212 q 133 383 119 323 q 172 500 146 442 q 235 610 198 557 q 318 704 272 663 q 420 768 365 744 q 538 792 475 792 q 586 787 559 792 q 640 775 613 783 q 691 758 667 767 q 732 741 715 749 l 768 723 m 224 274 q 233 181 224 220 q 262 118 243 142 q 311 82 281 94 q 380 71 340 71 q 447 85 414 71 q 506 120 479 99 q 554 165 533 141 q 586 207 574 189 l 656 680 q 647 685 657 680 q 619 693 636 689 q 580 702 602 698 q 537 705 558 705 q 460 689 498 705 q 388 644 422 673 q 323 575 353 615 q 271 487 293 535 q 236 385 249 439 q 224 274 224 331 m 589 1088 q 556 1080 570 1088 q 531 1059 541 1072 q 514 1029 520 1046 q 509 995 509 1013 q 523 948 509 966 q 567 929 536 929 q 598 937 584 929 q 624 958 613 945 q 641 988 635 971 q 646 1022 646 1004 q 632 1069 646 1050 q 589 1088 617 1088 m 450 984 q 462 1045 450 1017 q 493 1096 473 1074 q 541 1130 513 1118 q 598 1143 568 1143 q 643 1134 623 1143 q 677 1110 663 1125 q 699 1074 691 1095 q 707 1030 707 1053 q 695 968 707 997 q 664 919 684 940 q 617 886 644 898 q 559 873 590 873 q 514 882 534 873 q 480 904 494 890 q 458 939 466 919 q 450 984 450 960 z "},"æ":{"ha":1181,"x_min":119,"x_max":1202,"o":"m 1100 69 q 1040 34 1072 49 q 975 7 1008 18 q 911 -9 943 -3 q 850 -14 879 -14 q 704 22 760 -14 q 618 125 648 58 q 561 70 593 95 q 493 26 528 45 q 421 -4 457 7 q 355 -14 385 -14 q 247 8 292 -14 q 174 68 202 30 q 133 159 146 107 q 119 271 119 211 q 133 385 119 326 q 173 503 146 445 q 236 613 199 561 q 322 706 274 666 q 428 769 370 745 q 552 792 486 792 q 655 781 611 792 q 727 756 699 770 q 769 732 755 743 q 781 722 783 722 q 871 773 822 755 q 978 792 920 792 q 1072 777 1030 792 q 1142 730 1114 762 q 1186 650 1171 699 q 1202 534 1202 601 q 1199 504 1202 518 q 1181 475 1196 489 q 1136 449 1166 462 q 1050 425 1105 437 q 911 401 995 412 q 705 378 827 389 q 699 321 701 347 q 696 271 696 295 q 745 120 696 168 q 878 71 793 71 q 978 95 928 71 q 1076 158 1027 119 l 1100 69 m 224 269 q 234 178 224 216 q 263 117 244 140 q 312 82 283 93 q 380 71 341 71 q 441 83 410 71 q 501 115 472 96 q 555 156 530 134 q 595 197 579 178 q 589 279 589 235 q 598 377 589 326 q 624 478 607 428 q 665 574 641 528 q 721 661 690 621 q 711 668 722 661 q 679 683 701 675 q 623 698 657 691 q 543 705 589 705 q 463 689 503 705 q 388 644 423 673 q 322 575 352 615 q 270 486 292 534 q 236 382 248 437 q 224 269 224 328 m 718 454 q 880 477 814 467 q 989 495 946 487 q 1056 511 1032 504 q 1090 524 1079 518 q 1103 536 1101 530 q 1105 547 1105 542 q 1070 665 1105 625 q 975 705 1036 705 q 885 688 926 705 q 811 639 844 671 q 754 561 778 607 q 718 454 730 514 z "},"ç":{"ha":670,"x_min":119,"x_max":736,"o":"m 119 281 q 151 492 119 397 q 236 653 182 587 q 360 756 290 720 q 509 792 431 792 q 632 772 574 792 q 736 709 689 751 l 688 624 q 655 654 675 640 q 611 681 635 669 q 561 699 587 692 q 510 706 535 706 q 411 683 454 706 q 336 622 368 660 q 284 536 304 585 q 252 439 263 488 q 238 356 242 396 q 233 281 233 316 q 276 122 233 174 q 392 71 318 71 q 472 81 435 71 q 545 111 509 92 q 581 133 563 121 q 616 159 598 145 l 636 76 q 379 -14 509 -14 q 278 3 326 -14 q 196 55 231 20 q 140 147 161 91 q 119 281 119 203 m 276 -357 q 276 -344 276 -351 q 277 -331 277 -338 l 279 -282 q 329 -302 304 -295 q 374 -313 353 -310 q 402 -315 389 -315 q 447 -308 429 -315 q 476 -288 465 -300 q 491 -262 487 -276 q 496 -237 496 -248 q 485 -209 496 -222 q 450 -185 473 -195 q 393 -168 427 -174 q 312 -161 359 -161 l 366 16 l 443 16 q 408 -66 420 -37 q 395 -101 396 -96 q 451 -106 420 -101 q 511 -124 483 -111 q 558 -161 538 -137 q 577 -223 577 -184 l 577 -222 q 562 -292 577 -260 q 522 -346 547 -323 q 465 -379 497 -368 q 397 -391 432 -391 q 331 -382 360 -391 q 276 -357 301 -373 z "},"è":{"ha":721,"x_min":119,"x_max":739,"o":"m 254 454 q 417 477 351 467 q 526 495 483 487 q 592 511 569 504 q 627 524 616 518 q 640 536 637 530 q 642 547 642 542 q 607 665 642 625 q 512 705 573 705 q 422 688 463 705 q 348 639 380 671 q 291 561 315 607 q 254 454 267 514 m 636 69 q 576 33 608 49 q 512 7 545 18 q 448 -9 479 -3 q 387 -14 416 -14 q 271 6 321 -14 q 187 64 220 26 q 136 157 153 102 q 119 279 119 211 q 130 393 119 334 q 162 509 140 452 q 215 618 183 566 q 288 708 246 669 q 382 769 330 747 q 496 792 434 792 q 680 730 621 792 q 739 534 739 667 q 735 504 739 518 q 718 475 732 489 q 672 449 703 462 q 587 425 642 437 q 448 401 532 412 q 242 378 363 389 q 235 321 237 347 q 233 271 233 295 q 281 120 233 168 q 414 71 329 71 q 514 95 465 71 q 612 158 564 119 l 636 69 m 522 892 l 474 892 l 316 1309 l 491 1309 l 522 892 z "},"é":{"ha":721,"x_min":119,"x_max":739,"o":"m 254 454 q 417 477 351 467 q 526 495 483 487 q 592 511 569 504 q 627 524 616 518 q 640 536 637 530 q 642 547 642 542 q 607 665 642 625 q 512 705 573 705 q 422 688 463 705 q 348 639 380 671 q 291 561 315 607 q 254 454 267 514 m 636 69 q 576 33 608 49 q 512 7 545 18 q 448 -9 479 -3 q 387 -14 416 -14 q 271 6 321 -14 q 187 64 220 26 q 136 157 153 102 q 119 279 119 211 q 130 393 119 334 q 162 509 140 452 q 215 618 183 566 q 288 708 246 669 q 382 769 330 747 q 496 792 434 792 q 680 730 621 792 q 739 534 739 667 q 735 504 739 518 q 718 475 732 489 q 672 449 703 462 q 587 425 642 437 q 448 401 532 412 q 242 378 363 389 q 235 321 237 347 q 233 271 233 295 q 281 120 233 168 q 414 71 329 71 q 514 95 465 71 q 612 158 564 119 l 636 69 m 519 873 l 432 873 l 562 1293 l 720 1293 l 519 873 z "},"ê":{"ha":721,"x_min":119,"x_max":739,"o":"m 254 454 q 417 477 351 467 q 526 495 483 487 q 592 511 569 504 q 627 524 616 518 q 640 536 637 530 q 642 547 642 542 q 607 665 642 625 q 512 705 573 705 q 422 688 463 705 q 348 639 380 671 q 291 561 315 607 q 254 454 267 514 m 636 69 q 576 33 608 49 q 512 7 545 18 q 448 -9 479 -3 q 387 -14 416 -14 q 271 6 321 -14 q 187 64 220 26 q 136 157 153 102 q 119 279 119 211 q 130 393 119 334 q 162 509 140 452 q 215 618 183 566 q 288 708 246 669 q 382 769 330 747 q 496 792 434 792 q 680 730 621 792 q 739 534 739 667 q 735 504 739 518 q 718 475 732 489 q 672 449 703 462 q 587 425 642 437 q 448 401 532 412 q 242 378 363 389 q 235 321 237 347 q 233 271 233 295 q 281 120 233 168 q 414 71 329 71 q 514 95 465 71 q 612 158 564 119 l 636 69 m 532 1228 l 605 1228 l 678 873 l 590 873 l 547 1088 l 415 873 l 311 873 l 532 1228 z "},"ë":{"ha":721,"x_min":119,"x_max":739,"o":"m 254 454 q 417 477 351 467 q 526 495 483 487 q 592 511 569 504 q 627 524 616 518 q 640 536 637 530 q 642 547 642 542 q 607 665 642 625 q 512 705 573 705 q 422 688 463 705 q 348 639 380 671 q 291 561 315 607 q 254 454 267 514 m 636 69 q 576 33 608 49 q 512 7 545 18 q 448 -9 479 -3 q 387 -14 416 -14 q 271 6 321 -14 q 187 64 220 26 q 136 157 153 102 q 119 279 119 211 q 130 393 119 334 q 162 509 140 452 q 215 618 183 566 q 288 708 246 669 q 382 769 330 747 q 496 792 434 792 q 680 730 621 792 q 739 534 739 667 q 735 504 739 518 q 718 475 732 489 q 672 449 703 462 q 587 425 642 437 q 448 401 532 412 q 242 378 363 389 q 235 321 237 347 q 233 271 233 295 q 281 120 233 168 q 414 71 329 71 q 514 95 465 71 q 612 158 564 119 l 636 69 m 431 975 q 423 938 431 956 q 403 906 416 920 q 375 883 391 892 q 343 875 359 875 q 295 895 313 875 q 277 946 277 916 q 285 982 277 964 q 305 1014 292 1000 q 334 1036 317 1027 q 368 1044 350 1044 q 413 1024 396 1044 q 431 974 431 1004 l 431 975 m 706 974 q 699 936 706 954 q 679 904 691 918 q 650 882 666 890 q 618 873 635 873 q 570 894 588 873 q 552 945 552 914 q 559 981 552 963 q 579 1013 567 999 q 608 1035 592 1026 q 642 1043 625 1043 q 688 1023 671 1043 q 705 972 706 1003 q 706 973 705 973 q 706 974 706 973 z "},"ì":{"ha":397,"x_min":142,"x_max":363,"o":"m 251 0 l 142 0 l 253 794 l 363 794 l 251 0 m 362 851 l 322 833 l 174 1203 l 332 1267 l 362 851 z "},"í":{"ha":397,"x_min":142,"x_max":593,"o":"m 251 0 l 142 0 l 253 794 l 363 794 l 251 0 m 323 820 l 295 838 l 464 1250 l 593 1185 l 323 820 z "},"î":{"ha":397,"x_min":144,"x_max":408,"o":"m 408 1020 q 402 991 408 1004 q 386 969 397 978 q 360 958 375 961 q 328 959 345 954 q 286 979 300 959 q 275 1027 273 998 q 281 1053 275 1040 q 298 1074 287 1065 q 324 1086 309 1082 q 357 1085 339 1090 q 396 1067 382 1085 q 408 1020 410 1048 m 248 753 l 361 753 l 262 122 l 248 -41 l 210 -52 q 215 -41 213 -48 l 144 -41 l 248 753 z "},"ï":{"ha":397,"x_min":116,"x_max":545,"o":"m 251 0 l 142 0 l 253 794 l 363 794 l 251 0 m 270 940 q 262 902 270 920 q 242 870 255 884 q 214 848 230 857 q 182 840 199 840 q 134 860 152 840 q 116 911 116 880 q 124 947 116 929 q 144 979 132 965 q 173 1001 157 992 q 207 1009 189 1009 q 253 989 235 1009 q 270 939 270 969 l 270 940 m 545 939 q 537 901 545 919 q 517 869 530 883 q 489 847 505 855 q 457 838 473 838 q 409 859 427 838 q 391 909 391 879 q 399 946 391 928 q 419 977 406 964 q 448 999 431 991 q 481 1008 464 1008 q 528 988 510 1008 q 545 937 545 968 l 545 939 z "},"ð":{"ha":795,"x_min":119,"x_max":821,"o":"m 223 271 q 225 226 223 247 q 233 186 228 205 q 365 80 260 80 q 449 99 408 80 q 525 155 490 117 q 585 249 559 193 q 621 380 610 304 q 626 429 624 404 q 627 482 628 454 q 612 577 628 540 q 571 636 595 614 q 518 667 547 659 q 466 675 490 675 q 377 656 415 675 q 313 604 340 636 q 269 529 286 571 q 241 443 251 488 q 227 353 231 397 q 223 271 223 309 m 119 278 q 130 396 119 337 q 159 510 140 456 q 208 612 179 565 q 273 694 236 659 q 356 748 311 728 q 454 768 401 768 q 518 758 488 768 q 575 732 549 748 q 621 697 602 717 q 652 659 641 678 q 624 788 645 725 q 571 913 604 850 l 421 860 l 408 926 l 537 972 q 480 1048 509 1015 q 423 1107 452 1082 l 480 1181 q 564 1104 525 1147 q 635 1006 602 1061 l 806 1068 l 821 1002 l 667 948 q 743 592 743 783 q 731 435 743 511 q 699 292 720 359 q 644 169 677 224 q 569 72 612 113 q 472 9 526 31 q 355 -14 419 -14 q 246 9 291 -14 q 173 72 201 32 q 132 164 145 111 q 119 278 119 217 z "},"ñ":{"ha":793,"x_min":105,"x_max":791,"o":"m 602 0 q 633 219 621 130 q 653 369 645 309 q 665 461 661 428 q 671 511 669 494 q 674 537 673 530 q 674 550 674 545 q 668 614 674 585 q 649 663 663 643 q 613 695 635 684 q 557 706 590 706 q 489 692 527 706 q 414 660 451 679 q 347 620 378 640 q 302 585 317 599 l 220 0 l 105 0 l 214 778 l 296 778 l 294 650 q 352 700 317 675 q 427 746 387 726 q 509 779 467 766 q 589 792 551 792 q 740 740 688 792 q 791 579 791 687 q 790 568 791 574 q 789 554 790 562 q 787 534 789 546 q 784 503 786 522 q 776 440 781 479 q 763 341 771 401 q 743 198 755 281 q 716 0 732 114 l 602 0 m 648 873 q 581 886 614 873 q 518 913 548 899 q 461 941 488 928 q 417 954 435 954 q 400 952 408 954 q 384 945 391 951 q 373 926 377 939 q 368 891 368 913 l 271 891 q 283 962 271 932 q 315 1011 294 991 q 362 1040 335 1031 q 422 1050 390 1050 q 483 1037 454 1050 q 540 1010 513 1025 q 591 983 567 996 q 637 970 616 970 q 658 973 649 970 q 674 982 667 975 q 684 1000 680 988 q 687 1033 687 1013 l 783 1033 q 772 956 783 986 q 743 907 762 925 q 700 881 725 888 q 648 873 675 873 z "},"ò":{"ha":780,"x_min":119,"x_max":795,"o":"m 119 290 q 131 413 119 352 q 164 531 142 475 q 221 634 187 587 q 299 717 254 682 q 399 772 343 752 q 522 792 455 792 q 617 780 576 792 q 690 747 659 768 q 741 697 720 726 q 773 635 761 669 q 790 566 785 602 q 795 494 795 530 q 763 287 795 380 q 676 126 731 193 q 547 22 621 59 q 393 -14 474 -14 q 281 7 332 -14 q 195 67 231 28 q 139 162 159 106 q 119 290 119 219 m 408 71 q 502 90 460 71 q 573 140 543 109 q 626 213 604 172 q 660 301 647 255 q 680 393 673 347 q 686 480 686 439 q 677 567 686 526 q 648 639 668 608 q 593 688 627 670 q 508 706 559 706 q 415 687 456 706 q 343 635 374 667 q 290 560 312 602 q 255 472 269 517 q 235 379 241 426 q 229 293 229 333 q 238 207 229 248 q 267 136 246 167 q 322 88 288 106 q 408 71 356 71 m 550 892 l 503 892 l 345 1309 l 519 1309 l 550 892 z "},"ó":{"ha":780,"x_min":119,"x_max":795,"o":"m 119 290 q 131 413 119 352 q 164 531 142 475 q 221 634 187 587 q 299 717 254 682 q 399 772 343 752 q 522 792 455 792 q 617 780 576 792 q 690 747 659 768 q 741 697 720 726 q 773 635 761 669 q 790 566 785 602 q 795 494 795 530 q 763 287 795 380 q 676 126 731 193 q 547 22 621 59 q 393 -14 474 -14 q 281 7 332 -14 q 195 67 231 28 q 139 162 159 106 q 119 290 119 219 m 408 71 q 502 90 460 71 q 573 140 543 109 q 626 213 604 172 q 660 301 647 255 q 680 393 673 347 q 686 480 686 439 q 677 567 686 526 q 648 639 668 608 q 593 688 627 670 q 508 706 559 706 q 415 687 456 706 q 343 635 374 667 q 290 560 312 602 q 255 472 269 517 q 235 379 241 426 q 229 293 229 333 q 238 207 229 248 q 267 136 246 167 q 322 88 288 106 q 408 71 356 71 m 548 873 l 460 873 l 591 1293 l 748 1293 l 548 873 z "},"ô":{"ha":780,"x_min":119,"x_max":795,"o":"m 119 290 q 131 413 119 352 q 164 531 142 475 q 221 634 187 587 q 299 717 254 682 q 399 772 343 752 q 522 792 455 792 q 617 780 576 792 q 690 747 659 768 q 741 697 720 726 q 773 635 761 669 q 790 566 785 602 q 795 494 795 530 q 763 287 795 380 q 676 126 731 193 q 547 22 621 59 q 393 -14 474 -14 q 281 7 332 -14 q 195 67 231 28 q 139 162 159 106 q 119 290 119 219 m 408 71 q 502 90 460 71 q 573 140 543 109 q 626 213 604 172 q 660 301 647 255 q 680 393 673 347 q 686 480 686 439 q 677 567 686 526 q 648 639 668 608 q 593 688 627 670 q 508 706 559 706 q 415 687 456 706 q 343 635 374 667 q 290 560 312 602 q 255 472 269 517 q 235 379 241 426 q 229 293 229 333 q 238 207 229 248 q 267 136 246 167 q 322 88 288 106 q 408 71 356 71 m 561 1228 l 633 1228 l 707 873 l 618 873 l 576 1088 l 444 873 l 340 873 l 561 1228 z "},"õ":{"ha":780,"x_min":119,"x_max":797,"o":"m 119 290 q 131 413 119 352 q 164 531 142 475 q 221 634 187 587 q 299 717 254 682 q 399 772 343 752 q 522 792 455 792 q 617 780 576 792 q 690 747 659 768 q 741 697 720 726 q 773 635 761 669 q 790 566 785 602 q 795 494 795 530 q 763 287 795 380 q 676 126 731 193 q 547 22 621 59 q 393 -14 474 -14 q 281 7 332 -14 q 195 67 231 28 q 139 162 159 106 q 119 290 119 219 m 408 71 q 502 90 460 71 q 573 140 543 109 q 626 213 604 172 q 660 301 647 255 q 680 393 673 347 q 686 480 686 439 q 677 567 686 526 q 648 639 668 608 q 593 688 627 670 q 508 706 559 706 q 415 687 456 706 q 343 635 374 667 q 290 560 312 602 q 255 472 269 517 q 235 379 241 426 q 229 293 229 333 q 238 207 229 248 q 267 136 246 167 q 322 88 288 106 q 408 71 356 71 m 662 873 q 595 886 629 873 q 532 913 562 899 q 476 941 502 928 q 431 954 450 954 q 414 952 422 954 q 398 945 406 951 q 387 926 391 939 q 382 891 382 913 l 286 891 q 297 962 286 932 q 329 1011 309 991 q 377 1040 349 1031 q 436 1050 404 1050 q 497 1037 468 1050 q 554 1010 527 1025 q 606 983 581 996 q 652 970 630 970 q 672 973 663 970 q 688 982 682 975 q 698 1000 694 988 q 701 1033 701 1013 l 797 1033 q 786 956 797 986 q 758 907 776 925 q 714 881 739 888 q 662 873 690 873 z "},"ö":{"ha":780,"x_min":119,"x_max":795,"o":"m 119 290 q 131 413 119 352 q 164 531 142 475 q 221 634 187 587 q 299 717 254 682 q 399 772 343 752 q 522 792 455 792 q 617 780 576 792 q 690 747 659 768 q 741 697 720 726 q 773 635 761 669 q 790 566 785 602 q 795 494 795 530 q 763 287 795 380 q 676 126 731 193 q 547 22 621 59 q 393 -14 474 -14 q 281 7 332 -14 q 195 67 231 28 q 139 162 159 106 q 119 290 119 219 m 408 71 q 502 90 460 71 q 573 140 543 109 q 626 213 604 172 q 660 301 647 255 q 680 393 673 347 q 686 480 686 439 q 677 567 686 526 q 648 639 668 608 q 593 688 627 670 q 508 706 559 706 q 415 687 456 706 q 343 635 374 667 q 290 560 312 602 q 255 472 269 517 q 235 379 241 426 q 229 293 229 333 q 238 207 229 248 q 267 136 246 167 q 322 88 288 106 q 408 71 356 71 m 459 975 q 452 938 459 956 q 432 906 444 920 q 404 883 419 892 q 372 875 388 875 q 323 895 341 875 q 306 946 305 916 q 313 982 306 964 q 333 1014 321 1000 q 362 1036 346 1027 q 396 1044 378 1044 q 442 1024 425 1044 q 459 974 459 1004 l 459 975 m 734 974 q 727 936 734 954 q 707 904 720 918 q 679 882 694 890 q 647 873 663 873 q 598 894 616 873 q 581 945 581 914 q 588 981 581 963 q 608 1013 595 999 q 637 1035 621 1026 q 671 1043 653 1043 q 717 1023 699 1043 q 734 972 734 1003 q 734 973 734 973 q 734 974 734 973 z "},"÷":{"ha":463,"x_min":106,"x_max":365,"o":"m 167 410 l 195 583 l 365 583 l 337 410 l 167 410 m 106 0 l 134 173 l 304 173 l 276 0 l 106 0 z "},"ø":{"ha":731,"x_min":119,"x_max":747,"o":"m 342 78 q 369 73 355 75 q 395 72 382 72 q 467 85 435 72 q 524 119 499 98 q 567 170 549 141 q 598 230 585 199 q 620 295 611 262 q 633 358 628 328 q 639 416 637 389 q 641 462 641 443 q 630 562 641 519 q 595 632 619 605 l 342 78 m 119 289 q 127 381 119 330 q 151 486 134 433 q 196 589 168 538 q 266 679 224 640 q 362 742 307 718 q 489 766 417 766 q 593 749 549 766 l 640 850 l 686 827 l 639 726 q 722 614 696 683 q 747 457 748 545 q 746 419 747 438 q 743 382 745 401 q 706 234 733 305 q 633 107 679 163 q 524 19 588 52 q 378 -14 460 -14 q 339 -12 357 -14 q 304 -7 321 -10 l 250 -123 l 202 -98 l 252 12 q 192 57 217 29 q 151 122 167 85 q 127 200 134 158 q 119 289 119 243 m 553 665 q 519 675 536 671 q 483 679 501 679 q 387 656 428 679 q 317 597 346 633 q 270 515 288 561 q 241 425 251 470 q 229 353 232 388 q 225 289 225 317 q 294 100 225 157 l 553 665 z "},"ù":{"ha":784,"x_min":138,"x_max":810,"o":"m 327 778 q 323 752 327 780 q 313 680 319 725 q 299 578 307 635 q 284 464 292 521 q 270 356 277 407 q 258 271 263 304 q 254 237 256 250 q 253 222 253 224 q 268 134 253 168 q 309 86 283 101 q 374 71 336 71 q 494 99 436 71 q 613 183 551 128 l 696 778 l 810 778 l 702 0 l 616 0 q 617 59 617 31 q 617 119 616 88 q 488 18 551 51 q 361 -14 425 -14 q 195 39 251 -14 q 138 202 138 92 q 140 219 138 205 q 144 255 141 233 q 150 306 146 277 q 157 367 153 334 q 169 457 163 410 q 181 551 175 505 q 193 639 187 597 q 203 712 199 681 q 210 762 207 744 q 212 778 212 780 l 327 778 m 568 893 l 520 893 l 362 1310 l 537 1310 l 568 893 z "},"ú":{"ha":784,"x_min":138,"x_max":810,"o":"m 327 778 q 323 752 327 780 q 313 680 319 725 q 299 578 307 635 q 284 464 292 521 q 270 356 277 407 q 258 271 263 304 q 254 237 256 250 q 253 222 253 224 q 268 134 253 168 q 309 86 283 101 q 374 71 336 71 q 494 99 436 71 q 613 183 551 128 l 696 778 l 810 778 l 702 0 l 616 0 q 617 59 617 31 q 617 119 616 88 q 488 18 551 51 q 361 -14 425 -14 q 195 39 251 -14 q 138 202 138 92 q 140 219 138 205 q 144 255 141 233 q 150 306 146 277 q 157 367 153 334 q 169 457 163 410 q 181 551 175 505 q 193 639 187 597 q 203 712 199 681 q 210 762 207 744 q 212 778 212 780 l 327 778 m 566 874 l 478 874 l 608 1293 l 766 1293 l 566 874 z "},"û":{"ha":784,"x_min":138,"x_max":810,"o":"m 327 778 q 323 752 327 780 q 313 680 319 725 q 299 578 307 635 q 284 464 292 521 q 270 356 277 407 q 258 271 263 304 q 254 237 256 250 q 253 222 253 224 q 268 134 253 168 q 309 86 283 101 q 374 71 336 71 q 494 99 436 71 q 613 183 551 128 l 696 778 l 810 778 l 702 0 l 616 0 q 617 59 617 31 q 617 119 616 88 q 488 18 551 51 q 361 -14 425 -14 q 195 39 251 -14 q 138 202 138 92 q 140 219 138 205 q 144 255 141 233 q 150 306 146 277 q 157 367 153 334 q 169 457 163 410 q 181 551 175 505 q 193 639 187 597 q 203 712 199 681 q 210 762 207 744 q 212 778 212 780 l 327 778 m 578 1229 l 650 1229 l 724 873 l 635 873 l 593 1089 l 460 873 l 357 873 l 578 1229 z "},"ü":{"ha":784,"x_min":138,"x_max":810,"o":"m 327 778 q 323 752 327 780 q 313 680 319 725 q 299 578 307 635 q 284 464 292 521 q 270 356 277 407 q 258 271 263 304 q 254 237 256 250 q 253 222 253 224 q 268 134 253 168 q 309 86 283 101 q 374 71 336 71 q 494 99 436 71 q 613 183 551 128 l 696 778 l 810 778 l 702 0 l 616 0 q 617 59 617 31 q 617 119 616 88 q 488 18 551 51 q 361 -14 425 -14 q 195 39 251 -14 q 138 202 138 92 q 140 219 138 205 q 144 255 141 233 q 150 306 146 277 q 157 367 153 334 q 169 457 163 410 q 181 551 175 505 q 193 639 187 597 q 203 712 199 681 q 210 762 207 744 q 212 778 212 780 l 327 778 m 476 976 q 469 938 476 956 q 449 906 461 920 q 420 884 436 892 q 389 876 405 876 q 340 896 358 876 q 323 947 322 916 q 330 983 323 965 q 350 1015 338 1001 q 379 1037 363 1028 q 413 1045 395 1045 q 459 1025 441 1045 q 476 975 476 1005 l 476 976 m 751 975 q 744 937 751 955 q 724 905 736 919 q 696 883 711 891 q 664 874 680 874 q 615 895 633 874 q 597 945 597 915 q 605 982 597 964 q 625 1013 612 1000 q 654 1035 637 1027 q 688 1044 670 1044 q 734 1024 716 1044 q 751 973 751 1004 q 751 974 751 974 q 751 975 751 974 z "},"ý":{"ha":690,"x_min":55,"x_max":785,"o":"m 55 -230 q 140 -206 106 -223 q 188 -176 167 -194 q 228 -132 209 -157 q 264 -71 246 -106 q 304 12 283 -35 q 294 61 299 37 q 283 112 289 86 l 145 778 l 256 778 l 379 157 l 667 778 l 785 778 l 428 64 q 397 0 413 35 q 364 -69 382 -34 q 326 -138 347 -104 q 282 -201 306 -172 q 229 -254 258 -231 q 165 -292 200 -277 q 72 -311 125 -307 l 55 -230 z "},"þ":{"ha":791,"x_min":107,"x_max":807,"o":"m 807 473 q 799 369 807 424 q 774 260 791 314 q 730 156 757 205 q 666 69 703 107 q 581 9 629 31 q 472 -14 532 -14 q 273 82 324 -14 l 216 -317 l 107 -332 l 302 1061 l 409 1061 l 350 638 q 459 732 399 698 q 583 766 519 766 q 688 742 645 766 q 757 677 730 718 q 795 584 783 637 q 807 473 807 530 m 484 79 q 563 98 529 79 q 621 150 597 118 q 661 224 645 182 q 686 311 677 267 q 699 399 695 355 q 703 479 703 443 q 566 673 703 673 q 497 662 530 673 q 435 633 464 650 q 382 597 406 616 q 345 562 359 577 l 288 167 q 306 149 291 163 q 345 119 320 135 q 405 91 370 104 q 484 79 440 79 z "},"ÿ":{"ha":690,"x_min":55,"x_max":785,"o":"m 55 -230 q 140 -206 106 -223 q 188 -176 167 -194 q 228 -132 209 -157 q 264 -71 246 -106 q 304 12 283 -35 q 294 61 299 37 q 283 112 289 86 l 145 778 l 256 778 l 379 157 l 667 778 l 785 778 l 428 64 q 397 0 413 35 q 364 -69 382 -34 q 326 -138 347 -104 q 282 -201 306 -172 q 229 -254 258 -231 q 165 -292 200 -277 q 72 -311 125 -307 l 55 -230 z "},"Ā":{"ha":881,"x_min":29,"x_max":866,"o":"m 610 1010 l 481 730 l 295 326 l 704 326 l 646 734 l 610 1010 m 524 1069 l 712 1069 l 866 0 l 749 0 l 713 259 l 264 259 l 145 0 l 29 0 l 524 1069 z "},"ā":{"ha":745,"x_min":119,"x_max":768,"o":"m 768 723 l 665 0 l 580 0 l 586 134 q 485 24 545 62 q 355 -14 425 -14 q 246 8 291 -14 q 173 70 201 31 q 132 160 145 109 q 119 271 119 212 q 133 383 119 323 q 172 500 146 442 q 235 610 198 557 q 318 704 272 663 q 420 768 365 744 q 538 792 475 792 q 586 787 559 792 q 640 775 613 783 q 691 758 667 767 q 732 741 715 749 l 768 723 m 224 274 q 233 181 224 220 q 262 118 243 142 q 311 82 281 94 q 380 71 340 71 q 447 85 414 71 q 506 120 479 99 q 554 165 533 141 q 586 207 574 189 l 656 680 q 647 685 657 680 q 619 693 636 689 q 580 702 602 698 q 537 705 558 705 q 460 689 498 705 q 388 644 422 673 q 323 575 353 615 q 271 487 293 535 q 236 385 249 439 q 224 274 224 331 z "},"Ă":{"ha":881,"x_min":29,"x_max":866,"o":"m 610 1010 l 481 730 l 295 326 l 704 326 l 646 734 l 610 1010 m 524 1069 l 712 1069 l 866 0 l 749 0 l 713 259 l 264 259 l 145 0 l 29 0 l 524 1069 z "},"ă":{"ha":745,"x_min":119,"x_max":768,"o":"m 768 723 l 665 0 l 580 0 l 586 134 q 485 24 545 62 q 355 -14 425 -14 q 246 8 291 -14 q 173 70 201 31 q 132 160 145 109 q 119 271 119 212 q 133 383 119 323 q 172 500 146 442 q 235 610 198 557 q 318 704 272 663 q 420 768 365 744 q 538 792 475 792 q 586 787 559 792 q 640 775 613 783 q 691 758 667 767 q 732 741 715 749 l 768 723 m 224 274 q 233 181 224 220 q 262 118 243 142 q 311 82 281 94 q 380 71 340 71 q 447 85 414 71 q 506 120 479 99 q 554 165 533 141 q 586 207 574 189 l 656 680 q 647 685 657 680 q 619 693 636 689 q 580 702 602 698 q 537 705 558 705 q 460 689 498 705 q 388 644 422 673 q 323 575 353 615 q 271 487 293 535 q 236 385 249 439 q 224 274 224 331 z "},"Ą":{"ha":881,"x_min":29,"x_max":866,"o":"m 610 1010 l 481 730 l 295 326 l 704 326 l 646 734 l 610 1010 m 524 1069 l 712 1069 l 866 0 l 749 0 l 713 259 l 264 259 l 145 0 l 29 0 l 524 1069 z "},"ą":{"ha":745,"x_min":119,"x_max":768,"o":"m 768 723 l 665 0 l 580 0 l 586 134 q 485 24 545 62 q 355 -14 425 -14 q 246 8 291 -14 q 173 70 201 31 q 132 160 145 109 q 119 271 119 212 q 133 383 119 323 q 172 500 146 442 q 235 610 198 557 q 318 704 272 663 q 420 768 365 744 q 538 792 475 792 q 586 787 559 792 q 640 775 613 783 q 691 758 667 767 q 732 741 715 749 l 768 723 m 224 274 q 233 181 224 220 q 262 118 243 142 q 311 82 281 94 q 380 71 340 71 q 447 85 414 71 q 506 120 479 99 q 554 165 533 141 q 586 207 574 189 l 656 680 q 647 685 657 680 q 619 693 636 689 q 580 702 602 698 q 537 705 558 705 q 460 689 498 705 q 388 644 422 673 q 323 575 353 615 q 271 487 293 535 q 236 385 249 439 q 224 274 224 331 z "},"Ć":{"ha":795,"x_min":149,"x_max":925,"o":"m 149 359 q 164 543 149 452 q 209 714 179 633 q 281 865 238 795 q 380 984 324 934 q 504 1063 436 1034 q 651 1091 572 1091 q 705 1090 678 1091 q 764 1083 732 1088 q 835 1066 796 1077 q 925 1038 874 1056 l 882 944 q 812 969 843 960 q 756 984 781 979 q 709 991 730 989 q 668 993 688 993 q 540 967 597 993 q 439 898 483 942 q 363 794 395 854 q 311 664 332 734 q 281 518 291 594 q 272 367 272 443 q 333 142 272 214 q 513 71 393 71 q 619 89 553 71 q 767 143 685 108 l 787 53 q 712 23 748 37 q 642 -3 677 8 q 571 -21 607 -14 q 497 -28 536 -28 q 344 -2 410 -28 q 235 73 279 23 q 170 194 192 122 q 149 359 149 267 z "},"ć":{"ha":668,"x_min":119,"x_max":736,"o":"m 119 281 q 151 492 119 397 q 236 653 182 587 q 360 756 290 720 q 509 792 431 792 q 632 772 574 792 q 736 709 689 751 l 688 624 q 655 654 675 640 q 611 681 635 669 q 561 699 587 692 q 510 706 535 706 q 411 683 454 706 q 336 622 368 660 q 284 536 304 585 q 252 439 263 488 q 238 356 242 396 q 233 281 233 316 q 276 122 233 174 q 392 71 318 71 q 472 81 435 71 q 545 111 509 92 q 581 133 563 121 q 616 159 598 145 l 636 76 q 379 -14 509 -14 q 278 3 326 -14 q 196 55 231 20 q 140 147 161 91 q 119 281 119 203 z "},"Ĉ":{"ha":795,"x_min":149,"x_max":925,"o":"m 149 359 q 164 543 149 452 q 209 714 179 633 q 281 865 238 795 q 380 984 324 934 q 504 1063 436 1034 q 651 1091 572 1091 q 705 1090 678 1091 q 764 1083 732 1088 q 835 1066 796 1077 q 925 1038 874 1056 l 882 944 q 812 969 843 960 q 756 984 781 979 q 709 991 730 989 q 668 993 688 993 q 540 967 597 993 q 439 898 483 942 q 363 794 395 854 q 311 664 332 734 q 281 518 291 594 q 272 367 272 443 q 333 142 272 214 q 513 71 393 71 q 619 89 553 71 q 767 143 685 108 l 787 53 q 712 23 748 37 q 642 -3 677 8 q 571 -21 607 -14 q 497 -28 536 -28 q 344 -2 410 -28 q 235 73 279 23 q 170 194 192 122 q 149 359 149 267 z "},"ĉ":{"ha":668,"x_min":119,"x_max":736,"o":"m 119 281 q 151 492 119 397 q 236 653 182 587 q 360 756 290 720 q 509 792 431 792 q 632 772 574 792 q 736 709 689 751 l 688 624 q 655 654 675 640 q 611 681 635 669 q 561 699 587 692 q 510 706 535 706 q 411 683 454 706 q 336 622 368 660 q 284 536 304 585 q 252 439 263 488 q 238 356 242 396 q 233 281 233 316 q 276 122 233 174 q 392 71 318 71 q 472 81 435 71 q 545 111 509 92 q 581 133 563 121 q 616 159 598 145 l 636 76 q 379 -14 509 -14 q 278 3 326 -14 q 196 55 231 20 q 140 147 161 91 q 119 281 119 203 z "},"Ċ":{"ha":795,"x_min":149,"x_max":925,"o":"m 149 359 q 164 543 149 452 q 209 714 179 633 q 281 865 238 795 q 380 984 324 934 q 504 1063 436 1034 q 651 1091 572 1091 q 705 1090 678 1091 q 764 1083 732 1088 q 835 1066 796 1077 q 925 1038 874 1056 l 882 944 q 812 969 843 960 q 756 984 781 979 q 709 991 730 989 q 668 993 688 993 q 540 967 597 993 q 439 898 483 942 q 363 794 395 854 q 311 664 332 734 q 281 518 291 594 q 272 367 272 443 q 333 142 272 214 q 513 71 393 71 q 619 89 553 71 q 767 143 685 108 l 787 53 q 712 23 748 37 q 642 -3 677 8 q 571 -21 607 -14 q 497 -28 536 -28 q 344 -2 410 -28 q 235 73 279 23 q 170 194 192 122 q 149 359 149 267 z "},"ċ":{"ha":668,"x_min":119,"x_max":736,"o":"m 119 281 q 151 492 119 397 q 236 653 182 587 q 360 756 290 720 q 509 792 431 792 q 632 772 574 792 q 736 709 689 751 l 688 624 q 655 654 675 640 q 611 681 635 669 q 561 699 587 692 q 510 706 535 706 q 411 683 454 706 q 336 622 368 660 q 284 536 304 585 q 252 439 263 488 q 238 356 242 396 q 233 281 233 316 q 276 122 233 174 q 392 71 318 71 q 472 81 435 71 q 545 111 509 92 q 581 133 563 121 q 616 159 598 145 l 636 76 q 379 -14 509 -14 q 278 3 326 -14 q 196 55 231 20 q 140 147 161 91 q 119 281 119 203 z "},"Č":{"ha":795,"x_min":149,"x_max":925,"o":"m 149 359 q 164 543 149 452 q 209 714 179 633 q 281 865 238 795 q 380 984 324 934 q 504 1063 436 1034 q 651 1091 572 1091 q 705 1090 678 1091 q 764 1083 732 1088 q 835 1066 796 1077 q 925 1038 874 1056 l 882 944 q 812 969 843 960 q 756 984 781 979 q 709 991 730 989 q 668 993 688 993 q 540 967 597 993 q 439 898 483 942 q 363 794 395 854 q 311 664 332 734 q 281 518 291 594 q 272 367 272 443 q 333 142 272 214 q 513 71 393 71 q 619 89 553 71 q 767 143 685 108 l 787 53 q 712 23 748 37 q 642 -3 677 8 q 571 -21 607 -14 q 497 -28 536 -28 q 344 -2 410 -28 q 235 73 279 23 q 170 194 192 122 q 149 359 149 267 z "},"č":{"ha":668,"x_min":119,"x_max":736,"o":"m 119 281 q 151 492 119 397 q 236 653 182 587 q 360 756 290 720 q 509 792 431 792 q 632 772 574 792 q 736 709 689 751 l 688 624 q 655 654 675 640 q 611 681 635 669 q 561 699 587 692 q 510 706 535 706 q 411 683 454 706 q 336 622 368 660 q 284 536 304 585 q 252 439 263 488 q 238 356 242 396 q 233 281 233 316 q 276 122 233 174 q 392 71 318 71 q 472 81 435 71 q 545 111 509 92 q 581 133 563 121 q 616 159 598 145 l 636 76 q 379 -14 509 -14 q 278 3 326 -14 q 196 55 231 20 q 140 147 161 91 q 119 281 119 203 z "},"Ď":{"ha":913,"x_min":100,"x_max":933,"o":"m 814 669 q 799 808 814 750 q 752 903 783 866 q 674 958 722 941 q 563 976 627 976 l 353 976 l 228 94 l 458 94 q 562 111 516 94 q 644 157 608 127 q 707 227 680 187 q 752 312 733 267 q 783 405 771 357 q 802 501 795 454 q 811 591 808 548 q 814 669 814 634 m 933 666 q 930 581 933 629 q 918 479 927 533 q 894 369 909 425 q 853 259 878 313 q 791 159 827 206 q 705 77 755 112 q 591 21 656 41 q 446 0 527 0 l 100 0 l 249 1069 l 576 1069 q 843 970 753 1069 q 933 666 933 871 z "},"ď":{"ha":1256,"x_min":120,"x_max":1116,"o":"m 460 792 q 526 779 496 792 q 580 748 556 766 q 621 708 604 729 q 648 669 638 686 l 709 1112 l 819 1120 l 661 0 l 588 0 l 589 124 q 536 69 565 94 q 476 25 507 44 q 412 -4 445 7 q 347 -14 379 -14 q 241 9 284 -14 q 171 74 197 33 q 132 168 144 115 q 120 282 120 222 q 129 388 120 331 q 155 502 137 445 q 200 611 172 558 q 265 704 227 663 q 351 768 302 744 q 460 792 399 792 m 222 273 q 224 239 222 256 q 229 203 225 221 q 242 154 233 178 q 266 111 251 130 q 304 82 281 93 q 359 71 327 71 q 427 83 394 71 q 490 114 460 96 q 542 153 519 132 q 581 191 566 174 q 604 352 594 285 q 620 465 613 419 q 630 537 626 510 q 635 577 633 564 q 638 594 637 591 q 638 596 638 597 q 633 604 639 595 q 616 624 627 612 q 589 650 605 635 q 552 676 572 664 q 506 697 531 689 q 452 705 481 705 q 373 682 407 705 q 313 620 338 658 q 270 534 287 582 q 242 439 252 487 q 227 347 231 391 q 222 273 222 303 m 924 878 l 941 1072 l 1116 1072 l 1100 879 q 1084 816 1097 843 q 1050 769 1072 789 q 998 734 1029 749 q 927 709 967 720 l 906 772 q 950 790 933 781 q 978 812 967 800 q 995 840 989 824 q 1004 878 1000 856 l 924 878 z "},"Đ":{"ha":910,"x_min":81,"x_max":933,"o":"m 814 669 q 799 808 814 750 q 752 903 783 866 q 674 958 722 941 q 563 976 627 976 l 353 976 l 228 94 l 458 94 q 562 111 516 94 q 644 157 608 127 q 707 227 680 187 q 752 312 733 267 q 783 405 771 357 q 802 501 795 454 q 811 591 808 548 q 814 669 814 634 m 933 666 q 930 581 933 629 q 918 479 927 533 q 894 369 909 425 q 853 259 878 313 q 791 159 827 206 q 705 77 755 112 q 591 21 656 41 q 446 0 527 0 l 100 0 l 249 1069 l 576 1069 q 843 970 753 1069 q 933 666 933 871 m 511 552 l 81 552 l 94 652 l 525 652 l 511 552 z "},"đ":{"ha":743,"x_min":120,"x_max":869,"o":"m 460 792 q 526 779 496 792 q 580 748 556 766 q 621 708 604 729 q 648 669 638 686 l 709 1112 l 819 1120 l 661 0 l 588 0 l 589 124 q 536 69 565 94 q 476 25 507 44 q 412 -4 445 7 q 347 -14 379 -14 q 241 9 284 -14 q 171 74 197 33 q 132 168 144 115 q 120 282 120 222 q 129 388 120 331 q 155 502 137 445 q 200 611 172 558 q 265 704 227 663 q 351 768 302 744 q 460 792 399 792 m 222 273 q 224 239 222 256 q 229 203 225 221 q 242 154 233 178 q 266 111 251 130 q 304 82 281 93 q 359 71 327 71 q 427 83 394 71 q 490 114 460 96 q 542 153 519 132 q 581 191 566 174 q 604 352 594 285 q 620 465 613 419 q 630 537 626 510 q 635 577 633 564 q 638 594 637 591 q 638 596 638 597 q 633 604 639 595 q 616 624 627 612 q 589 650 605 635 q 552 676 572 664 q 506 697 531 689 q 452 705 481 705 q 373 682 407 705 q 313 620 338 658 q 270 534 287 582 q 242 439 252 487 q 227 347 231 391 q 222 273 222 303 m 857 864 l 496 864 l 508 948 l 869 948 l 857 864 z "},"Ē":{"ha":736,"x_min":100,"x_max":860,"o":"m 718 0 l 100 0 l 250 1069 l 860 1069 l 846 976 l 354 976 l 301 602 l 731 602 l 721 528 l 291 528 l 230 94 l 730 94 l 718 0 z "},"ē":{"ha":719,"x_min":119,"x_max":739,"o":"m 254 454 q 417 477 351 467 q 526 495 483 487 q 592 511 569 504 q 627 524 616 518 q 640 536 637 530 q 642 547 642 542 q 607 665 642 625 q 512 705 573 705 q 422 688 463 705 q 348 639 380 671 q 291 561 315 607 q 254 454 267 514 m 636 69 q 576 33 608 49 q 512 7 545 18 q 448 -9 479 -3 q 387 -14 416 -14 q 271 6 321 -14 q 187 64 220 26 q 136 157 153 102 q 119 279 119 211 q 130 393 119 334 q 162 509 140 452 q 215 618 183 566 q 288 708 246 669 q 382 769 330 747 q 496 792 434 792 q 680 730 621 792 q 739 534 739 667 q 735 504 739 518 q 718 475 732 489 q 672 449 703 462 q 587 425 642 437 q 448 401 532 412 q 242 378 363 389 q 235 321 237 347 q 233 271 233 295 q 281 120 233 168 q 414 71 329 71 q 514 95 465 71 q 612 158 564 119 l 636 69 z "},"Ĕ":{"ha":736,"x_min":100,"x_max":860,"o":"m 718 0 l 100 0 l 250 1069 l 860 1069 l 846 976 l 354 976 l 301 602 l 731 602 l 721 528 l 291 528 l 230 94 l 730 94 l 718 0 z "},"ĕ":{"ha":719,"x_min":119,"x_max":739,"o":"m 254 454 q 417 477 351 467 q 526 495 483 487 q 592 511 569 504 q 627 524 616 518 q 640 536 637 530 q 642 547 642 542 q 607 665 642 625 q 512 705 573 705 q 422 688 463 705 q 348 639 380 671 q 291 561 315 607 q 254 454 267 514 m 636 69 q 576 33 608 49 q 512 7 545 18 q 448 -9 479 -3 q 387 -14 416 -14 q 271 6 321 -14 q 187 64 220 26 q 136 157 153 102 q 119 279 119 211 q 130 393 119 334 q 162 509 140 452 q 215 618 183 566 q 288 708 246 669 q 382 769 330 747 q 496 792 434 792 q 680 730 621 792 q 739 534 739 667 q 735 504 739 518 q 718 475 732 489 q 672 449 703 462 q 587 425 642 437 q 448 401 532 412 q 242 378 363 389 q 235 321 237 347 q 233 271 233 295 q 281 120 233 168 q 414 71 329 71 q 514 95 465 71 q 612 158 564 119 l 636 69 z "},"Ė":{"ha":736,"x_min":100,"x_max":860,"o":"m 718 0 l 100 0 l 250 1069 l 860 1069 l 846 976 l 354 976 l 301 602 l 731 602 l 721 528 l 291 528 l 230 94 l 730 94 l 718 0 z "},"ė":{"ha":719,"x_min":119,"x_max":739,"o":"m 254 454 q 417 477 351 467 q 526 495 483 487 q 592 511 569 504 q 627 524 616 518 q 640 536 637 530 q 642 547 642 542 q 607 665 642 625 q 512 705 573 705 q 422 688 463 705 q 348 639 380 671 q 291 561 315 607 q 254 454 267 514 m 636 69 q 576 33 608 49 q 512 7 545 18 q 448 -9 479 -3 q 387 -14 416 -14 q 271 6 321 -14 q 187 64 220 26 q 136 157 153 102 q 119 279 119 211 q 130 393 119 334 q 162 509 140 452 q 215 618 183 566 q 288 708 246 669 q 382 769 330 747 q 496 792 434 792 q 680 730 621 792 q 739 534 739 667 q 735 504 739 518 q 718 475 732 489 q 672 449 703 462 q 587 425 642 437 q 448 401 532 412 q 242 378 363 389 q 235 321 237 347 q 233 271 233 295 q 281 120 233 168 q 414 71 329 71 q 514 95 465 71 q 612 158 564 119 l 636 69 z "},"Ę":{"ha":736,"x_min":100,"x_max":860,"o":"m 718 0 l 100 0 l 250 1069 l 860 1069 l 846 976 l 354 976 l 301 602 l 731 602 l 721 528 l 291 528 l 230 94 l 730 94 l 718 0 z "},"ę":{"ha":719,"x_min":119,"x_max":739,"o":"m 254 454 q 417 477 351 467 q 526 495 483 487 q 592 511 569 504 q 627 524 616 518 q 640 536 637 530 q 642 547 642 542 q 607 665 642 625 q 512 705 573 705 q 422 688 463 705 q 348 639 380 671 q 291 561 315 607 q 254 454 267 514 m 636 69 q 576 33 608 49 q 512 7 545 18 q 448 -9 479 -3 q 387 -14 416 -14 q 271 6 321 -14 q 187 64 220 26 q 136 157 153 102 q 119 279 119 211 q 130 393 119 334 q 162 509 140 452 q 215 618 183 566 q 288 708 246 669 q 382 769 330 747 q 496 792 434 792 q 680 730 621 792 q 739 534 739 667 q 735 504 739 518 q 718 475 732 489 q 672 449 703 462 q 587 425 642 437 q 448 401 532 412 q 242 378 363 389 q 235 321 237 347 q 233 271 233 295 q 281 120 233 168 q 414 71 329 71 q 514 95 465 71 q 612 158 564 119 l 636 69 z "},"Ě":{"ha":732,"x_min":100,"x_max":860,"o":"m 718 0 l 100 0 l 250 1069 l 860 1069 l 846 976 l 354 976 l 301 602 l 731 602 l 721 528 l 291 528 l 230 94 l 730 94 l 718 0 m 551 1151 l 478 1151 l 412 1506 l 500 1506 l 543 1291 l 675 1506 l 779 1506 l 551 1151 z "},"ě":{"ha":721,"x_min":119,"x_max":739,"o":"m 254 454 q 417 477 351 467 q 526 495 483 487 q 592 511 569 504 q 627 524 616 518 q 640 536 637 530 q 642 547 642 542 q 607 665 642 625 q 512 705 573 705 q 422 688 463 705 q 348 639 380 671 q 291 561 315 607 q 254 454 267 514 m 636 69 q 576 33 608 49 q 512 7 545 18 q 448 -9 479 -3 q 387 -14 416 -14 q 271 6 321 -14 q 187 64 220 26 q 136 157 153 102 q 119 279 119 211 q 130 393 119 334 q 162 509 140 452 q 215 618 183 566 q 288 708 246 669 q 382 769 330 747 q 496 792 434 792 q 680 730 621 792 q 739 534 739 667 q 735 504 739 518 q 718 475 732 489 q 672 449 703 462 q 587 425 642 437 q 448 401 532 412 q 242 378 363 389 q 235 321 237 347 q 233 271 233 295 q 281 120 233 168 q 414 71 329 71 q 514 95 465 71 q 612 158 564 119 l 636 69 m 500 873 l 428 873 l 362 1228 l 450 1228 l 492 1013 l 625 1228 l 729 1228 l 500 873 z "},"Ĝ":{"ha":939,"x_min":149,"x_max":947,"o":"m 149 374 q 154 478 149 422 q 171 594 159 534 q 204 713 184 653 q 254 828 224 773 q 323 931 283 884 q 416 1015 363 979 q 534 1071 469 1050 q 681 1091 600 1091 q 727 1088 700 1091 q 787 1076 753 1086 q 861 1049 821 1067 q 947 1000 901 1031 l 904 913 q 822 952 857 937 q 759 976 786 967 q 710 989 731 985 q 672 993 689 993 q 558 975 609 993 q 467 924 507 956 q 397 850 427 892 q 345 759 367 807 q 309 658 323 710 q 286 556 294 606 q 273 459 277 506 q 270 376 270 413 q 286 237 270 295 q 335 142 302 179 q 414 87 367 104 q 522 70 461 70 q 637 84 588 70 q 720 125 686 99 q 773 187 754 151 q 797 264 792 222 q 797 262 797 263 q 796 260 796 262 l 823 465 l 559 465 l 572 548 l 941 548 l 865 0 l 803 0 l 803 117 q 766 69 789 94 q 707 23 743 44 q 620 -13 671 1 q 501 -27 570 -27 q 351 -3 416 -27 q 240 71 285 21 q 172 195 195 120 q 149 374 149 271 z "},"ĝ":{"ha":747,"x_min":58,"x_max":849,"o":"m 277 534 q 290 474 277 498 q 323 435 302 450 q 371 415 344 420 q 427 409 397 409 q 583 450 532 408 q 633 582 633 493 q 621 637 633 613 q 586 677 608 661 q 537 702 565 693 q 479 710 509 710 q 391 697 429 710 q 328 662 353 685 q 290 607 302 640 q 277 534 277 574 m 150 -67 q 202 -149 150 -124 q 365 -174 254 -174 q 562 -141 495 -174 q 629 -42 629 -108 q 613 11 629 -10 q 571 44 596 31 q 516 63 546 57 q 460 73 486 70 l 280 96 q 181 15 213 55 q 150 -67 150 -24 m 728 579 q 711 491 728 532 q 659 415 693 449 q 575 358 625 382 q 463 321 526 334 l 277 284 q 206 232 204 270 q 218 202 205 214 q 251 182 230 190 q 298 169 271 174 q 353 161 325 164 q 410 155 382 157 q 460 149 437 152 q 571 126 524 139 q 651 91 619 113 q 700 36 684 69 q 715 -45 715 3 q 697 -128 715 -94 q 647 -187 678 -163 q 577 -227 616 -212 q 496 -250 538 -241 q 415 -261 455 -258 q 342 -264 374 -264 q 231 -251 283 -264 q 141 -216 179 -239 q 80 -161 102 -193 q 58 -89 58 -129 q 81 -6 62 -40 q 125 52 100 28 q 154 75 137 64 q 186 95 171 87 q 213 109 202 104 q 222 113 223 114 q 204 121 213 117 q 188 130 196 125 q 161 147 174 138 q 142 167 148 157 q 126 235 126 194 q 263 352 125 321 l 338 370 q 273 389 302 376 q 223 424 244 403 q 190 472 201 444 q 178 535 178 500 q 199 638 178 591 q 257 719 219 685 q 347 773 294 753 q 465 792 400 792 q 560 779 517 792 q 646 736 602 766 q 706 764 680 753 q 755 783 732 775 q 802 793 779 790 q 848 799 824 797 l 849 697 l 676 697 q 701 657 691 675 q 718 626 711 640 q 726 601 724 612 q 728 579 728 590 z "},"Ğ":{"ha":939,"x_min":149,"x_max":947,"o":"m 149 374 q 154 478 149 422 q 171 594 159 534 q 204 713 184 653 q 254 828 224 773 q 323 931 283 884 q 416 1015 363 979 q 534 1071 469 1050 q 681 1091 600 1091 q 727 1088 700 1091 q 787 1076 753 1086 q 861 1049 821 1067 q 947 1000 901 1031 l 904 913 q 822 952 857 937 q 759 976 786 967 q 710 989 731 985 q 672 993 689 993 q 558 975 609 993 q 467 924 507 956 q 397 850 427 892 q 345 759 367 807 q 309 658 323 710 q 286 556 294 606 q 273 459 277 506 q 270 376 270 413 q 286 237 270 295 q 335 142 302 179 q 414 87 367 104 q 522 70 461 70 q 637 84 588 70 q 720 125 686 99 q 773 187 754 151 q 797 264 792 222 q 797 262 797 263 q 796 260 796 262 l 823 465 l 559 465 l 572 548 l 941 548 l 865 0 l 803 0 l 803 117 q 766 69 789 94 q 707 23 743 44 q 620 -13 671 1 q 501 -27 570 -27 q 351 -3 416 -27 q 240 71 285 21 q 172 195 195 120 q 149 374 149 271 z "},"ğ":{"ha":747,"x_min":58,"x_max":849,"o":"m 277 534 q 290 474 277 498 q 323 435 302 450 q 371 415 344 420 q 427 409 397 409 q 583 450 532 408 q 633 582 633 493 q 621 637 633 613 q 586 677 608 661 q 537 702 565 693 q 479 710 509 710 q 391 697 429 710 q 328 662 353 685 q 290 607 302 640 q 277 534 277 574 m 150 -67 q 202 -149 150 -124 q 365 -174 254 -174 q 562 -141 495 -174 q 629 -42 629 -108 q 613 11 629 -10 q 571 44 596 31 q 516 63 546 57 q 460 73 486 70 l 280 96 q 181 15 213 55 q 150 -67 150 -24 m 728 579 q 711 491 728 532 q 659 415 693 449 q 575 358 625 382 q 463 321 526 334 l 277 284 q 206 232 204 270 q 218 202 205 214 q 251 182 230 190 q 298 169 271 174 q 353 161 325 164 q 410 155 382 157 q 460 149 437 152 q 571 126 524 139 q 651 91 619 113 q 700 36 684 69 q 715 -45 715 3 q 697 -128 715 -94 q 647 -187 678 -163 q 577 -227 616 -212 q 496 -250 538 -241 q 415 -261 455 -258 q 342 -264 374 -264 q 231 -251 283 -264 q 141 -216 179 -239 q 80 -161 102 -193 q 58 -89 58 -129 q 81 -6 62 -40 q 125 52 100 28 q 154 75 137 64 q 186 95 171 87 q 213 109 202 104 q 222 113 223 114 q 204 121 213 117 q 188 130 196 125 q 161 147 174 138 q 142 167 148 157 q 126 235 126 194 q 263 352 125 321 l 338 370 q 273 389 302 376 q 223 424 244 403 q 190 472 201 444 q 178 535 178 500 q 199 638 178 591 q 257 719 219 685 q 347 773 294 753 q 465 792 400 792 q 560 779 517 792 q 646 736 602 766 q 706 764 680 753 q 755 783 732 775 q 802 793 779 790 q 848 799 824 797 l 849 697 l 676 697 q 701 657 691 675 q 718 626 711 640 q 726 601 724 612 q 728 579 728 590 z "},"Ġ":{"ha":939,"x_min":149,"x_max":947,"o":"m 149 374 q 154 478 149 422 q 171 594 159 534 q 204 713 184 653 q 254 828 224 773 q 323 931 283 884 q 416 1015 363 979 q 534 1071 469 1050 q 681 1091 600 1091 q 727 1088 700 1091 q 787 1076 753 1086 q 861 1049 821 1067 q 947 1000 901 1031 l 904 913 q 822 952 857 937 q 759 976 786 967 q 710 989 731 985 q 672 993 689 993 q 558 975 609 993 q 467 924 507 956 q 397 850 427 892 q 345 759 367 807 q 309 658 323 710 q 286 556 294 606 q 273 459 277 506 q 270 376 270 413 q 286 237 270 295 q 335 142 302 179 q 414 87 367 104 q 522 70 461 70 q 637 84 588 70 q 720 125 686 99 q 773 187 754 151 q 797 264 792 222 q 797 262 797 263 q 796 260 796 262 l 823 465 l 559 465 l 572 548 l 941 548 l 865 0 l 803 0 l 803 117 q 766 69 789 94 q 707 23 743 44 q 620 -13 671 1 q 501 -27 570 -27 q 351 -3 416 -27 q 240 71 285 21 q 172 195 195 120 q 149 374 149 271 z "},"ġ":{"ha":747,"x_min":58,"x_max":849,"o":"m 277 534 q 290 474 277 498 q 323 435 302 450 q 371 415 344 420 q 427 409 397 409 q 583 450 532 408 q 633 582 633 493 q 621 637 633 613 q 586 677 608 661 q 537 702 565 693 q 479 710 509 710 q 391 697 429 710 q 328 662 353 685 q 290 607 302 640 q 277 534 277 574 m 150 -67 q 202 -149 150 -124 q 365 -174 254 -174 q 562 -141 495 -174 q 629 -42 629 -108 q 613 11 629 -10 q 571 44 596 31 q 516 63 546 57 q 460 73 486 70 l 280 96 q 181 15 213 55 q 150 -67 150 -24 m 728 579 q 711 491 728 532 q 659 415 693 449 q 575 358 625 382 q 463 321 526 334 l 277 284 q 206 232 204 270 q 218 202 205 214 q 251 182 230 190 q 298 169 271 174 q 353 161 325 164 q 410 155 382 157 q 460 149 437 152 q 571 126 524 139 q 651 91 619 113 q 700 36 684 69 q 715 -45 715 3 q 697 -128 715 -94 q 647 -187 678 -163 q 577 -227 616 -212 q 496 -250 538 -241 q 415 -261 455 -258 q 342 -264 374 -264 q 231 -251 283 -264 q 141 -216 179 -239 q 80 -161 102 -193 q 58 -89 58 -129 q 81 -6 62 -40 q 125 52 100 28 q 154 75 137 64 q 186 95 171 87 q 213 109 202 104 q 222 113 223 114 q 204 121 213 117 q 188 130 196 125 q 161 147 174 138 q 142 167 148 157 q 126 235 126 194 q 263 352 125 321 l 338 370 q 273 389 302 376 q 223 424 244 403 q 190 472 201 444 q 178 535 178 500 q 199 638 178 591 q 257 719 219 685 q 347 773 294 753 q 465 792 400 792 q 560 779 517 792 q 646 736 602 766 q 706 764 680 753 q 755 783 732 775 q 802 793 779 790 q 848 799 824 797 l 849 697 l 676 697 q 701 657 691 675 q 718 626 711 640 q 726 601 724 612 q 728 579 728 590 z "},"Ģ":{"ha":939,"x_min":149,"x_max":947,"o":"m 149 374 q 154 478 149 422 q 171 594 159 534 q 204 713 184 653 q 254 828 224 773 q 323 931 283 884 q 416 1015 363 979 q 534 1071 469 1050 q 681 1091 600 1091 q 727 1088 700 1091 q 787 1076 753 1086 q 861 1049 821 1067 q 947 1000 901 1031 l 904 913 q 822 952 857 937 q 759 976 786 967 q 710 989 731 985 q 672 993 689 993 q 558 975 609 993 q 467 924 507 956 q 397 850 427 892 q 345 759 367 807 q 309 658 323 710 q 286 556 294 606 q 273 459 277 506 q 270 376 270 413 q 286 237 270 295 q 335 142 302 179 q 414 87 367 104 q 522 70 461 70 q 637 84 588 70 q 720 125 686 99 q 773 187 754 151 q 797 264 792 222 q 797 262 797 263 q 796 260 796 262 l 823 465 l 559 465 l 572 548 l 941 548 l 865 0 l 803 0 l 803 117 q 766 69 789 94 q 707 23 743 44 q 620 -13 671 1 q 501 -27 570 -27 q 351 -3 416 -27 q 240 71 285 21 q 172 195 195 120 q 149 374 149 271 z "},"ģ":{"ha":747,"x_min":58,"x_max":849,"o":"m 277 534 q 290 474 277 498 q 323 435 302 450 q 371 415 344 420 q 427 409 397 409 q 583 450 532 408 q 633 582 633 493 q 621 637 633 613 q 586 677 608 661 q 537 702 565 693 q 479 710 509 710 q 391 697 429 710 q 328 662 353 685 q 290 607 302 640 q 277 534 277 574 m 150 -67 q 202 -149 150 -124 q 365 -174 254 -174 q 562 -141 495 -174 q 629 -42 629 -108 q 613 11 629 -10 q 571 44 596 31 q 516 63 546 57 q 460 73 486 70 l 280 96 q 181 15 213 55 q 150 -67 150 -24 m 728 579 q 711 491 728 532 q 659 415 693 449 q 575 358 625 382 q 463 321 526 334 l 277 284 q 206 232 204 270 q 218 202 205 214 q 251 182 230 190 q 298 169 271 174 q 353 161 325 164 q 410 155 382 157 q 460 149 437 152 q 571 126 524 139 q 651 91 619 113 q 700 36 684 69 q 715 -45 715 3 q 697 -128 715 -94 q 647 -187 678 -163 q 577 -227 616 -212 q 496 -250 538 -241 q 415 -261 455 -258 q 342 -264 374 -264 q 231 -251 283 -264 q 141 -216 179 -239 q 80 -161 102 -193 q 58 -89 58 -129 q 81 -6 62 -40 q 125 52 100 28 q 154 75 137 64 q 186 95 171 87 q 213 109 202 104 q 222 113 223 114 q 204 121 213 117 q 188 130 196 125 q 161 147 174 138 q 142 167 148 157 q 126 235 126 194 q 263 352 125 321 l 338 370 q 273 389 302 376 q 223 424 244 403 q 190 472 201 444 q 178 535 178 500 q 199 638 178 591 q 257 719 219 685 q 347 773 294 753 q 465 792 400 792 q 560 779 517 792 q 646 736 602 766 q 706 764 680 753 q 755 783 732 775 q 802 793 779 790 q 848 799 824 797 l 849 697 l 676 697 q 701 657 691 675 q 718 626 711 640 q 726 601 724 612 q 728 579 728 590 z "},"Ĥ":{"ha":954,"x_min":100,"x_max":1016,"o":"m 749 0 l 821 519 l 289 519 l 216 0 l 100 0 l 250 1070 l 366 1070 l 299 593 l 831 593 l 899 1070 l 1016 1070 l 866 0 l 749 0 z "},"ĥ":{"ha":793,"x_min":105,"x_max":791,"o":"m 376 1121 l 311 654 q 389 725 355 698 q 455 766 424 751 q 515 787 486 781 q 577 792 545 792 q 666 779 627 792 q 734 740 706 766 q 777 673 762 713 q 791 579 791 633 q 790 534 791 557 q 785 484 788 511 l 717 0 l 603 0 l 671 483 q 674 517 673 498 q 676 554 676 536 q 648 669 676 631 q 556 706 620 706 q 475 693 515 706 q 401 662 435 680 q 341 624 368 644 q 302 590 315 604 l 220 0 l 105 0 l 261 1113 l 376 1121 z "},"Ħ":{"ha":951,"x_min":100,"x_max":1050,"o":"m 1036 815 l 149 815 l 162 916 l 1050 916 l 1036 815 m 749 0 l 821 519 l 289 519 l 216 0 l 100 0 l 250 1070 l 366 1070 l 299 593 l 831 593 l 899 1070 l 1016 1070 l 866 0 l 749 0 z "},"ħ":{"ha":793,"x_min":105,"x_max":791,"o":"m 376 1121 l 311 654 q 389 725 355 698 q 455 766 424 751 q 515 787 486 781 q 577 792 545 792 q 666 779 627 792 q 734 740 706 766 q 777 673 762 713 q 791 579 791 633 q 790 534 791 557 q 785 484 788 511 l 717 0 l 603 0 l 671 483 q 674 517 673 498 q 676 554 676 536 q 648 669 676 631 q 556 706 620 706 q 475 693 515 706 q 401 662 435 680 q 341 624 368 644 q 302 590 315 604 l 220 0 l 105 0 l 261 1113 l 376 1121 m 552 869 l 122 869 l 136 969 l 566 969 l 552 869 z "},"Ĩ":{"ha":573,"x_min":109,"x_max":707,"o":"m 119 75 l 245 75 l 372 991 l 248 991 l 258 1070 l 628 1070 l 617 991 l 490 991 l 361 75 l 490 75 l 479 0 l 109 0 l 119 75 m 572 1152 q 505 1164 538 1152 q 442 1192 472 1177 q 386 1219 412 1206 q 341 1232 359 1232 q 324 1230 332 1232 q 308 1223 315 1229 q 297 1204 301 1217 q 292 1169 292 1192 l 195 1169 q 207 1240 195 1210 q 239 1289 218 1270 q 287 1318 259 1309 q 346 1328 314 1328 q 407 1315 378 1328 q 464 1288 437 1303 q 515 1261 491 1274 q 562 1249 540 1249 q 582 1251 573 1249 q 598 1260 591 1253 q 608 1278 604 1266 q 611 1311 611 1291 l 707 1311 q 696 1234 707 1264 q 667 1185 686 1203 q 624 1159 649 1166 q 572 1152 600 1152 z "},"ĩ":{"ha":362,"x_min":41,"x_max":553,"o":"m 245 0 l 135 0 l 244 778 l 355 778 l 245 0 m 418 854 q 351 866 385 854 q 288 894 318 879 q 232 921 258 909 q 187 934 205 934 q 170 932 178 934 q 154 925 161 931 q 143 906 147 919 q 138 871 138 894 l 41 871 q 53 942 41 912 q 85 991 64 972 q 133 1021 105 1011 q 192 1030 160 1030 q 253 1018 224 1030 q 310 990 283 1005 q 361 963 337 976 q 408 951 386 951 q 428 953 419 951 q 444 962 437 956 q 454 981 450 968 q 457 1013 457 993 l 553 1013 q 542 936 553 966 q 513 887 532 905 q 470 861 495 869 q 418 854 446 854 z "},"Ī":{"ha":575,"x_min":109,"x_max":628,"o":"m 119 75 l 245 75 l 372 991 l 248 991 l 258 1070 l 628 1070 l 617 991 l 490 991 l 361 75 l 490 75 l 479 0 l 109 0 l 119 75 z "},"ī":{"ha":362,"x_min":72,"x_max":516,"o":"m 245 0 l 135 0 l 244 778 l 355 778 l 245 0 m 502 865 l 72 865 l 85 966 l 516 966 l 502 865 z "},"Ĭ":{"ha":575,"x_min":109,"x_max":628,"o":"m 119 75 l 245 75 l 372 991 l 248 991 l 258 1070 l 628 1070 l 617 991 l 490 991 l 361 75 l 490 75 l 479 0 l 109 0 l 119 75 z "},"Į":{"ha":575,"x_min":109,"x_max":628,"o":"m 119 75 l 245 75 l 372 991 l 248 991 l 258 1070 l 628 1070 l 617 991 l 490 991 l 361 75 l 490 75 l 479 0 l 109 0 l 119 75 z "},"į":{"ha":366,"x_min":135,"x_max":398,"o":"m 398 1008 q 392 972 398 989 q 376 942 387 955 q 352 922 366 930 q 320 915 338 915 q 277 933 292 915 q 262 977 262 951 q 268 1010 262 994 q 285 1039 274 1026 q 310 1059 296 1051 q 342 1066 325 1066 q 382 1049 367 1066 q 398 1006 398 1032 l 398 1008 m 245 0 l 135 0 l 244 778 l 355 778 l 245 0 z "},"İ":{"ha":575,"x_min":109,"x_max":628,"o":"m 119 75 l 245 75 l 372 991 l 248 991 l 258 1070 l 628 1070 l 617 991 l 490 991 l 361 75 l 490 75 l 479 0 l 109 0 l 119 75 z "},"ı":{"ha":362,"x_min":135,"x_max":398,"o":"m 398 1008 q 392 972 398 989 q 376 942 387 955 q 352 922 366 930 q 320 915 338 915 q 277 933 292 915 q 262 977 262 951 q 268 1010 262 994 q 285 1039 274 1026 q 310 1059 296 1051 q 342 1066 325 1066 q 382 1049 367 1066 q 398 1006 398 1032 l 398 1008 m 245 0 l 135 0 l 244 778 l 355 778 l 245 0 z "},"Ĵ":{"ha":452,"x_min":39,"x_max":511,"o":"m 39 20 q 130 45 93 32 q 193 76 168 59 q 233 114 218 93 q 258 161 248 134 q 273 222 267 189 q 285 298 279 256 l 393 1070 l 511 1070 l 409 347 q 386 216 399 273 q 356 115 374 159 q 312 41 338 72 q 252 -10 287 11 q 169 -43 216 -31 q 59 -61 121 -55 l 39 20 z "},"ĵ":{"ha":394,"x_min":29,"x_max":522,"o":"m 29 -180 q 98 -124 71 -153 q 142 -60 125 -95 q 170 18 159 -25 q 188 117 180 62 l 281 778 l 395 778 l 301 102 q 269 -27 291 32 q 214 -133 246 -87 q 139 -210 181 -179 q 46 -254 96 -241 l 29 -180 m 376 1236 l 448 1236 l 522 881 l 433 881 l 391 1097 l 258 881 l 155 881 l 376 1236 z "},"Ķ":{"ha":806,"x_min":99,"x_max":939,"o":"m 823 1070 l 939 1070 l 531 541 l 592 431 l 830 0 l 709 0 l 428 509 l 288 509 l 217 0 l 99 0 l 250 1070 l 368 1070 l 298 576 l 444 576 l 823 1070 z "},"ķ":{"ha":695,"x_min":105,"x_max":796,"o":"m 254 291 l 212 0 l 105 0 l 261 1112 l 370 1120 l 270 400 l 671 778 l 796 778 l 404 407 l 674 0 l 564 0 l 332 351 l 254 291 z "},"Ĺ":{"ha":705,"x_min":99,"x_max":703,"o":"m 691 0 l 99 0 l 250 1070 l 367 1070 l 229 94 l 703 94 l 691 0 z "},"ĺ":{"ha":332,"x_min":126,"x_max":391,"o":"m 391 1120 l 233 0 l 126 0 l 283 1110 l 391 1120 z "},"Ļ":{"ha":705,"x_min":99,"x_max":703,"o":"m 691 0 l 99 0 l 250 1070 l 367 1070 l 229 94 l 703 94 l 691 0 z "},"ļ":{"ha":332,"x_min":126,"x_max":391,"o":"m 391 1120 l 233 0 l 126 0 l 283 1110 l 391 1120 z "},"Ľ":{"ha":703,"x_min":99,"x_max":703,"o":"m 691 0 l 99 0 l 250 1070 l 367 1070 l 229 94 l 703 94 l 691 0 m 418 873 l 435 1067 l 610 1067 l 594 875 q 578 812 591 839 q 545 765 566 785 q 492 730 523 745 q 421 705 461 716 l 400 768 q 444 786 427 777 q 472 808 461 795 q 489 836 483 820 q 498 873 494 852 l 418 873 z "},"ľ":{"ha":842,"x_min":126,"x_max":703,"o":"m 391 1120 l 233 0 l 126 0 l 283 1110 l 391 1120 m 511 878 l 528 1072 l 703 1072 l 686 879 q 671 816 683 843 q 637 769 659 789 q 584 734 615 749 q 513 709 553 720 l 492 772 q 536 790 519 781 q 564 812 553 800 q 581 840 575 824 q 591 878 587 856 l 511 878 z "},"Ŀ":{"ha":705,"x_min":99,"x_max":703,"o":"m 691 0 l 99 0 l 250 1070 l 367 1070 l 229 94 l 703 94 l 691 0 z "},"ŀ":{"ha":332,"x_min":126,"x_max":391,"o":"m 391 1120 l 233 0 l 126 0 l 283 1110 l 391 1120 z "},"Ł":{"ha":703,"x_min":83,"x_max":703,"o":"m 691 0 l 99 0 l 250 1070 l 367 1070 l 229 94 l 703 94 l 691 0 m 83 524 l 83 608 l 621 608 l 621 524 l 83 524 z "},"ł":{"ha":329,"x_min":-8,"x_max":530,"o":"m 391 1120 l 233 0 l 126 0 l 283 1110 l 391 1120 m -8 779 l -8 863 l 530 863 l 529 779 l -8 779 z "},"Ń":{"ha":1015,"x_min":99,"x_max":1078,"o":"m 928 0 l 745 0 l 615 328 l 355 983 l 217 0 l 99 0 l 250 1070 l 432 1070 l 562 742 l 822 87 l 960 1070 l 1078 1070 l 928 0 z "},"ń":{"ha":792,"x_min":105,"x_max":791,"o":"m 602 0 q 633 219 621 130 q 653 369 645 309 q 665 461 661 428 q 671 511 669 494 q 674 537 673 530 q 674 550 674 545 q 668 614 674 585 q 649 663 663 643 q 613 695 635 684 q 557 706 590 706 q 489 692 527 706 q 414 660 451 679 q 347 620 378 640 q 302 585 317 599 l 220 0 l 105 0 l 214 778 l 296 778 l 294 650 q 352 700 317 675 q 427 746 387 726 q 509 779 467 766 q 589 792 551 792 q 740 740 688 792 q 791 579 791 687 q 790 568 791 574 q 789 554 790 562 q 787 534 789 546 q 784 503 786 522 q 776 440 781 479 q 763 341 771 401 q 743 198 755 281 q 716 0 732 114 l 602 0 m 530 873 l 442 873 l 572 1292 l 730 1292 l 530 873 z "},"Ņ":{"ha":1015,"x_min":99,"x_max":1078,"o":"m 928 0 l 745 0 l 615 328 l 355 983 l 217 0 l 99 0 l 250 1070 l 432 1070 l 562 742 l 822 87 l 960 1070 l 1078 1070 l 928 0 z "},"ņ":{"ha":792,"x_min":105,"x_max":791,"o":"m 602 0 q 633 219 621 130 q 653 369 645 309 q 665 461 661 428 q 671 511 669 494 q 674 537 673 530 q 674 550 674 545 q 668 614 674 585 q 649 663 663 643 q 613 695 635 684 q 557 706 590 706 q 489 692 527 706 q 414 660 451 679 q 347 620 378 640 q 302 585 317 599 l 220 0 l 105 0 l 214 778 l 296 778 l 294 650 q 352 700 317 675 q 427 746 387 726 q 509 779 467 766 q 589 792 551 792 q 740 740 688 792 q 791 579 791 687 q 790 568 791 574 q 789 554 790 562 q 787 534 789 546 q 784 503 786 522 q 776 440 781 479 q 763 341 771 401 q 743 198 755 281 q 716 0 732 114 l 602 0 z "},"Ň":{"ha":1015,"x_min":99,"x_max":1078,"o":"m 928 0 l 745 0 l 615 328 l 355 983 l 217 0 l 99 0 l 250 1070 l 432 1070 l 562 742 l 822 87 l 960 1070 l 1078 1070 l 928 0 z "},"ň":{"ha":792,"x_min":105,"x_max":791,"o":"m 602 0 q 633 219 621 130 q 653 369 645 309 q 665 461 661 428 q 671 511 669 494 q 674 537 673 530 q 674 550 674 545 q 668 614 674 585 q 649 663 663 643 q 613 695 635 684 q 557 706 590 706 q 489 692 527 706 q 414 660 451 679 q 347 620 378 640 q 302 585 317 599 l 220 0 l 105 0 l 214 778 l 296 778 l 294 650 q 352 700 317 675 q 427 746 387 726 q 509 779 467 766 q 589 792 551 792 q 740 740 688 792 q 791 579 791 687 q 790 568 791 574 q 789 554 790 562 q 787 534 789 546 q 784 503 786 522 q 776 440 781 479 q 763 341 771 401 q 743 198 755 281 q 716 0 732 114 l 602 0 m 447 872 l 374 872 l 309 1227 l 397 1227 l 439 1012 l 572 1227 l 675 1227 l 447 872 z "},"Ŋ":{"ha":1013,"x_min":99,"x_max":1078,"o":"m 569 -249 q 660 -223 623 -237 q 723 -193 697 -210 q 763 -155 748 -176 q 787 -107 778 -134 q 802 -46 797 -80 q 810 0 806 -24 l 745 0 l 615 328 l 355 983 l 217 0 l 99 0 l 250 1070 l 432 1070 l 562 742 l 822 87 l 960 1070 l 1078 1070 l 939 79 q 916 -53 928 5 q 885 -153 903 -110 q 842 -227 867 -197 q 781 -278 817 -258 q 699 -311 746 -299 q 589 -330 651 -323 l 569 -249 z "},"ŋ":{"ha":793,"x_min":105,"x_max":791,"o":"m 458 -180 q 527 -124 500 -153 q 571 -60 554 -95 q 599 18 589 -25 q 617 117 609 62 l 671 511 q 674 537 673 530 q 674 550 674 545 q 668 614 674 585 q 649 663 663 643 q 613 695 635 684 q 557 706 590 706 q 489 692 527 706 q 414 660 451 679 q 347 620 378 640 q 302 585 317 599 l 220 0 l 105 0 l 214 778 l 296 778 l 294 650 q 352 700 317 675 q 427 746 387 726 q 509 779 467 766 q 589 792 551 792 q 740 740 689 792 q 791 579 791 688 q 790 562 791 571 q 787 534 789 552 l 730 102 q 699 -27 721 32 q 644 -133 677 -87 q 568 -210 610 -179 q 475 -254 526 -241 l 458 -180 z "},"Ō":{"ha":982,"x_min":149,"x_max":1004,"o":"m 1004 707 q 987 507 1004 602 q 939 330 970 411 q 862 182 907 248 q 759 69 817 116 q 634 -3 702 22 q 490 -28 566 -28 q 348 -6 411 -28 q 241 62 285 16 q 173 178 197 108 q 149 345 149 248 q 165 543 149 448 q 213 721 182 638 q 289 872 244 804 q 390 989 333 940 q 513 1064 446 1038 q 656 1091 581 1091 q 819 1063 753 1091 q 927 984 886 1035 q 986 863 968 933 q 1004 707 1004 792 m 883 712 q 871 822 883 770 q 831 911 859 873 q 759 971 804 949 q 647 993 713 993 q 524 964 578 993 q 428 888 470 936 q 357 775 387 840 q 309 638 328 710 q 281 490 290 566 q 272 343 272 414 q 331 138 272 205 q 505 71 390 71 q 622 96 568 71 q 717 168 675 122 q 790 275 759 213 q 842 408 821 336 q 873 556 863 479 q 883 712 883 634 z "},"ō":{"ha":781,"x_min":119,"x_max":795,"o":"m 119 290 q 131 413 119 352 q 164 531 142 475 q 221 634 187 587 q 299 717 254 682 q 399 772 343 752 q 522 792 455 792 q 617 780 576 792 q 690 747 659 768 q 741 697 720 726 q 773 635 761 669 q 790 566 785 602 q 795 494 795 530 q 763 287 795 380 q 676 126 731 193 q 547 22 621 59 q 393 -14 474 -14 q 281 7 332 -14 q 195 67 231 28 q 139 162 159 106 q 119 290 119 219 m 408 71 q 502 90 460 71 q 573 140 543 109 q 626 213 604 172 q 660 301 647 255 q 680 393 673 347 q 686 480 686 439 q 677 567 686 526 q 648 639 668 608 q 593 688 627 670 q 508 706 559 706 q 415 687 456 706 q 343 635 374 667 q 290 560 312 602 q 255 472 269 517 q 235 379 241 426 q 229 293 229 333 q 238 207 229 248 q 267 136 246 167 q 322 88 288 106 q 408 71 356 71 z "},"Ŏ":{"ha":982,"x_min":149,"x_max":1004,"o":"m 1004 707 q 987 507 1004 602 q 939 330 970 411 q 862 182 907 248 q 759 69 817 116 q 634 -3 702 22 q 490 -28 566 -28 q 348 -6 411 -28 q 241 62 285 16 q 173 178 197 108 q 149 345 149 248 q 165 543 149 448 q 213 721 182 638 q 289 872 244 804 q 390 989 333 940 q 513 1064 446 1038 q 656 1091 581 1091 q 819 1063 753 1091 q 927 984 886 1035 q 986 863 968 933 q 1004 707 1004 792 m 883 712 q 871 822 883 770 q 831 911 859 873 q 759 971 804 949 q 647 993 713 993 q 524 964 578 993 q 428 888 470 936 q 357 775 387 840 q 309 638 328 710 q 281 490 290 566 q 272 343 272 414 q 331 138 272 205 q 505 71 390 71 q 622 96 568 71 q 717 168 675 122 q 790 275 759 213 q 842 408 821 336 q 873 556 863 479 q 883 712 883 634 z "},"ŏ":{"ha":781,"x_min":119,"x_max":795,"o":"m 119 290 q 131 413 119 352 q 164 531 142 475 q 221 634 187 587 q 299 717 254 682 q 399 772 343 752 q 522 792 455 792 q 617 780 576 792 q 690 747 659 768 q 741 697 720 726 q 773 635 761 669 q 790 566 785 602 q 795 494 795 530 q 763 287 795 380 q 676 126 731 193 q 547 22 621 59 q 393 -14 474 -14 q 281 7 332 -14 q 195 67 231 28 q 139 162 159 106 q 119 290 119 219 m 408 71 q 502 90 460 71 q 573 140 543 109 q 626 213 604 172 q 660 301 647 255 q 680 393 673 347 q 686 480 686 439 q 677 567 686 526 q 648 639 668 608 q 593 688 627 670 q 508 706 559 706 q 415 687 456 706 q 343 635 374 667 q 290 560 312 602 q 255 472 269 517 q 235 379 241 426 q 229 293 229 333 q 238 207 229 248 q 267 136 246 167 q 322 88 288 106 q 408 71 356 71 z "},"Ő":{"ha":982,"x_min":149,"x_max":1004,"o":"m 1004 707 q 987 507 1004 602 q 939 330 970 411 q 862 182 907 248 q 759 69 817 116 q 634 -3 702 22 q 490 -28 566 -28 q 348 -6 411 -28 q 241 62 285 16 q 173 178 197 108 q 149 345 149 248 q 165 543 149 448 q 213 721 182 638 q 289 872 244 804 q 390 989 333 940 q 513 1064 446 1038 q 656 1091 581 1091 q 819 1063 753 1091 q 927 984 886 1035 q 986 863 968 933 q 1004 707 1004 792 m 883 712 q 871 822 883 770 q 831 911 859 873 q 759 971 804 949 q 647 993 713 993 q 524 964 578 993 q 428 888 470 936 q 357 775 387 840 q 309 638 328 710 q 281 490 290 566 q 272 343 272 414 q 331 138 272 205 q 505 71 390 71 q 622 96 568 71 q 717 168 675 122 q 790 275 759 213 q 842 408 821 336 q 873 556 863 479 q 883 712 883 634 z "},"ő":{"ha":781,"x_min":119,"x_max":795,"o":"m 119 290 q 131 413 119 352 q 164 531 142 475 q 221 634 187 587 q 299 717 254 682 q 399 772 343 752 q 522 792 455 792 q 617 780 576 792 q 690 747 659 768 q 741 697 720 726 q 773 635 761 669 q 790 566 785 602 q 795 494 795 530 q 763 287 795 380 q 676 126 731 193 q 547 22 621 59 q 393 -14 474 -14 q 281 7 332 -14 q 195 67 231 28 q 139 162 159 106 q 119 290 119 219 m 408 71 q 502 90 460 71 q 573 140 543 109 q 626 213 604 172 q 660 301 647 255 q 680 393 673 347 q 686 480 686 439 q 677 567 686 526 q 648 639 668 608 q 593 688 627 670 q 508 706 559 706 q 415 687 456 706 q 343 635 374 667 q 290 560 312 602 q 255 472 269 517 q 235 379 241 426 q 229 293 229 333 q 238 207 229 248 q 267 136 246 167 q 322 88 288 106 q 408 71 356 71 z "},"Œ":{"ha":1748,"x_min":149,"x_max":1556,"o":"m 1413 0 l 795 0 l 818 161 q 764 77 800 113 q 685 18 729 41 q 591 -17 640 -5 q 496 -28 542 -28 q 349 -4 413 -28 q 240 68 284 19 q 172 192 195 117 q 149 370 149 267 q 164 562 149 469 q 211 734 180 654 q 284 880 241 814 q 382 993 328 946 q 503 1065 437 1040 q 642 1091 568 1091 q 824 1043 750 1091 q 927 901 899 996 l 945 1069 l 1556 1069 l 1542 976 l 1050 976 l 996 602 l 1427 602 l 1417 528 l 986 528 l 925 94 l 1426 94 l 1413 0 m 876 690 q 865 807 876 752 q 826 904 854 863 q 752 969 798 945 q 635 993 705 993 q 515 966 568 993 q 422 893 463 939 q 353 785 382 847 q 307 654 325 724 q 280 511 289 585 q 272 367 272 437 q 509 71 272 71 q 624 95 572 71 q 716 164 675 120 q 787 267 757 208 q 837 395 817 326 q 866 539 857 464 q 876 690 876 614 z "},"œ":{"ha":1272,"x_min":119,"x_max":1293,"o":"m 793 380 q 783 275 784 321 q 796 186 783 222 q 832 127 808 150 q 889 95 855 105 q 966 85 923 85 q 1166 163 1070 85 l 1189 68 q 1126 33 1160 49 q 1058 7 1092 18 q 994 -9 1024 -3 q 941 -14 963 -14 q 851 -2 892 -14 q 778 35 809 11 q 728 93 747 58 q 709 172 710 127 q 598 55 654 97 q 482 -3 543 13 q 398 -14 440 -14 q 284 6 336 -15 q 196 66 233 26 q 139 162 159 105 q 119 290 119 218 q 128 400 119 342 q 157 513 137 458 q 208 620 176 569 q 283 708 239 670 q 387 769 328 747 q 522 792 446 792 q 617 776 576 792 q 687 734 659 760 q 733 674 716 707 q 757 605 751 640 q 816 688 781 652 q 891 746 851 723 q 972 781 930 769 q 1049 792 1013 792 q 1234 729 1175 792 q 1293 530 1293 665 q 1285 440 1293 481 q 1268 365 1278 399 q 1026 376 1143 372 q 793 380 909 379 m 408 76 q 502 99 461 79 q 574 150 543 119 q 626 221 605 181 q 661 305 648 261 q 680 394 674 349 q 686 480 686 439 q 677 566 686 526 q 648 636 668 606 q 593 684 627 666 q 508 701 559 701 q 415 682 456 701 q 343 631 374 663 q 290 557 312 599 q 255 470 269 515 q 235 379 241 425 q 229 293 229 333 q 238 209 229 248 q 267 140 246 170 q 322 94 288 111 q 408 76 356 77 m 806 456 q 996 455 903 456 q 1185 452 1088 455 q 1193 509 1191 488 q 1194 545 1194 530 q 1160 664 1194 623 q 1063 705 1125 705 q 890 644 954 705 q 806 456 827 583 z "},"Ŕ":{"ha":852,"x_min":100,"x_max":884,"o":"m 676 0 q 693 125 686 73 q 705 214 701 178 q 712 272 710 250 q 716 307 715 294 q 718 323 718 319 q 718 328 718 328 q 705 397 717 368 q 608 474 678 449 q 516 493 569 487 q 393 498 463 498 l 286 498 l 217 0 l 100 0 l 250 1069 l 516 1069 q 597 1068 555 1069 q 680 1059 639 1067 q 758 1038 721 1053 q 823 999 795 1024 q 867 936 851 974 q 884 843 884 898 q 869 736 884 783 q 829 656 854 690 q 774 599 805 622 q 711 563 743 576 q 648 544 679 549 q 593 539 616 538 q 769 474 707 525 q 832 328 831 422 q 832 323 832 327 q 831 313 832 320 q 830 295 831 307 q 827 266 829 283 q 815 170 823 233 q 793 0 808 106 l 676 0 m 386 583 q 489 585 439 583 q 583 594 539 587 q 663 617 627 602 q 725 659 699 632 q 766 726 751 686 q 781 824 781 766 q 769 885 781 860 q 738 927 758 910 q 690 954 718 944 q 633 968 663 964 q 570 975 602 973 q 506 976 537 976 l 353 976 l 297 583 l 386 583 z "},"ŕ":{"ha":482,"x_min":105,"x_max":581,"o":"m 294 597 q 347 675 317 640 q 408 737 376 711 q 472 777 440 763 q 530 791 504 791 q 548 790 538 791 q 565 788 557 789 q 577 786 572 787 q 581 785 582 785 l 572 682 q 569 683 572 682 q 560 684 566 684 q 548 686 555 685 q 535 686 541 686 q 462 669 498 686 q 392 627 425 652 q 331 572 359 602 q 285 519 303 543 l 212 0 l 105 0 l 215 778 l 296 778 l 294 597 z "},"Ŗ":{"ha":852,"x_min":100,"x_max":884,"o":"m 676 0 q 693 125 686 73 q 705 214 701 178 q 712 272 710 250 q 716 307 715 294 q 718 323 718 319 q 718 328 718 328 q 705 397 717 368 q 608 474 678 449 q 516 493 569 487 q 393 498 463 498 l 286 498 l 217 0 l 100 0 l 250 1069 l 516 1069 q 597 1068 555 1069 q 680 1059 639 1067 q 758 1038 721 1053 q 823 999 795 1024 q 867 936 851 974 q 884 843 884 898 q 869 736 884 783 q 829 656 854 690 q 774 599 805 622 q 711 563 743 576 q 648 544 679 549 q 593 539 616 538 q 769 474 707 525 q 832 328 831 422 q 832 323 832 327 q 831 313 832 320 q 830 295 831 307 q 827 266 829 283 q 815 170 823 233 q 793 0 808 106 l 676 0 m 386 583 q 489 585 439 583 q 583 594 539 587 q 663 617 627 602 q 725 659 699 632 q 766 726 751 686 q 781 824 781 766 q 769 885 781 860 q 738 927 758 910 q 690 954 718 944 q 633 968 663 964 q 570 975 602 973 q 506 976 537 976 l 353 976 l 297 583 l 386 583 z "},"ŗ":{"ha":482,"x_min":105,"x_max":581,"o":"m 294 597 q 347 675 317 640 q 408 737 376 711 q 472 777 440 763 q 530 791 504 791 q 548 790 538 791 q 565 788 557 789 q 577 786 572 787 q 581 785 582 785 l 572 682 q 569 683 572 682 q 560 684 566 684 q 548 686 555 685 q 535 686 541 686 q 462 669 498 686 q 392 627 425 652 q 331 572 359 602 q 285 519 303 543 l 212 0 l 105 0 l 215 778 l 296 778 l 294 597 z "},"Ř":{"ha":852,"x_min":100,"x_max":884,"o":"m 676 0 q 693 125 686 73 q 705 214 701 178 q 712 272 710 250 q 716 307 715 294 q 718 323 718 319 q 718 328 718 328 q 705 397 717 368 q 608 474 678 449 q 516 493 569 487 q 393 498 463 498 l 286 498 l 217 0 l 100 0 l 250 1069 l 516 1069 q 597 1068 555 1069 q 680 1059 639 1067 q 758 1038 721 1053 q 823 999 795 1024 q 867 936 851 974 q 884 843 884 898 q 869 736 884 783 q 829 656 854 690 q 774 599 805 622 q 711 563 743 576 q 648 544 679 549 q 593 539 616 538 q 769 474 707 525 q 832 328 831 422 q 832 323 832 327 q 831 313 832 320 q 830 295 831 307 q 827 266 829 283 q 815 170 823 233 q 793 0 808 106 l 676 0 m 386 583 q 489 585 439 583 q 583 594 539 587 q 663 617 627 602 q 725 659 699 632 q 766 726 751 686 q 781 824 781 766 q 769 885 781 860 q 738 927 758 910 q 690 954 718 944 q 633 968 663 964 q 570 975 602 973 q 506 976 537 976 l 353 976 l 297 583 l 386 583 z "},"ř":{"ha":482,"x_min":105,"x_max":581,"o":"m 294 597 q 347 675 317 640 q 408 737 376 711 q 472 777 440 763 q 530 791 504 791 q 548 790 538 791 q 565 788 557 789 q 577 786 572 787 q 581 785 582 785 l 572 682 q 569 683 572 682 q 560 684 566 684 q 548 686 555 685 q 535 686 541 686 q 462 669 498 686 q 392 627 425 652 q 331 572 359 602 q 285 519 303 543 l 212 0 l 105 0 l 215 778 l 296 778 l 294 597 z "},"Ś":{"ha":829,"x_min":117,"x_max":848,"o":"m 813 909 q 766 940 793 924 q 709 966 739 955 q 645 985 678 978 q 576 993 611 993 q 445 977 496 993 q 364 933 393 961 q 323 869 334 906 q 311 792 311 833 q 317 746 311 766 q 338 712 323 727 q 375 684 352 696 q 432 659 398 671 l 602 597 q 686 558 648 580 q 749 508 723 537 q 790 441 776 479 q 804 354 804 404 q 781 211 804 279 q 708 89 758 142 q 579 4 658 36 q 389 -28 500 -28 q 306 -21 347 -28 q 231 -4 266 -15 q 166 21 195 7 q 117 50 138 35 l 145 147 q 207 111 180 125 q 261 87 234 96 q 320 74 289 78 q 393 71 351 71 q 611 132 539 71 q 684 321 684 194 q 674 378 684 354 q 648 421 665 402 q 606 454 631 439 q 549 481 581 468 l 377 549 q 331 570 352 559 q 293 593 311 581 q 216 674 240 629 q 192 772 192 719 q 207 867 192 823 q 247 945 221 910 q 307 1008 272 981 q 381 1054 341 1036 q 465 1082 421 1072 q 552 1091 509 1091 q 708 1070 636 1091 q 848 1004 781 1048 l 813 909 z "},"ś":{"ha":641,"x_min":83,"x_max":659,"o":"m 157 593 q 178 680 157 642 q 233 742 198 717 q 316 780 269 767 q 416 792 363 792 q 488 784 453 792 q 553 764 522 776 q 611 736 584 751 q 659 708 637 722 l 620 633 q 575 658 600 646 q 524 682 551 671 q 469 699 497 692 q 414 706 441 706 q 352 700 380 706 q 301 680 323 693 q 268 648 280 667 q 256 605 256 629 q 260 568 256 583 q 276 541 265 553 q 303 519 286 529 q 345 499 320 509 l 444 458 q 509 427 477 445 q 566 385 541 409 q 606 331 591 361 q 621 261 621 300 q 596 143 621 195 q 531 57 572 92 q 439 4 491 22 q 333 -14 387 -14 q 248 -6 288 -14 q 177 15 209 2 q 121 42 145 27 q 83 71 98 57 l 120 138 q 204 91 153 111 q 326 71 255 71 q 401 82 366 71 q 461 114 435 93 q 500 167 486 136 q 515 239 515 199 q 509 271 515 256 q 492 297 504 285 q 460 321 480 309 q 412 345 441 332 l 309 387 q 244 420 272 402 q 196 461 216 437 q 167 517 177 486 q 157 593 157 549 z "},"Ŝ":{"ha":829,"x_min":117,"x_max":848,"o":"m 813 909 q 766 940 793 924 q 709 966 739 955 q 645 985 678 978 q 576 993 611 993 q 445 977 496 993 q 364 933 393 961 q 323 869 334 906 q 311 792 311 833 q 317 746 311 766 q 338 712 323 727 q 375 684 352 696 q 432 659 398 671 l 602 597 q 686 558 648 580 q 749 508 723 537 q 790 441 776 479 q 804 354 804 404 q 781 211 804 279 q 708 89 758 142 q 579 4 658 36 q 389 -28 500 -28 q 306 -21 347 -28 q 231 -4 266 -15 q 166 21 195 7 q 117 50 138 35 l 145 147 q 207 111 180 125 q 261 87 234 96 q 320 74 289 78 q 393 71 351 71 q 611 132 539 71 q 684 321 684 194 q 674 378 684 354 q 648 421 665 402 q 606 454 631 439 q 549 481 581 468 l 377 549 q 331 570 352 559 q 293 593 311 581 q 216 674 240 629 q 192 772 192 719 q 207 867 192 823 q 247 945 221 910 q 307 1008 272 981 q 381 1054 341 1036 q 465 1082 421 1072 q 552 1091 509 1091 q 708 1070 636 1091 q 848 1004 781 1048 l 813 909 z "},"ŝ":{"ha":641,"x_min":83,"x_max":659,"o":"m 157 593 q 178 680 157 642 q 233 742 198 717 q 316 780 269 767 q 416 792 363 792 q 488 784 453 792 q 553 764 522 776 q 611 736 584 751 q 659 708 637 722 l 620 633 q 575 658 600 646 q 524 682 551 671 q 469 699 497 692 q 414 706 441 706 q 352 700 380 706 q 301 680 323 693 q 268 648 280 667 q 256 605 256 629 q 260 568 256 583 q 276 541 265 553 q 303 519 286 529 q 345 499 320 509 l 444 458 q 509 427 477 445 q 566 385 541 409 q 606 331 591 361 q 621 261 621 300 q 596 143 621 195 q 531 57 572 92 q 439 4 491 22 q 333 -14 387 -14 q 248 -6 288 -14 q 177 15 209 2 q 121 42 145 27 q 83 71 98 57 l 120 138 q 204 91 153 111 q 326 71 255 71 q 401 82 366 71 q 461 114 435 93 q 500 167 486 136 q 515 239 515 199 q 509 271 515 256 q 492 297 504 285 q 460 321 480 309 q 412 345 441 332 l 309 387 q 244 420 272 402 q 196 461 216 437 q 167 517 177 486 q 157 593 157 549 z "},"Ş":{"ha":829,"x_min":117,"x_max":848,"o":"m 813 909 q 766 940 793 924 q 709 966 739 955 q 645 985 678 978 q 576 993 611 993 q 445 977 496 993 q 364 933 393 961 q 323 869 334 906 q 311 792 311 833 q 317 746 311 766 q 338 712 323 727 q 375 684 352 696 q 432 659 398 671 l 602 597 q 686 558 648 580 q 749 508 723 537 q 790 441 776 479 q 804 354 804 404 q 781 211 804 279 q 708 89 758 142 q 579 4 658 36 q 389 -28 500 -28 q 306 -21 347 -28 q 231 -4 266 -15 q 166 21 195 7 q 117 50 138 35 l 145 147 q 207 111 180 125 q 261 87 234 96 q 320 74 289 78 q 393 71 351 71 q 611 132 539 71 q 684 321 684 194 q 674 378 684 354 q 648 421 665 402 q 606 454 631 439 q 549 481 581 468 l 377 549 q 331 570 352 559 q 293 593 311 581 q 216 674 240 629 q 192 772 192 719 q 207 867 192 823 q 247 945 221 910 q 307 1008 272 981 q 381 1054 341 1036 q 465 1082 421 1072 q 552 1091 509 1091 q 708 1070 636 1091 q 848 1004 781 1048 l 813 909 z "},"ş":{"ha":641,"x_min":83,"x_max":659,"o":"m 157 593 q 178 680 157 642 q 233 742 198 717 q 316 780 269 767 q 416 792 363 792 q 488 784 453 792 q 553 764 522 776 q 611 736 584 751 q 659 708 637 722 l 620 633 q 575 658 600 646 q 524 682 551 671 q 469 699 497 692 q 414 706 441 706 q 352 700 380 706 q 301 680 323 693 q 268 648 280 667 q 256 605 256 629 q 260 568 256 583 q 276 541 265 553 q 303 519 286 529 q 345 499 320 509 l 444 458 q 509 427 477 445 q 566 385 541 409 q 606 331 591 361 q 621 261 621 300 q 596 143 621 195 q 531 57 572 92 q 439 4 491 22 q 333 -14 387 -14 q 248 -6 288 -14 q 177 15 209 2 q 121 42 145 27 q 83 71 98 57 l 120 138 q 204 91 153 111 q 326 71 255 71 q 401 82 366 71 q 461 114 435 93 q 500 167 486 136 q 515 239 515 199 q 509 271 515 256 q 492 297 504 285 q 460 321 480 309 q 412 345 441 332 l 309 387 q 244 420 272 402 q 196 461 216 437 q 167 517 177 486 q 157 593 157 549 z "},"Š":{"ha":826,"x_min":117,"x_max":848,"o":"m 813 909 q 766 940 793 924 q 709 966 739 955 q 645 985 678 978 q 576 993 611 993 q 445 977 496 993 q 364 933 393 961 q 323 869 334 906 q 311 792 311 833 q 317 746 311 766 q 338 712 323 727 q 375 684 352 696 q 432 659 398 671 l 602 597 q 686 558 648 580 q 749 508 723 537 q 790 441 776 479 q 804 354 804 404 q 781 211 804 279 q 708 89 758 142 q 579 4 658 36 q 389 -28 500 -28 q 306 -21 347 -28 q 231 -4 266 -15 q 166 21 195 7 q 117 50 138 35 l 145 147 q 207 111 180 125 q 261 87 234 96 q 320 74 289 78 q 393 71 351 71 q 611 132 539 71 q 684 321 684 194 q 674 378 684 354 q 648 421 665 402 q 606 454 631 439 q 549 481 581 468 l 377 549 q 331 570 352 559 q 293 593 311 581 q 216 674 240 629 q 192 772 192 719 q 207 867 192 823 q 247 945 221 910 q 307 1008 272 981 q 381 1054 341 1036 q 465 1082 421 1072 q 552 1091 509 1091 q 708 1070 636 1091 q 848 1004 781 1048 l 813 909 m 599 1149 l 526 1149 l 460 1505 l 549 1505 l 591 1289 l 724 1505 l 827 1505 l 599 1149 z "},"š":{"ha":640,"x_min":83,"x_max":670,"o":"m 157 593 q 178 680 157 642 q 233 742 198 717 q 316 780 269 767 q 416 792 363 792 q 488 784 453 792 q 553 764 522 776 q 611 736 584 751 q 659 708 637 722 l 620 633 q 575 658 600 646 q 524 682 551 671 q 469 699 497 692 q 414 706 441 706 q 352 700 380 706 q 301 680 323 693 q 268 648 280 667 q 256 605 256 629 q 260 568 256 583 q 276 541 265 553 q 303 519 286 529 q 345 499 320 509 l 444 458 q 509 427 477 445 q 566 385 541 409 q 606 331 591 361 q 621 261 621 300 q 596 143 621 195 q 531 57 572 92 q 439 4 491 22 q 333 -14 387 -14 q 248 -6 288 -14 q 177 15 209 2 q 121 42 145 27 q 83 71 98 57 l 120 138 q 204 91 153 111 q 326 71 255 71 q 401 82 366 71 q 461 114 435 93 q 500 167 486 136 q 515 239 515 199 q 509 271 515 256 q 492 297 504 285 q 460 321 480 309 q 412 345 441 332 l 309 387 q 244 420 272 402 q 196 461 216 437 q 167 517 177 486 q 157 593 157 549 m 441 873 l 369 873 l 303 1228 l 391 1228 l 433 1013 l 566 1228 l 670 1228 l 441 873 z "},"Ţ":{"ha":683,"x_min":131,"x_max":840,"o":"m 827 977 l 538 977 l 401 0 l 284 0 l 420 977 l 131 977 l 144 1069 l 840 1069 l 827 977 z "},"ţ":{"ha":509,"x_min":149,"x_max":541,"o":"m 326 77 q 376 87 349 77 q 424 111 402 98 q 449 126 437 118 q 475 144 462 135 l 525 76 q 493 53 509 64 q 458 33 476 42 q 391 3 428 16 q 315 -11 354 -11 q 258 0 283 -11 q 213 33 232 12 q 184 84 195 54 q 174 152 174 114 q 175 162 174 156 q 178 183 175 168 q 181 208 179 193 q 186 245 182 223 l 254 728 l 149 728 l 155 778 l 261 778 l 301 1057 l 410 1086 l 368 778 l 541 778 l 534 728 l 360 728 l 280 144 q 281 117 278 130 q 291 96 284 105 q 307 82 298 87 q 326 77 315 77 z "},"Ť":{"ha":683,"x_min":131,"x_max":840,"o":"m 827 977 l 538 977 l 401 0 l 284 0 l 420 977 l 131 977 l 144 1069 l 840 1069 l 827 977 z "},"ť":{"ha":1021,"x_min":149,"x_max":882,"o":"m 326 77 q 376 87 349 77 q 424 111 402 98 q 449 126 437 118 q 475 144 462 135 l 525 76 q 493 53 509 64 q 458 33 476 42 q 391 3 428 16 q 315 -11 354 -11 q 258 0 283 -11 q 213 33 232 12 q 184 84 195 54 q 174 152 174 114 q 175 162 174 156 q 178 183 175 168 q 181 208 179 193 q 186 245 182 223 l 254 728 l 149 728 l 155 778 l 261 778 l 301 1057 l 410 1086 l 368 778 l 541 778 l 534 728 l 360 728 l 280 144 q 281 117 278 130 q 291 96 284 105 q 307 82 298 87 q 326 77 315 77 m 690 878 l 707 1072 l 882 1072 l 865 879 q 850 816 862 843 q 816 769 838 789 q 763 734 794 749 q 692 709 732 720 l 671 772 q 715 790 699 781 q 743 812 732 800 q 760 840 754 824 q 770 878 766 856 l 690 878 z "},"Ŧ":{"ha":680,"x_min":131,"x_max":840,"o":"m 827 977 l 538 977 l 401 0 l 284 0 l 420 977 l 131 977 l 144 1069 l 840 1069 l 827 977 m 640 541 l 210 541 l 224 642 l 654 642 l 640 541 z "},"ŧ":{"ha":508,"x_min":80,"x_max":541,"o":"m 326 77 q 376 87 349 77 q 424 111 402 98 q 449 126 437 118 q 475 144 462 135 l 525 76 q 493 53 509 64 q 458 33 476 42 q 391 3 428 16 q 315 -11 354 -11 q 258 0 283 -11 q 213 33 232 12 q 184 84 195 54 q 174 152 174 114 q 175 162 174 156 q 178 183 175 168 q 181 208 179 193 q 186 245 182 223 l 254 728 l 149 728 l 155 778 l 261 778 l 301 1057 l 410 1086 l 368 778 l 541 778 l 534 728 l 360 728 l 280 144 q 281 117 278 130 q 291 96 284 105 q 307 82 298 87 q 326 77 315 77 m 510 472 l 80 472 l 94 572 l 524 572 l 510 472 z "},"Ũ":{"ha":931,"x_min":125,"x_max":1010,"o":"m 486 63 q 614 84 561 63 q 706 154 668 105 q 768 283 743 203 q 809 481 792 363 l 893 1069 l 1010 1069 l 927 484 q 889 305 913 382 q 834 171 866 228 q 764 76 803 115 q 680 15 725 38 q 583 -17 634 -7 q 475 -27 531 -27 q 325 1 390 -27 q 215 81 259 29 q 148 207 171 133 q 125 374 125 281 q 126 384 125 379 q 126 398 126 389 q 128 419 127 406 q 132 452 130 432 q 140 525 134 479 q 156 644 146 571 q 181 821 166 717 q 216 1069 195 926 l 332 1069 q 297 818 312 924 q 273 637 283 711 q 256 515 262 562 q 247 439 250 467 q 243 405 245 418 q 242 381 242 391 q 241 366 241 372 q 241 354 241 359 q 253 240 241 293 q 293 147 264 186 q 369 85 321 108 q 486 63 416 63 m 777 1139 q 711 1152 744 1139 q 647 1179 677 1164 q 591 1207 617 1194 q 547 1219 565 1219 q 529 1218 538 1219 q 514 1211 521 1217 q 502 1192 507 1204 q 498 1157 498 1179 l 401 1157 q 412 1227 401 1198 q 444 1277 424 1257 q 492 1306 465 1297 q 551 1316 519 1316 q 613 1303 583 1316 q 669 1276 642 1291 q 721 1249 696 1261 q 767 1236 745 1236 q 788 1239 779 1236 q 803 1247 797 1241 q 813 1266 810 1254 q 817 1299 817 1278 l 912 1299 q 902 1221 912 1252 q 873 1173 891 1191 q 830 1147 854 1154 q 777 1139 805 1139 z "},"ũ":{"ha":784,"x_min":138,"x_max":814,"o":"m 327 778 q 323 752 327 780 q 313 680 319 725 q 299 578 307 635 q 284 464 292 521 q 270 356 277 407 q 258 271 263 304 q 254 237 256 250 q 253 222 253 224 q 268 134 253 168 q 309 86 283 101 q 374 71 336 71 q 494 99 436 71 q 613 183 551 128 l 696 778 l 810 778 l 702 0 l 616 0 q 617 59 617 31 q 617 119 616 88 q 488 18 551 51 q 361 -14 425 -14 q 195 39 251 -14 q 138 202 138 92 q 140 219 138 205 q 144 255 141 233 q 150 306 146 277 q 157 367 153 334 q 169 457 163 410 q 181 551 175 505 q 193 639 187 597 q 203 712 199 681 q 210 762 207 744 q 212 778 212 780 l 327 778 m 679 874 q 612 887 646 874 q 549 914 579 899 q 493 942 519 929 q 448 954 467 954 q 431 953 439 954 q 415 945 422 951 q 404 927 408 939 q 399 892 399 914 l 302 892 q 314 962 302 932 q 346 1012 326 992 q 394 1041 366 1031 q 453 1050 421 1050 q 514 1038 485 1050 q 571 1011 544 1025 q 623 984 598 996 q 669 971 647 971 q 689 974 680 971 q 705 982 699 976 q 715 1001 711 989 q 718 1034 718 1013 l 814 1034 q 803 956 814 987 q 774 907 793 926 q 731 882 756 889 q 679 874 707 874 z "},"Ū":{"ha":936,"x_min":125,"x_max":1010,"o":"m 486 63 q 614 84 561 63 q 706 154 668 105 q 768 283 743 203 q 809 481 792 363 l 893 1069 l 1010 1069 l 927 484 q 889 305 913 382 q 834 171 866 228 q 764 76 803 115 q 680 15 725 38 q 583 -17 634 -7 q 475 -27 531 -27 q 325 1 390 -27 q 215 81 259 29 q 148 207 171 133 q 125 374 125 281 q 126 384 125 379 q 126 398 126 389 q 128 419 127 406 q 132 452 130 432 q 140 525 134 479 q 156 644 146 571 q 181 821 166 717 q 216 1069 195 926 l 332 1069 q 297 818 312 924 q 273 637 283 711 q 256 515 262 562 q 247 439 250 467 q 243 405 245 418 q 242 381 242 391 q 241 366 241 372 q 241 354 241 359 q 253 240 241 293 q 293 147 264 186 q 369 85 321 108 q 486 63 416 63 z "},"ū":{"ha":786,"x_min":138,"x_max":810,"o":"m 327 778 q 323 752 327 780 q 313 680 319 725 q 299 578 307 635 q 284 464 292 521 q 270 356 277 407 q 258 271 263 304 q 254 237 256 250 q 253 222 253 224 q 268 134 253 168 q 309 86 283 101 q 374 71 336 71 q 494 99 436 71 q 613 183 551 128 l 696 778 l 810 778 l 702 0 l 616 0 q 617 59 617 31 q 617 119 616 88 q 488 18 551 51 q 361 -14 425 -14 q 195 39 251 -14 q 138 202 138 92 q 140 219 138 205 q 144 255 141 233 q 150 306 146 277 q 157 367 153 334 q 169 457 163 410 q 181 551 175 505 q 193 639 187 597 q 203 712 199 681 q 210 762 207 744 q 212 778 212 780 l 327 778 z "},"Ŭ":{"ha":936,"x_min":125,"x_max":1010,"o":"m 486 63 q 614 84 561 63 q 706 154 668 105 q 768 283 743 203 q 809 481 792 363 l 893 1069 l 1010 1069 l 927 484 q 889 305 913 382 q 834 171 866 228 q 764 76 803 115 q 680 15 725 38 q 583 -17 634 -7 q 475 -27 531 -27 q 325 1 390 -27 q 215 81 259 29 q 148 207 171 133 q 125 374 125 281 q 126 384 125 379 q 126 398 126 389 q 128 419 127 406 q 132 452 130 432 q 140 525 134 479 q 156 644 146 571 q 181 821 166 717 q 216 1069 195 926 l 332 1069 q 297 818 312 924 q 273 637 283 711 q 256 515 262 562 q 247 439 250 467 q 243 405 245 418 q 242 381 242 391 q 241 366 241 372 q 241 354 241 359 q 253 240 241 293 q 293 147 264 186 q 369 85 321 108 q 486 63 416 63 z "},"ŭ":{"ha":786,"x_min":138,"x_max":810,"o":"m 327 778 q 323 752 327 780 q 313 680 319 725 q 299 578 307 635 q 284 464 292 521 q 270 356 277 407 q 258 271 263 304 q 254 237 256 250 q 253 222 253 224 q 268 134 253 168 q 309 86 283 101 q 374 71 336 71 q 494 99 436 71 q 613 183 551 128 l 696 778 l 810 778 l 702 0 l 616 0 q 617 59 617 31 q 617 119 616 88 q 488 18 551 51 q 361 -14 425 -14 q 195 39 251 -14 q 138 202 138 92 q 140 219 138 205 q 144 255 141 233 q 150 306 146 277 q 157 367 153 334 q 169 457 163 410 q 181 551 175 505 q 193 639 187 597 q 203 712 199 681 q 210 762 207 744 q 212 778 212 780 l 327 778 z "},"Ů":{"ha":936,"x_min":125,"x_max":1010,"o":"m 486 63 q 614 84 561 63 q 706 154 668 105 q 768 283 743 203 q 809 481 792 363 l 893 1069 l 1010 1069 l 927 484 q 889 305 913 382 q 834 171 866 228 q 764 76 803 115 q 680 15 725 38 q 583 -17 634 -7 q 475 -27 531 -27 q 325 1 390 -27 q 215 81 259 29 q 148 207 171 133 q 125 374 125 281 q 126 384 125 379 q 126 398 126 389 q 128 419 127 406 q 132 452 130 432 q 140 525 134 479 q 156 644 146 571 q 181 821 166 717 q 216 1069 195 926 l 332 1069 q 297 818 312 924 q 273 637 283 711 q 256 515 262 562 q 247 439 250 467 q 243 405 245 418 q 242 381 242 391 q 241 366 241 372 q 241 354 241 359 q 253 240 241 293 q 293 147 264 186 q 369 85 321 108 q 486 63 416 63 z "},"ů":{"ha":786,"x_min":138,"x_max":810,"o":"m 327 778 q 323 752 327 780 q 313 680 319 725 q 299 578 307 635 q 284 464 292 521 q 270 356 277 407 q 258 271 263 304 q 254 237 256 250 q 253 222 253 224 q 268 134 253 168 q 309 86 283 101 q 374 71 336 71 q 494 99 436 71 q 613 183 551 128 l 696 778 l 810 778 l 702 0 l 616 0 q 617 59 617 31 q 617 119 616 88 q 488 18 551 51 q 361 -14 425 -14 q 195 39 251 -14 q 138 202 138 92 q 140 219 138 205 q 144 255 141 233 q 150 306 146 277 q 157 367 153 334 q 169 457 163 410 q 181 551 175 505 q 193 639 187 597 q 203 712 199 681 q 210 762 207 744 q 212 778 212 780 l 327 778 z "},"Ű":{"ha":936,"x_min":125,"x_max":1010,"o":"m 486 63 q 614 84 561 63 q 706 154 668 105 q 768 283 743 203 q 809 481 792 363 l 893 1069 l 1010 1069 l 927 484 q 889 305 913 382 q 834 171 866 228 q 764 76 803 115 q 680 15 725 38 q 583 -17 634 -7 q 475 -27 531 -27 q 325 1 390 -27 q 215 81 259 29 q 148 207 171 133 q 125 374 125 281 q 126 384 125 379 q 126 398 126 389 q 128 419 127 406 q 132 452 130 432 q 140 525 134 479 q 156 644 146 571 q 181 821 166 717 q 216 1069 195 926 l 332 1069 q 297 818 312 924 q 273 637 283 711 q 256 515 262 562 q 247 439 250 467 q 243 405 245 418 q 242 381 242 391 q 241 366 241 372 q 241 354 241 359 q 253 240 241 293 q 293 147 264 186 q 369 85 321 108 q 486 63 416 63 z "},"ű":{"ha":786,"x_min":138,"x_max":810,"o":"m 327 778 q 323 752 327 780 q 313 680 319 725 q 299 578 307 635 q 284 464 292 521 q 270 356 277 407 q 258 271 263 304 q 254 237 256 250 q 253 222 253 224 q 268 134 253 168 q 309 86 283 101 q 374 71 336 71 q 494 99 436 71 q 613 183 551 128 l 696 778 l 810 778 l 702 0 l 616 0 q 617 59 617 31 q 617 119 616 88 q 488 18 551 51 q 361 -14 425 -14 q 195 39 251 -14 q 138 202 138 92 q 140 219 138 205 q 144 255 141 233 q 150 306 146 277 q 157 367 153 334 q 169 457 163 410 q 181 551 175 505 q 193 639 187 597 q 203 712 199 681 q 210 762 207 744 q 212 778 212 780 l 327 778 z "},"Ų":{"ha":936,"x_min":125,"x_max":1010,"o":"m 486 63 q 614 84 561 63 q 706 154 668 105 q 768 283 743 203 q 809 481 792 363 l 893 1069 l 1010 1069 l 927 484 q 889 305 913 382 q 834 171 866 228 q 764 76 803 115 q 680 15 725 38 q 583 -17 634 -7 q 475 -27 531 -27 q 325 1 390 -27 q 215 81 259 29 q 148 207 171 133 q 125 374 125 281 q 126 384 125 379 q 126 398 126 389 q 128 419 127 406 q 132 452 130 432 q 140 525 134 479 q 156 644 146 571 q 181 821 166 717 q 216 1069 195 926 l 332 1069 q 297 818 312 924 q 273 637 283 711 q 256 515 262 562 q 247 439 250 467 q 243 405 245 418 q 242 381 242 391 q 241 366 241 372 q 241 354 241 359 q 253 240 241 293 q 293 147 264 186 q 369 85 321 108 q 486 63 416 63 z "},"ų":{"ha":786,"x_min":138,"x_max":810,"o":"m 327 778 q 323 752 327 780 q 313 680 319 725 q 299 578 307 635 q 284 464 292 521 q 270 356 277 407 q 258 271 263 304 q 254 237 256 250 q 253 222 253 224 q 268 134 253 168 q 309 86 283 101 q 374 71 336 71 q 494 99 436 71 q 613 183 551 128 l 696 778 l 810 778 l 702 0 l 616 0 q 617 59 617 31 q 617 119 616 88 q 488 18 551 51 q 361 -14 425 -14 q 195 39 251 -14 q 138 202 138 92 q 140 219 138 205 q 144 255 141 233 q 150 306 146 277 q 157 367 153 334 q 169 457 163 410 q 181 551 175 505 q 193 639 187 597 q 203 712 199 681 q 210 762 207 744 q 212 778 212 780 l 327 778 z "},"Ŵ":{"ha":1355,"x_min":202,"x_max":1339,"o":"m 654 1070 l 839 1070 l 889 64 l 1227 1069 l 1339 1069 l 965 0 l 789 0 l 749 1018 l 387 0 l 202 0 l 205 1069 l 309 1069 l 307 61 l 654 1070 z "},"ŵ":{"ha":962,"x_min":137,"x_max":1062,"o":"m 625 0 l 590 696 l 342 0 l 219 0 l 137 777 l 237 777 l 295 82 l 537 777 l 652 777 l 701 82 l 954 777 l 1062 777 l 750 0 l 625 0 z "},"Ŷ":{"ha":772,"x_min":159,"x_max":915,"o":"m 442 427 l 802 1066 l 915 1066 l 488 328 l 441 0 l 326 0 l 375 349 l 159 1066 l 262 1066 l 442 427 m 566 1494 l 638 1494 l 711 1139 l 623 1139 l 581 1354 l 448 1139 l 345 1139 l 566 1494 z "},"ŷ":{"ha":690,"x_min":55,"x_max":785,"o":"m 55 -230 q 140 -206 106 -223 q 188 -176 167 -194 q 228 -132 209 -157 q 264 -71 246 -106 q 304 12 283 -35 q 294 61 299 37 q 283 112 289 86 l 145 778 l 256 778 l 379 157 l 667 778 l 785 778 l 428 64 q 397 0 413 35 q 364 -69 382 -34 q 326 -138 347 -104 q 282 -201 306 -172 q 229 -254 258 -231 q 165 -292 200 -277 q 72 -311 125 -307 l 55 -230 z "},"Ÿ":{"ha":772,"x_min":159,"x_max":915,"o":"m 442 427 l 802 1066 l 915 1066 l 488 328 l 441 0 l 326 0 l 375 349 l 159 1066 l 262 1066 l 442 427 m 469 1241 q 462 1203 469 1221 q 442 1172 454 1185 q 414 1149 429 1158 q 382 1141 398 1141 q 333 1161 351 1141 q 316 1212 315 1181 q 323 1248 316 1230 q 343 1280 331 1266 q 372 1302 356 1293 q 406 1310 389 1310 q 452 1290 435 1310 q 469 1240 469 1270 l 469 1241 m 745 1240 q 737 1202 745 1220 q 717 1170 730 1184 q 689 1148 705 1156 q 657 1139 673 1139 q 609 1160 627 1139 q 591 1211 591 1180 q 598 1247 591 1229 q 618 1278 606 1265 q 647 1300 631 1292 q 681 1309 663 1309 q 727 1289 709 1309 q 744 1238 745 1269 q 744 1239 744 1239 q 745 1240 745 1239 z "},"Ź":{"ha":745,"x_min":71,"x_max":867,"o":"m 867 1066 l 852 964 l 193 94 l 731 94 l 718 0 l 71 0 l 87 119 l 738 977 l 207 977 l 220 1066 l 867 1066 z "},"ź":{"ha":569,"x_min":61,"x_max":633,"o":"m 524 693 l 176 693 l 189 778 l 633 778 l 618 668 l 163 85 l 525 85 l 526 0 l 61 0 l 75 109 l 524 693 z "},"Ż":{"ha":745,"x_min":71,"x_max":867,"o":"m 867 1066 l 852 964 l 193 94 l 731 94 l 718 0 l 71 0 l 87 119 l 738 977 l 207 977 l 220 1066 l 867 1066 z "},"ż":{"ha":569,"x_min":61,"x_max":633,"o":"m 524 693 l 176 693 l 189 778 l 633 778 l 618 668 l 163 85 l 525 85 l 526 0 l 61 0 l 75 109 l 524 693 z "},"Ž":{"ha":740,"x_min":71,"x_max":867,"o":"m 867 1066 l 852 964 l 193 94 l 731 94 l 718 0 l 71 0 l 87 119 l 738 977 l 207 977 l 220 1066 l 867 1066 m 579 1174 l 507 1174 l 441 1529 l 529 1529 l 571 1314 l 704 1529 l 808 1529 l 579 1174 z "},"ž":{"ha":565,"x_min":61,"x_max":646,"o":"m 524 693 l 176 693 l 189 778 l 633 778 l 618 668 l 163 85 l 525 85 l 526 0 l 61 0 l 75 109 l 524 693 m 418 873 l 345 873 l 279 1229 l 368 1229 l 410 1013 l 543 1229 l 646 1229 l 418 873 z "},"ƒ":{"ha":500,"x_min":-80,"x_max":657,"o":"m 516 979 q 474 972 493 979 q 439 940 455 965 q 411 865 424 914 q 387 731 397 816 l 596 731 l 591 681 l 379 681 l 298 131 q 257 -41 281 24 q 200 -142 232 -106 q 130 -190 168 -178 q 48 -202 92 -202 q -3 -193 20 -202 q -43 -172 -26 -183 q -70 -150 -60 -160 q -80 -140 -80 -140 l -31 -58 q 13 -97 -9 -84 q 60 -109 35 -109 q 102 -102 83 -109 q 137 -71 121 -96 q 166 2 153 -46 q 191 133 179 50 l 273 681 l 165 681 l 170 731 l 280 731 q 305 858 290 804 q 338 949 319 911 q 377 1010 356 987 q 423 1048 399 1034 q 474 1066 448 1061 q 530 1071 501 1071 q 582 1061 558 1071 q 623 1039 606 1051 q 649 1017 640 1027 q 657 1006 658 1007 l 607 927 q 516 979 566 979 z "},"Ǎ":{"ha":878,"x_min":29,"x_max":866,"o":"m 610 1010 l 481 730 l 295 326 l 704 326 l 646 734 l 610 1010 m 524 1069 l 712 1069 l 866 0 l 749 0 l 713 259 l 264 259 l 145 0 l 29 0 l 524 1069 m 566 1139 l 493 1139 l 427 1494 l 515 1494 l 557 1278 l 690 1494 l 794 1494 l 566 1139 z "},"ǎ":{"ha":741,"x_min":119,"x_max":768,"o":"m 768 723 l 665 0 l 580 0 l 586 134 q 485 24 545 62 q 355 -14 425 -14 q 246 8 291 -14 q 173 70 201 31 q 132 160 145 109 q 119 271 119 212 q 133 383 119 323 q 172 500 146 442 q 235 610 198 557 q 318 704 272 663 q 420 768 365 744 q 538 792 475 792 q 586 787 559 792 q 640 775 613 783 q 691 758 667 767 q 732 741 715 749 l 768 723 m 224 274 q 233 181 224 220 q 262 118 243 142 q 311 82 281 94 q 380 71 340 71 q 447 85 414 71 q 506 120 479 99 q 554 165 533 141 q 586 207 574 189 l 656 680 q 647 685 657 680 q 619 693 636 689 q 580 702 602 698 q 537 705 558 705 q 460 689 498 705 q 388 644 422 673 q 323 575 353 615 q 271 487 293 535 q 236 385 249 439 q 224 274 224 331 m 515 873 l 442 873 l 376 1228 l 465 1228 l 507 1013 l 640 1228 l 743 1228 l 515 873 z "},"Ǐ":{"ha":573,"x_min":109,"x_max":667,"o":"m 119 75 l 245 75 l 372 991 l 248 991 l 258 1070 l 628 1070 l 617 991 l 490 991 l 361 75 l 490 75 l 479 0 l 109 0 l 119 75 m 439 1151 l 366 1151 l 300 1506 l 389 1506 l 431 1291 l 564 1506 l 667 1506 l 439 1151 z "},"Ǒ":{"ha":981,"x_min":149,"x_max":1004,"o":"m 1004 707 q 987 507 1004 602 q 939 330 970 411 q 862 182 907 248 q 759 69 817 116 q 634 -3 702 22 q 490 -28 566 -28 q 348 -6 411 -28 q 241 62 285 16 q 173 178 197 108 q 149 345 149 248 q 165 543 149 448 q 213 721 182 638 q 289 872 244 804 q 390 989 333 940 q 513 1064 446 1038 q 656 1091 581 1091 q 819 1063 753 1091 q 927 984 886 1035 q 986 863 968 933 q 1004 707 1004 792 m 883 712 q 871 822 883 770 q 831 911 859 873 q 759 971 804 949 q 647 993 713 993 q 524 964 578 993 q 428 888 470 936 q 357 775 387 840 q 309 638 328 710 q 281 490 290 566 q 272 343 272 414 q 331 138 272 205 q 505 71 390 71 q 622 96 568 71 q 717 168 675 122 q 790 275 759 213 q 842 408 821 336 q 873 556 863 479 q 883 712 883 634 m 606 1139 l 533 1139 l 467 1494 l 555 1494 l 597 1278 l 730 1494 l 834 1494 l 606 1139 z "},"ǒ":{"ha":780,"x_min":119,"x_max":795,"o":"m 119 290 q 131 413 119 352 q 164 531 142 475 q 221 634 187 587 q 299 717 254 682 q 399 772 343 752 q 522 792 455 792 q 617 780 576 792 q 690 747 659 768 q 741 697 720 726 q 773 635 761 669 q 790 566 785 602 q 795 494 795 530 q 763 287 795 380 q 676 126 731 193 q 547 22 621 59 q 393 -14 474 -14 q 281 7 332 -14 q 195 67 231 28 q 139 162 159 106 q 119 290 119 219 m 408 71 q 502 90 460 71 q 573 140 543 109 q 626 213 604 172 q 660 301 647 255 q 680 393 673 347 q 686 480 686 439 q 677 567 686 526 q 648 639 668 608 q 593 688 627 670 q 508 706 559 706 q 415 687 456 706 q 343 635 374 667 q 290 560 312 602 q 255 472 269 517 q 235 379 241 426 q 229 293 229 333 q 238 207 229 248 q 267 136 246 167 q 322 88 288 106 q 408 71 356 71 m 529 873 l 456 873 l 391 1228 l 479 1228 l 521 1013 l 654 1228 l 758 1228 l 529 873 z "},"Ǔ":{"ha":931,"x_min":125,"x_max":1010,"o":"m 486 63 q 614 84 561 63 q 706 154 668 105 q 768 283 743 203 q 809 481 792 363 l 893 1069 l 1010 1069 l 927 484 q 889 305 913 382 q 834 171 866 228 q 764 76 803 115 q 680 15 725 38 q 583 -17 634 -7 q 475 -27 531 -27 q 325 1 390 -27 q 215 81 259 29 q 148 207 171 133 q 125 374 125 281 q 126 384 125 379 q 126 398 126 389 q 128 419 127 406 q 132 452 130 432 q 140 525 134 479 q 156 644 146 571 q 181 821 166 717 q 216 1069 195 926 l 332 1069 q 297 818 312 924 q 273 637 283 711 q 256 515 262 562 q 247 439 250 467 q 243 405 245 418 q 242 381 242 391 q 241 366 241 372 q 241 354 241 359 q 253 240 241 293 q 293 147 264 186 q 369 85 321 108 q 486 63 416 63 m 610 1139 l 538 1139 l 472 1494 l 560 1494 l 602 1278 l 735 1494 l 839 1494 l 610 1139 z "},"ǔ":{"ha":784,"x_min":138,"x_max":810,"o":"m 327 778 q 323 752 327 780 q 313 680 319 725 q 299 578 307 635 q 284 464 292 521 q 270 356 277 407 q 258 271 263 304 q 254 237 256 250 q 253 222 253 224 q 268 134 253 168 q 309 86 283 101 q 374 71 336 71 q 494 99 436 71 q 613 183 551 128 l 696 778 l 810 778 l 702 0 l 616 0 q 617 59 617 31 q 617 119 616 88 q 488 18 551 51 q 361 -14 425 -14 q 195 39 251 -14 q 138 202 138 92 q 140 219 138 205 q 144 255 141 233 q 150 306 146 277 q 157 367 153 334 q 169 457 163 410 q 181 551 175 505 q 193 639 187 597 q 203 712 199 681 q 210 762 207 744 q 212 778 212 780 l 327 778 m 546 873 l 473 873 l 408 1229 l 496 1229 l 538 1013 l 671 1229 l 774 1229 l 546 873 z "},"Ǻ":{"ha":881,"x_min":29,"x_max":866,"o":"m 610 1010 l 481 730 l 295 326 l 704 326 l 646 734 l 610 1010 m 524 1069 l 712 1069 l 866 0 l 749 0 l 713 259 l 264 259 l 145 0 l 29 0 l 524 1069 z "},"ǻ":{"ha":745,"x_min":119,"x_max":768,"o":"m 768 723 l 665 0 l 580 0 l 586 134 q 485 24 545 62 q 355 -14 425 -14 q 246 8 291 -14 q 173 70 201 31 q 132 160 145 109 q 119 271 119 212 q 133 383 119 323 q 172 500 146 442 q 235 610 198 557 q 318 704 272 663 q 420 768 365 744 q 538 792 475 792 q 586 787 559 792 q 640 775 613 783 q 691 758 667 767 q 732 741 715 749 l 768 723 m 224 274 q 233 181 224 220 q 262 118 243 142 q 311 82 281 94 q 380 71 340 71 q 447 85 414 71 q 506 120 479 99 q 554 165 533 141 q 586 207 574 189 l 656 680 q 647 685 657 680 q 619 693 636 689 q 580 702 602 698 q 537 705 558 705 q 460 689 498 705 q 388 644 422 673 q 323 575 353 615 q 271 487 293 535 q 236 385 249 439 q 224 274 224 331 z "},"Ǽ":{"ha":1337,"x_min":29,"x_max":1408,"o":"m 838 601 l 1278 601 l 1269 528 l 827 528 l 765 94 l 1277 94 l 1265 0 l 643 0 l 680 260 l 321 260 l 153 0 l 29 0 l 741 1066 l 1408 1066 l 1395 977 l 891 977 l 838 601 m 690 326 l 778 971 l 376 326 l 690 326 z "},"ǽ":{"ha":1153,"x_min":119,"x_max":1202,"o":"m 1100 69 q 1040 34 1072 49 q 975 7 1008 18 q 911 -9 943 -3 q 850 -14 879 -14 q 704 22 760 -14 q 618 125 648 58 q 561 70 593 95 q 493 26 528 45 q 421 -4 457 7 q 355 -14 385 -14 q 247 8 292 -14 q 174 68 202 30 q 133 159 146 107 q 119 271 119 211 q 133 385 119 326 q 173 503 146 445 q 236 613 199 561 q 322 706 274 666 q 428 769 370 745 q 552 792 486 792 q 655 781 611 792 q 727 756 699 770 q 769 732 755 743 q 781 722 783 722 q 871 773 822 755 q 978 792 920 792 q 1072 777 1030 792 q 1142 730 1114 762 q 1186 650 1171 699 q 1202 534 1202 601 q 1199 504 1202 518 q 1181 475 1196 489 q 1136 449 1166 462 q 1050 425 1105 437 q 911 401 995 412 q 705 378 827 389 q 699 321 701 347 q 696 271 696 295 q 745 120 696 168 q 878 71 793 71 q 978 95 928 71 q 1076 158 1027 119 l 1100 69 m 224 269 q 234 178 224 216 q 263 117 244 140 q 312 82 283 93 q 380 71 341 71 q 441 83 410 71 q 501 115 472 96 q 555 156 530 134 q 595 197 579 178 q 589 279 589 235 q 598 377 589 326 q 624 478 607 428 q 665 574 641 528 q 721 661 690 621 q 711 668 722 661 q 679 683 701 675 q 623 698 657 691 q 543 705 589 705 q 463 689 503 705 q 388 644 423 673 q 322 575 352 615 q 270 486 292 534 q 236 382 248 437 q 224 269 224 328 m 718 454 q 880 477 814 467 q 989 495 946 487 q 1056 511 1032 504 q 1090 524 1079 518 q 1103 536 1101 530 q 1105 547 1105 542 q 1070 665 1105 625 q 975 705 1036 705 q 885 688 926 705 q 811 639 844 671 q 754 561 778 607 q 718 454 730 514 z "},"Ǿ":{"ha":982,"x_min":149,"x_max":1004,"o":"m 882 711 q 865 842 882 783 q 804 939 848 900 l 416 84 q 457 75 435 78 q 504 71 479 71 q 620 97 568 71 q 715 169 673 123 q 788 275 757 214 q 840 408 819 337 q 871 556 861 479 q 882 711 882 634 m 1004 707 q 987 507 1004 602 q 939 330 970 411 q 861 182 907 248 q 759 69 816 116 q 633 -3 701 22 q 488 -28 565 -28 q 370 -14 424 -28 l 332 -97 l 266 -66 l 302 14 q 189 136 229 54 q 149 345 148 217 q 165 543 149 448 q 213 721 182 638 q 289 872 244 804 q 391 989 334 940 q 515 1064 448 1038 q 658 1091 582 1091 q 786 1075 730 1091 l 829 1167 l 896 1139 l 853 1046 q 923 989 895 1023 q 970 912 952 955 q 996 818 988 869 q 1004 707 1004 766 m 647 991 q 524 963 578 991 q 429 887 470 935 q 358 774 387 838 q 310 638 328 710 q 282 491 291 566 q 273 344 273 415 q 293 210 273 264 q 351 121 312 157 l 742 977 q 647 991 701 991 z "},"ǿ":{"ha":734,"x_min":119,"x_max":747,"o":"m 342 78 q 369 73 355 75 q 395 72 382 72 q 467 85 435 72 q 524 119 499 98 q 567 170 549 141 q 598 230 585 199 q 620 295 611 262 q 633 358 628 328 q 639 416 637 389 q 641 462 641 443 q 630 562 641 519 q 595 632 619 605 l 342 78 m 119 289 q 127 381 119 330 q 151 486 134 433 q 196 589 168 538 q 266 679 224 640 q 362 742 307 718 q 489 766 417 766 q 593 749 549 766 l 640 850 l 686 827 l 639 726 q 722 614 696 683 q 747 457 748 545 q 746 419 747 438 q 743 382 745 401 q 706 234 733 305 q 633 107 679 163 q 524 19 588 52 q 378 -14 460 -14 q 339 -12 357 -14 q 304 -7 321 -10 l 250 -123 l 202 -98 l 252 12 q 192 57 217 29 q 151 122 167 85 q 127 200 134 158 q 119 289 119 243 m 553 665 q 519 675 536 671 q 483 679 501 679 q 387 656 428 679 q 317 597 346 633 q 270 515 288 561 q 241 425 251 470 q 229 353 232 388 q 225 289 225 317 q 294 100 225 157 l 553 665 z "},"Ș":{"ha":829,"x_min":117,"x_max":848,"o":"m 813 909 q 766 940 793 924 q 709 966 739 955 q 645 985 678 978 q 576 993 611 993 q 445 977 496 993 q 364 933 393 961 q 323 869 334 906 q 311 792 311 833 q 317 746 311 766 q 338 712 323 727 q 375 684 352 696 q 432 659 398 671 l 602 597 q 686 558 648 580 q 749 508 723 537 q 790 441 776 479 q 804 354 804 404 q 781 211 804 279 q 708 89 758 142 q 579 4 658 36 q 389 -28 500 -28 q 306 -21 347 -28 q 231 -4 266 -15 q 166 21 195 7 q 117 50 138 35 l 145 147 q 207 111 180 125 q 261 87 234 96 q 320 74 289 78 q 393 71 351 71 q 611 132 539 71 q 684 321 684 194 q 674 378 684 354 q 648 421 665 402 q 606 454 631 439 q 549 481 581 468 l 377 549 q 331 570 352 559 q 293 593 311 581 q 216 674 240 629 q 192 772 192 719 q 207 867 192 823 q 247 945 221 910 q 307 1008 272 981 q 381 1054 341 1036 q 465 1082 421 1072 q 552 1091 509 1091 q 708 1070 636 1091 q 848 1004 781 1048 l 813 909 z "},"ș":{"ha":641,"x_min":83,"x_max":659,"o":"m 157 593 q 178 680 157 642 q 233 742 198 717 q 316 780 269 767 q 416 792 363 792 q 488 784 453 792 q 553 764 522 776 q 611 736 584 751 q 659 708 637 722 l 620 633 q 575 658 600 646 q 524 682 551 671 q 469 699 497 692 q 414 706 441 706 q 352 700 380 706 q 301 680 323 693 q 268 648 280 667 q 256 605 256 629 q 260 568 256 583 q 276 541 265 553 q 303 519 286 529 q 345 499 320 509 l 444 458 q 509 427 477 445 q 566 385 541 409 q 606 331 591 361 q 621 261 621 300 q 596 143 621 195 q 531 57 572 92 q 439 4 491 22 q 333 -14 387 -14 q 248 -6 288 -14 q 177 15 209 2 q 121 42 145 27 q 83 71 98 57 l 120 138 q 204 91 153 111 q 326 71 255 71 q 401 82 366 71 q 461 114 435 93 q 500 167 486 136 q 515 239 515 199 q 509 271 515 256 q 492 297 504 285 q 460 321 480 309 q 412 345 441 332 l 309 387 q 244 420 272 402 q 196 461 216 437 q 167 517 177 486 q 157 593 157 549 z "},"ˆ":{"ha":524,"x_min":52,"x_max":419,"o":"m 273 436 l 346 436 l 419 81 l 331 81 l 288 296 l 156 81 l 52 81 l 273 436 z "},"ˇ":{"ha":524,"x_min":108,"x_max":475,"o":"m 246 81 l 174 81 l 108 436 l 196 436 l 238 220 l 371 436 l 475 436 l 246 81 z "},"˘":{"ha":414,"x_min":41,"x_max":355,"o":"m 355 197 q 334 133 349 161 q 295 85 318 104 q 242 55 271 66 q 181 45 213 45 q 125 54 151 45 q 81 81 100 64 q 52 121 62 98 q 41 172 41 144 q 42 184 41 178 q 43 197 42 191 l 114 197 q 114 164 111 180 q 125 137 117 149 q 146 118 133 125 q 178 111 159 111 q 249 133 222 111 q 282 197 276 155 l 355 197 z "},"˙":{"ha":326,"x_min":124,"x_max":326,"o":"m 300 61 l 124 61 l 151 255 l 326 255 l 300 61 z "},"˚":{"ha":414,"x_min":77,"x_max":334,"o":"m 216 296 q 183 288 197 296 q 158 267 168 280 q 141 237 147 254 q 136 203 136 220 q 150 156 136 174 q 194 137 163 137 q 225 145 211 137 q 251 166 240 153 q 268 196 262 179 q 273 230 273 212 q 259 277 273 258 q 216 296 244 296 m 77 192 q 89 253 77 224 q 120 304 100 282 q 168 338 140 326 q 225 351 195 351 q 270 342 250 351 q 304 318 290 333 q 326 282 318 302 q 334 238 334 261 q 322 176 334 205 q 291 127 311 148 q 244 94 271 106 q 186 81 217 81 q 141 90 161 81 q 107 112 121 98 q 85 147 93 127 q 77 192 77 168 z "},"˛":{"ha":368,"x_min":24,"x_max":325,"o":"m 325 -351 q 259 -373 292 -366 q 196 -380 227 -380 q 129 -370 160 -380 q 74 -339 97 -360 q 37 -288 50 -319 q 24 -216 24 -257 l 24 -217 q 32 -169 24 -192 q 52 -125 39 -146 q 81 -87 65 -104 q 115 -54 98 -69 q 206 7 155 -20 l 289 6 q 197 -63 237 -26 q 163 -98 179 -79 q 134 -139 146 -117 q 113 -183 121 -160 q 105 -231 105 -206 q 113 -267 105 -252 q 135 -291 121 -282 q 166 -304 149 -300 q 203 -309 184 -309 q 269 -299 236 -309 q 322 -276 301 -290 l 325 -351 z "},"˜":{"ha":505,"x_min":-5,"x_max":506,"o":"m 371 81 q 304 94 338 81 q 241 121 271 106 q 185 149 211 136 q 140 161 159 161 q 123 160 132 161 q 107 153 115 159 q 96 134 100 146 q 92 99 92 121 l -5 99 q 6 170 -5 140 q 38 219 18 199 q 86 248 58 239 q 145 258 113 258 q 207 245 177 258 q 263 218 236 233 q 315 191 290 203 q 361 178 339 178 q 381 181 372 178 q 397 190 391 183 q 407 208 404 196 q 410 241 410 220 l 506 241 q 495 163 506 194 q 467 115 485 133 q 424 89 448 96 q 371 81 399 81 z "},"˝":{"ha":990,"x_min":292,"x_max":838,"o":"m 379 81 l 292 81 l 422 500 l 579 500 l 379 81 m 611 81 l 524 81 l 681 500 l 838 500 l 611 81 z "},"́":{"ha":692,"x_min":264,"x_max":567,"o":"m 264 79 l 431 494 l 567 432 l 298 62 l 264 79 z "},"̆":{"ha":472,"x_min":77,"x_max":400,"o":"m 400 205 q 394 172 398 189 q 335 81 378 115 q 216 47 292 47 q 110 80 142 47 q 77 171 77 113 q 78 187 77 178 q 80 205 79 196 l 151 205 q 150 197 150 201 q 149 189 149 193 q 172 136 149 155 q 228 120 193 120 q 296 143 269 120 q 330 205 324 166 l 400 205 z "},"Ѐ":{"ha":732,"x_min":100,"x_max":860,"o":"m 718 0 l 100 0 l 250 1069 l 860 1069 l 846 976 l 354 976 l 301 602 l 731 602 l 721 528 l 291 528 l 230 94 l 730 94 l 718 0 m 574 1158 l 527 1158 l 369 1575 l 544 1575 l 574 1158 z "},"Ё":{"ha":732,"x_min":100,"x_max":860,"o":"m 718 0 l 100 0 l 250 1069 l 860 1069 l 846 976 l 354 976 l 301 602 l 731 602 l 721 528 l 291 528 l 230 94 l 730 94 l 718 0 m 540 1242 q 532 1205 540 1223 q 512 1173 525 1187 q 484 1151 500 1159 q 452 1142 469 1142 q 404 1162 422 1142 q 387 1213 386 1183 q 394 1250 387 1232 q 414 1281 401 1267 q 443 1303 427 1295 q 477 1312 459 1312 q 523 1292 505 1312 q 540 1241 540 1272 l 540 1242 m 815 1241 q 808 1203 815 1221 q 788 1172 800 1185 q 760 1149 775 1158 q 728 1141 744 1141 q 679 1161 697 1141 q 661 1212 661 1181 q 669 1248 661 1230 q 689 1280 676 1266 q 718 1302 701 1293 q 751 1310 734 1310 q 798 1290 780 1310 q 814 1240 815 1270 q 815 1240 814 1240 q 815 1241 815 1240 z "},"Ђ":{"ha":995,"x_min":128,"x_max":973,"o":"m 508 -62 q 561 -59 536 -61 q 608 -54 586 -58 l 606 -54 q 665 -36 638 -47 q 714 -7 692 -25 q 754 35 736 10 q 785 94 772 60 q 795 123 791 110 q 804 155 800 137 q 812 201 808 174 q 822 271 816 228 q 835 376 827 314 q 853 528 842 439 q 857 560 855 547 q 858 576 858 572 q 844 656 858 623 q 805 700 831 687 q 741 712 779 712 q 661 701 701 712 q 586 672 621 689 q 523 636 551 656 q 479 600 495 616 l 395 0 l 279 0 l 416 977 l 128 977 l 142 1069 l 835 1069 l 822 977 l 531 977 l 488 665 q 566 736 531 709 q 632 779 601 763 q 694 800 664 794 q 757 806 724 806 q 973 583 973 806 q 972 566 973 579 q 968 532 971 553 q 961 469 965 505 q 951 393 956 432 q 942 316 946 354 q 933 250 937 279 q 927 203 930 220 q 925 187 925 186 q 823 -40 905 44 q 595 -148 741 -125 q 548 -154 572 -151 q 496 -157 523 -156 l 508 -62 z "},"Ѓ":{"ha":803,"x_min":99,"x_max":897,"o":"m 393 1135 l 518 1556 l 680 1561 l 481 1137 l 393 1135 m 897 1069 l 884 975 l 351 975 l 215 0 l 99 0 l 250 1069 l 897 1069 z "},"Є":{"ha":793,"x_min":148,"x_max":922,"o":"m 148 349 q 162 538 147 446 q 206 712 176 630 q 281 864 236 795 q 385 984 326 934 q 518 1063 444 1035 q 680 1091 592 1091 q 742 1088 705 1091 q 823 1073 778 1085 q 871 1058 847 1067 q 922 1038 896 1050 l 880 944 q 818 969 848 960 q 760 984 787 979 q 708 990 732 989 q 662 992 683 992 q 600 986 630 992 q 499 947 547 976 q 411 868 451 919 q 340 743 371 818 q 292 566 310 669 l 734 566 l 722 493 l 280 493 q 274 428 276 458 q 271 368 271 397 q 283 251 271 305 q 321 156 294 196 q 390 93 347 116 q 494 71 432 71 q 628 90 562 71 q 765 143 695 109 l 785 53 q 723 25 755 39 q 654 -1 690 10 q 578 -20 618 -13 q 492 -28 538 -28 q 341 -2 406 -28 q 234 74 277 24 q 170 195 191 123 q 149 358 149 267 q 148 349 149 351 z "},"Ѕ":{"ha":828,"x_min":117,"x_max":848,"o":"m 813 909 q 766 940 793 924 q 709 966 739 955 q 645 985 678 978 q 576 993 611 993 q 445 977 496 993 q 364 933 393 961 q 323 869 334 906 q 311 792 311 833 q 317 746 311 766 q 338 712 323 727 q 375 684 352 696 q 432 659 398 671 l 602 597 q 686 558 648 580 q 749 508 723 537 q 790 441 776 479 q 804 354 804 404 q 781 211 804 279 q 708 89 758 142 q 579 4 658 36 q 389 -28 500 -28 q 306 -21 347 -28 q 231 -4 266 -15 q 166 21 195 7 q 117 50 138 35 l 145 147 q 207 111 180 125 q 261 87 234 96 q 320 74 289 78 q 393 71 351 71 q 611 132 539 71 q 684 321 684 194 q 674 378 684 354 q 648 421 665 402 q 606 454 631 439 q 549 481 581 468 l 377 549 q 331 570 352 559 q 293 593 311 581 q 216 674 240 629 q 192 772 192 719 q 207 867 192 823 q 247 945 221 910 q 307 1008 272 981 q 381 1054 341 1036 q 465 1082 421 1072 q 552 1091 509 1091 q 708 1070 636 1091 q 848 1004 781 1048 l 813 909 z "},"І":{"ha":621,"x_min":128,"x_max":647,"o":"m 138 75 l 264 75 l 391 991 l 267 991 l 277 1070 l 647 1070 l 636 991 l 509 991 l 380 75 l 509 75 l 498 0 l 128 0 l 138 75 z "},"Ї":{"ha":573,"x_min":109,"x_max":705,"o":"m 119 75 l 245 75 l 372 991 l 248 991 l 258 1070 l 628 1070 l 617 991 l 490 991 l 361 75 l 490 75 l 479 0 l 109 0 l 119 75 m 430 1278 q 422 1240 430 1258 q 402 1208 415 1222 q 374 1186 390 1194 q 342 1177 359 1177 q 294 1198 312 1177 q 277 1249 276 1218 q 284 1285 277 1267 q 304 1316 292 1303 q 333 1338 317 1330 q 367 1347 349 1347 q 413 1327 395 1347 q 430 1276 430 1307 l 430 1278 m 705 1276 q 698 1239 705 1257 q 678 1207 690 1221 q 650 1184 665 1193 q 618 1176 634 1176 q 569 1196 587 1176 q 551 1247 551 1217 q 559 1283 551 1265 q 579 1315 566 1301 q 608 1337 591 1329 q 642 1345 624 1345 q 688 1325 670 1345 q 705 1275 705 1305 q 705 1276 705 1276 q 705 1276 705 1276 z "},"Ј":{"ha":446,"x_min":39,"x_max":511,"o":"m 39 20 q 130 45 93 32 q 193 76 168 59 q 233 114 218 93 q 258 161 248 134 q 273 222 267 189 q 285 298 279 256 l 393 1070 l 511 1070 l 409 347 q 386 216 399 273 q 356 115 374 159 q 312 41 338 72 q 252 -10 287 11 q 169 -43 216 -31 q 59 -61 121 -55 l 39 20 z "},"Љ":{"ha":1638,"x_min":23,"x_max":1654,"o":"m 1040 0 l 927 0 l 1063 976 l 582 976 l 493 524 q 456 345 473 424 q 415 207 438 267 q 362 104 393 146 q 286 36 332 62 q 176 -2 240 10 q 23 -14 112 -14 l 37 76 q 168 96 115 80 q 254 141 220 111 q 307 214 288 170 q 337 319 326 258 l 386 572 l 482 1069 l 1192 1069 l 1131 634 l 1235 634 q 1432 617 1352 634 q 1561 566 1512 600 q 1632 485 1611 533 q 1654 376 1654 437 q 1622 200 1653 271 q 1529 84 1591 129 q 1378 20 1468 39 q 1168 0 1289 0 l 1040 0 m 1548 374 q 1545 403 1548 389 q 1537 430 1542 417 q 1485 488 1520 467 q 1405 520 1449 509 q 1312 535 1360 532 q 1222 538 1263 538 l 1118 538 l 1056 94 l 1189 94 q 1371 113 1301 94 q 1481 166 1442 131 q 1535 254 1521 202 q 1548 374 1549 307 z "},"Њ":{"ha":1458,"x_min":99,"x_max":1474,"o":"m 859 0 l 747 0 l 819 519 l 288 519 l 215 0 l 99 0 l 250 1069 l 365 1069 l 298 593 l 829 593 l 897 1069 l 1013 1069 l 951 634 l 1055 634 q 1216 623 1147 634 q 1334 591 1285 612 q 1413 540 1383 570 q 1459 471 1444 510 q 1474 381 1474 431 q 1443 203 1474 276 q 1351 86 1413 131 q 1199 20 1290 41 q 987 0 1107 0 l 859 0 m 1367 380 q 1363 412 1367 397 q 1354 438 1360 427 q 1301 494 1337 474 q 1221 525 1265 515 q 1129 536 1177 534 q 1042 538 1082 538 l 938 538 l 876 94 l 1008 94 q 1148 102 1090 94 q 1246 127 1206 111 q 1310 168 1286 144 q 1347 224 1334 192 q 1363 295 1359 256 q 1367 380 1367 334 z "},"Ћ":{"ha":952,"x_min":128,"x_max":951,"o":"m 397 0 l 281 0 l 417 976 l 128 976 l 142 1069 l 835 1069 l 822 976 l 532 976 l 485 634 l 734 634 q 824 621 784 634 q 893 581 865 608 q 936 513 921 554 q 951 415 951 471 q 950 396 951 408 q 947 361 949 385 q 941 316 945 343 q 932 245 938 288 q 919 142 927 203 q 899 0 911 82 l 783 0 q 802 142 794 82 q 816 245 810 202 q 826 315 822 288 q 831 359 829 342 q 835 394 835 384 q 836 412 836 405 q 826 473 836 449 q 800 513 817 498 q 761 535 783 528 q 713 541 739 541 l 473 541 l 397 0 z "},"Ќ":{"ha":798,"x_min":99,"x_max":935,"o":"m 623 1176 l 536 1176 l 666 1595 l 823 1595 l 623 1176 m 215 0 l 99 0 l 250 1069 l 365 1069 l 296 577 l 441 577 l 797 1069 l 935 1069 l 597 619 q 571 589 583 601 q 547 568 559 576 q 521 552 534 559 q 492 541 507 546 q 535 514 515 533 q 571 467 555 495 l 827 0 l 698 0 l 433 509 l 286 509 l 215 0 z "},"Ѝ":{"ha":989,"x_min":99,"x_max":1054,"o":"m 671 1195 l 623 1195 l 465 1611 l 640 1611 l 671 1195 m 99 0 l 250 1069 l 366 1069 l 245 212 l 873 1069 l 1054 1069 l 903 0 l 787 0 l 924 983 l 222 50 l 216 0 l 99 0 z "},"Ў":{"ha":752,"x_min":168,"x_max":876,"o":"m 743 1300 q 736 1267 741 1283 q 677 1175 720 1210 q 558 1141 634 1141 q 452 1174 485 1141 q 420 1265 420 1208 q 420 1282 420 1273 q 422 1300 421 1291 l 493 1300 q 492 1291 492 1295 q 492 1284 492 1287 q 513 1233 492 1251 q 570 1215 535 1215 q 639 1237 611 1215 q 673 1300 667 1259 l 743 1300 m 457 406 l 759 1069 l 876 1069 l 484 292 l 458 131 q 427 34 448 74 q 371 -30 405 -5 q 291 -66 337 -55 q 185 -77 244 -77 l 168 3 q 243 6 209 4 q 302 21 277 9 q 344 60 328 33 q 368 136 361 86 l 393 290 l 235 1069 l 344 1069 l 457 406 z "},"Џ":{"ha":945,"x_min":99,"x_max":1011,"o":"m 861 0 l 540 0 l 499 -286 l 398 -286 l 438 0 l 99 0 l 250 1069 l 365 1069 l 227 94 l 758 94 l 895 1069 l 1011 1069 l 861 0 z "},"А":{"ha":878,"x_min":29,"x_max":866,"o":"m 610 1010 l 481 730 l 295 326 l 704 326 l 646 734 l 610 1010 m 524 1069 l 712 1069 l 866 0 l 749 0 l 713 259 l 264 259 l 145 0 l 29 0 l 524 1069 z "},"Б":{"ha":835,"x_min":99,"x_max":851,"o":"m 833 377 q 820 257 833 308 q 759 133 802 182 q 653 54 716 83 q 509 12 590 24 q 332 0 427 0 l 99 0 l 220 854 l 225 854 l 256 1070 l 851 1070 l 840 992 l 354 992 l 304 634 l 399 634 q 726 567 618 634 q 833 373 833 500 l 833 377 m 345 538 l 290 538 l 228 94 l 367 94 q 518 108 455 94 q 623 149 581 122 q 687 217 665 176 q 715 312 709 258 q 716 337 716 324 q 718 363 717 350 q 702 436 718 406 q 662 485 687 466 q 604 515 637 505 q 536 531 571 526 q 466 537 500 536 q 401 538 431 538 l 345 538 z "},"В":{"ha":896,"x_min":100,"x_max":869,"o":"m 454 619 q 588 629 530 619 q 687 665 647 639 q 747 735 726 690 q 768 851 768 781 q 741 918 768 893 q 672 956 715 943 q 575 972 629 968 q 464 976 520 976 l 353 976 l 302 619 l 454 619 m 374 94 q 528 105 460 94 q 642 146 595 117 q 713 225 689 176 q 738 351 738 275 q 735 395 738 373 q 723 438 732 417 q 695 476 713 458 q 644 507 676 494 q 564 528 612 520 q 449 535 516 535 l 291 535 l 229 94 l 374 94 m 846 349 q 813 190 846 256 q 719 82 781 124 q 567 20 656 40 q 362 0 477 0 l 100 0 l 249 1069 l 475 1069 q 660 1057 585 1069 q 782 1019 735 1044 q 848 954 828 993 q 869 861 869 914 q 854 750 869 796 q 809 671 840 704 q 733 618 779 639 q 625 585 688 597 q 793 512 740 570 q 846 349 846 454 z "},"Г":{"ha":803,"x_min":99,"x_max":897,"o":"m 897 1069 l 884 975 l 351 975 l 215 0 l 99 0 l 250 1069 l 897 1069 z "},"Д":{"ha":1061,"x_min":91,"x_max":1126,"o":"m 986 67 l 1056 75 l 1006 -267 l 897 -267 l 932 -16 l 241 -16 l 205 -267 l 91 -267 l 138 71 q 176 64 156 71 q 243 152 214 107 q 296 243 273 196 q 337 341 319 290 q 369 447 355 391 q 401 606 388 522 q 428 791 414 690 l 465 1069 l 1126 1069 l 986 67 m 871 71 l 1000 989 l 570 989 l 543 778 q 512 576 528 671 q 470 395 495 481 q 409 228 445 308 q 319 71 372 148 l 871 71 z "},"Е":{"ha":747,"x_min":100,"x_max":860,"o":"m 718 0 l 100 0 l 250 1069 l 860 1069 l 846 976 l 354 976 l 301 602 l 731 602 l 721 528 l 291 528 l 230 94 l 730 94 l 718 0 z "},"Ж":{"ha":1213,"x_min":22,"x_max":1362,"o":"m 644 509 l 525 509 l 144 0 l 22 0 l 385 460 q 407 486 395 473 q 431 509 418 498 q 456 528 443 520 q 481 541 469 536 q 436 569 453 551 q 403 618 419 587 l 215 1069 l 330 1069 l 530 577 l 654 577 l 724 1069 l 840 1069 l 770 577 l 896 577 l 1234 1069 l 1362 1061 l 1031 619 q 1009 591 1019 604 q 987 570 998 579 q 962 553 975 560 q 934 541 949 546 q 977 514 956 533 q 1013 467 998 496 l 1241 0 l 1120 0 l 880 509 l 760 509 l 689 0 l 574 0 l 644 509 z "},"З":{"ha":979,"x_min":206,"x_max":847,"o":"m 578 544 q 644 529 614 540 q 697 503 673 519 q 764 425 742 472 q 785 319 785 377 q 761 178 785 241 q 692 68 736 115 q 591 -3 649 22 q 463 -28 532 -28 q 360 -20 411 -28 q 257 10 310 -12 q 233 21 245 15 q 206 35 220 28 l 253 131 q 300 108 274 119 q 355 89 327 97 q 411 75 383 80 q 460 71 438 71 q 552 92 512 71 q 621 146 593 113 q 664 224 649 180 q 679 311 679 267 q 636 434 679 389 q 512 492 593 479 q 478 496 496 495 q 441 497 460 497 l 404 497 l 418 591 l 457 591 q 490 592 474 591 q 522 596 506 593 q 616 627 574 605 q 688 682 659 649 q 732 759 717 715 q 748 856 748 803 q 712 958 749 922 q 593 992 675 993 q 570 991 581 992 q 546 989 558 990 q 477 973 513 983 q 404 945 441 962 l 387 1038 q 471 1067 424 1055 q 563 1087 517 1080 q 608 1091 586 1091 q 704 1078 660 1091 q 779 1036 747 1064 q 829 966 811 1008 q 847 866 847 924 q 805 695 846 768 q 691 581 764 621 q 578 544 641 553 z "},"И":{"ha":989,"x_min":99,"x_max":1054,"o":"m 99 0 l 250 1069 l 366 1069 l 245 212 l 873 1069 l 1054 1069 l 903 0 l 787 0 l 924 983 l 222 50 l 216 0 l 99 0 z "}}}
